<?xml-stylesheet type="text/css" href="../../css/style.css" ?>

<svg id="svg-loader" data-name="Layer 1" xmlns="http://www.w3.org/2000/svg" viewBox="0 0 270 200" xmlns:xlink="http://www.w3.org/1999/xlink">
  <defs>
    <style>
      .cls-1 {
        fill: #7f7f7f;
      }

      .cls-2 {
        fill: #fff;
      }

      .cls-3 {
        fill: #0b470d;
      }

      .cls-4 {
        fill: #0f0f0f;
      }

      .cls-5, .cls-6 {
        fill: #7a3400;
      }

      .cls-6 {
        stroke: #e39d00;
        stroke-miterlimit: 10;
        stroke-width: 2px;
      }

      .cls-7 {
        fill: #e4af3e;
      }
    </style>
  </defs>
  <title>bike-loader</title>
  <g id="frontwheel">
    <path d="M227,176.28c-.54,0-1.08,0-1.63,0-1.34-.08-2.68-.14-4-.29-1.49-.16-3-.36-4.47-.64s-3-.67-4.49-1.06a42.16,42.16,0,0,1-6.08-2.14c-1.69-.74-3.34-1.57-5-2.44-1.28-.67-2.52-1.43-3.73-2.22a41.44,41.44,0,0,1-3.49-2.54c-1.33-1.07-2.61-2.22-3.87-3.37-.85-.78-1.68-1.59-2.45-2.45a55,55,0,0,1-5-6.38,48.08,48.08,0,0,1-3.82-6.78q-1.24-2.78-2.24-5.64c-.51-1.45-.85-3-1.24-4.47-.26-1-.51-2-.71-2.93-.12-.61-.15-1.25-.21-1.87-.12-1.06-.24-2.11-.35-3.17,0-.44-.07-.87-.07-1.31,0-1.64-.05-3.28,0-4.92,0-1.25.2-2.49.33-3.74a49.59,49.59,0,0,1,2.61-11.14A51.11,51.11,0,0,1,183,95.17a47.35,47.35,0,0,1,3.84-5c.66-.74,1.32-1.47,2-2.2a32.66,32.66,0,0,1,3.77-3.48c1.34-1.11,2.71-2.2,4.13-3.2a49.1,49.1,0,0,1,6.14-3.64A58,58,0,0,1,209,75a51.85,51.85,0,0,1,7.65-2.1c1.28-.25,2.57-.42,3.87-.58,1.08-.13,2.17-.22,3.25-.28s2.43-.13,3.64-.14,2.24,0,3.35.14,2.39.25,3.59.41,2.35.33,3.51.55c.9.18,1.79.42,2.67.68,1.53.46,3.06.9,4.56,1.45s2.87,1.15,4.29,1.77c.85.38,1.69.79,2.5,1.22A42,42,0,0,1,257,81.2c1.21.88,2.43,1.74,3.62,2.65a22.76,22.76,0,0,1,1.82,1.59c1,.9,2,1.78,2.86,2.74,1.12,1.18,2.18,2.42,3.2,3.69.89,1.09,1.75,2.22,2.54,3.4s1.53,2.45,2.25,3.7c.57,1,1.1,2,1.59,3a46.88,46.88,0,0,1,2.49,6.26c.42,1.35.8,2.72,1.13,4.1s.53,2.59.73,3.89.32,2.47.43,3.71c.08.83.11,1.68.15,2.52s.08,1.53.06,2.29c0,1.09,0,2.18-.14,3.27-.19,1.74-.44,3.47-.7,5.21a35.33,35.33,0,0,1-1.47,6.09c-.63,1.84-1.27,3.67-2,5.45a41.23,41.23,0,0,1-2.16,4.37q-1.38,2.43-3,4.74a41.28,41.28,0,0,1-2.94,3.79c-1.28,1.47-2.61,2.9-4,4.23s-2.81,2.41-4.26,3.57a42.89,42.89,0,0,1-6.06,4,51.5,51.5,0,0,1-8.1,3.71,45.74,45.74,0,0,1-7.35,2c-1.25.23-2.51.45-3.77.63-.94.14-1.89.22-2.85.29-1.35.09-2.71.14-4.07.2Zm2.53-3.67c1.2-.12,2-.17,2.83-.28,1.61-.22,3.23-.41,4.82-.73a46.47,46.47,0,0,0,11.11-3.74c1.5-.73,3-1.55,4.42-2.38a42.38,42.38,0,0,0,5.83-4.13c.86-.71,1.7-1.45,2.49-2.22q1.56-1.51,3-3.12c.72-.79,1.35-1.68,2.06-2.5a24.22,24.22,0,0,0,1.85-2.54c.91-1.37,1.75-2.78,2.54-4.21a47.65,47.65,0,0,0,5.35-17c.16-1.38.24-2.76.29-4.15a40.57,40.57,0,0,0-.35-7.47c-.23-1.47-.43-2.94-.74-4.39a45.16,45.16,0,0,0-2.82-8.73c-.38-.87-.75-1.75-1.18-2.6a10.61,10.61,0,0,1-.92-1.81.87.87,0,0,0-.11-.18c-.5-.75-1-1.5-1.5-2.25-.82-1.21-1.59-2.46-2.5-3.6-1.1-1.38-2.28-2.7-3.51-4s-2.65-2.59-4.06-3.79a43.32,43.32,0,0,0-6.14-4.34,51.68,51.68,0,0,0-6.76-3.33c-.22-.08-.45-.12-.67-.21s-.46-.23-.7-.31c-1.08-.37-2.16-.79-3.26-1.08q-2.53-.66-5.1-1.16c-1.18-.24-2.38-.37-3.57-.5s-2.6-.25-3.91-.28a44.38,44.38,0,0,0-6.62.27c-1.26.16-2.53.26-3.76.53-1.91.41-3.8.89-5.68,1.41a44.13,44.13,0,0,0-7.5,3c-.87.44-1.74.9-2.57,1.4s-1.93,1.2-2.88,1.83c-.6.39-1.18.82-1.75,1.25-.28.21-.52.47-.8.68s-.84.52-1.21.83c-.67.58-1.29,1.2-1.95,1.79-.49.44-1,.84-1.49,1.3-.72.71-1.41,1.45-2.08,2.22s-1.38,1.65-2,2.48c-.1.12-.14.29-.23.4s-.29.24-.4.39c-.53.74-1.09,1.47-1.58,2.24-.74,1.19-1.47,2.38-2.15,3.6a46.69,46.69,0,0,0-3.5,8.12,37.91,37.91,0,0,0-1.53,6.22c-.23,1.54-.5,3.08-.63,4.63s-.14,3-.15,4.56c0,.88.07,1.76.12,2.64,0,.65.09,1.29.15,1.94.08.95.15,1.89.27,2.84,0,.28.23.54.28.83a40.51,40.51,0,0,0,1.81,6.75,51.17,51.17,0,0,0,2,4.79c.89,1.81,1.89,3.56,2.92,5.3a37,37,0,0,0,4.39,5.88c1.39,1.54,2.88,3,4.42,4.42,1.21,1.11,2.53,2.1,3.84,3.09,1,.74,2,1.42,3.09,2.09.83.52,1.7,1,2.55,1.47a39,39,0,0,0,4.49,2.1c.94.37,1.91.68,2.86,1a35.28,35.28,0,0,0,6,1.64c1.57.3,3.16.53,4.75.72,1.24.15,2.48.23,3.73.27C226.88,172.64,228.37,172.61,229.48,172.61Z" transform="translate(-15.77 -10.49)"/>
    <path d="M191.25,92.85c.1,0,.24-.06.31-.14.68-.72,1.34-1.47,2-2.17.54-.54,1.12-1,1.7-1.54.87-.75,1.73-1.49,2.63-2.21.66-.53,1.36-1,2.06-1.5s1.59-1.08,2.41-1.57,1.64-.92,2.47-1.36,1.77-1,2.7-1.35c1.76-.7,3.52-1.42,5.34-2a64,64,0,0,1,6.23-1.47,40.85,40.85,0,0,1,4.55-.51c1.25-.1,2.52-.13,3.78-.15.82,0,1.64.07,2.47.1.63,0,1.26,0,1.88.1s1.36.17,2,.29q1.67.3,3.33.63a43,43,0,0,1,6.19,1.8c.79.3,1.57.64,2.35.94a2.12,2.12,0,0,0,.56,0l0,.15.33,0,.24,0c0,.36.35.38.57.48a42.65,42.65,0,0,1,5.77,3.28q2,1.34,3.83,2.79c.81.63,1.55,1.33,2.3,2s1.2,1.18,1.79,1.78a43.92,43.92,0,0,1,6,7.6c.73,1.15,1.42,2.33,2.05,3.53A45.56,45.56,0,0,1,273,112.76c.36,1.52.67,3.06.91,4.61a38,38,0,0,1,.36,3.85c.08,1.66.12,3.33.07,5-.05,1.45-.24,2.9-.4,4.34a43.52,43.52,0,0,1-1.56,7.23,41.38,41.38,0,0,1-2.59,6.66c-.95,1.88-2,3.71-3.15,5.49-.92,1.46-2,2.82-3,4.19-.62.79-1.37,1.48-2,2.25a23.12,23.12,0,0,1-2,2c-1,.94-2.05,1.78-3.09,2.65a39.72,39.72,0,0,1-5,3.51,47.08,47.08,0,0,1-14.69,5.78c-1.38.28-2.77.47-4.16.67a41.16,41.16,0,0,1-6.84.34c-1.27,0-2.54-.12-3.8-.28-1.67-.2-3.34-.43-5-.77a41.71,41.71,0,0,1-8.58-2.7c-1.15-.51-2.28-1-3.39-1.61a43.56,43.56,0,0,1-5.24-3.15,36.33,36.33,0,0,1-4.2-3.33c-1.26-1.19-2.54-2.37-3.71-3.66a46.65,46.65,0,0,1-3.45-4.22,57,57,0,0,1-3.21-5.07,41.86,41.86,0,0,1-2-4.28,45.76,45.76,0,0,1-2.54-8c-.2-.87-.36-1.76-.49-2.65-.18-1.21-.34-2.43-.44-3.65s-.16-2.47-.15-3.71c0-1.44.08-2.9.22-4.34.16-1.62.34-3.24.66-4.84.35-1.75.82-3.48,1.34-5.19.43-1.4,1-2.76,1.52-4.12.46-1.12,1-2.22,1.55-3.31a43.56,43.56,0,0,1,3.62-5.86c.19-.26.31-.56.49-.82s.25-.18.35-.3q.87-1.05,1.71-2.13A2.41,2.41,0,0,0,191.25,92.85Zm69.1,64a46.81,46.81,0,0,0,6.41-8.1c-.45-.43-1-.73-1.41-1.15a19.25,19.25,0,0,0-2.18-1.58l-7.52-5.27c-3.14-2.21-6.27-4.43-9.42-6.63-1.65-1.15-3.32-2.26-5-3.4-.83-.58-1.64-1.21-2.47-1.8a1.57,1.57,0,0,0-.63-.25,10.54,10.54,0,0,0-1.13-.08l-2.49-.15c-.42,0-.84-.1-1.26-.13-.57,0-1.14-.06-1.78-.09.06.26.09.47.15.66.74,2.12,1.48,4.23,2.24,6.34a1.82,1.82,0,0,0,.46.72c.69.62,1.41,1.21,2.12,1.79,1,.86,2.09,1.71,3.14,2.55l3.89,3.13,3.08,2.5,3.48,2.79c1.29,1.05,2.56,2.13,3.88,3.14,1.76,1.35,3.35,2.91,5.25,4.09A12.3,12.3,0,0,1,260.35,156.88ZM250.14,83.57c-.51.59-1,1.12-1.45,1.71q-3.47,4.81-6.89,9.65l-4.53,6.34L235,104.39c-1.19,1.67-2.36,3.34-3.55,5a2.13,2.13,0,0,0-.48,1.17c0,.27,0,.54,0,.81-.09,1.22-.19,2.44-.27,3.65q-.12,1.53-.21,3.06c0,.23,0,.46,0,.71l5.77-2.07a1.13,1.13,0,0,0,.42-.29c.59-.71,1.17-1.44,1.76-2.15,1-1.25,2.07-2.49,3.09-3.75,1.24-1.51,2.47-3,3.71-4.55l3.07-3.71,3-3.71c1-1.25,2.08-2.46,3.06-3.73a44.09,44.09,0,0,0,3.23-4.1,10.51,10.51,0,0,1,.88-1.14A45.51,45.51,0,0,0,250.14,83.57Zm-15.22,86.56c0-.6-.08-1.12-.1-1.65,0-.72,0-1.45-.09-2.17-.07-.91-.18-1.81-.27-2.72s-.14-1.76-.22-2.63-.19-1.89-.28-2.84c-.05-.58-.09-1.17-.15-1.75-.08-1-.18-1.91-.27-2.87-.06-.57-.1-1.14-.15-1.71-.09-1-.19-1.92-.28-2.87L233,147.2l-.27-2.87c-.06-.57-.1-1.14-.16-1.71-.08-.91-.18-1.82-.27-2.73,0-.62-.08-1.24-.15-1.86a2.41,2.41,0,0,0-.25-.88,5.88,5.88,0,0,0-.7-.88l-2.69-3.3-1.58-2-.08.06c-1.06,2.05-2.12,4.09-3.17,6.14a1,1,0,0,0-.08.58c.05.63.13,1.25.19,1.88s.1,1.12.16,1.68c.08.88.18,1.75.27,2.62,0,.55.1,1.1.16,1.65.08.84.18,1.67.26,2.51s.15,1.64.23,2.45.18,1.77.27,2.66l.15,1.64c.09.84.19,1.68.27,2.52s.14,1.63.22,2.45.19,1.79.28,2.69l.15,1.6.27,2.55c.07.61.12,1.21.2,1.82.05.32.17.63.22,1s0,.7.09,1c0,.1.15.25.23.25,1.08,0,2.15,0,3.22-.08.87-.05,1.75-.16,2.62-.27C233.65,170.33,234.28,170.22,234.92,170.13ZM190.54,94.66c-.79,1.08-1.6,2.11-2.33,3.19s-1.37,2.15-2,3.23c-.06.1-.07.34,0,.38.59.45,1.17.91,1.76,1.34,2.05,1.47,4.18,2.85,6.28,4.25l6,4,6.61,4.45,5.26,3.52a2.26,2.26,0,0,0,.82.44,17.93,17.93,0,0,0,1.8.09l5,.14h.8c-.09-.19-.17-.31-.22-.44-.68-1.6-1.34-3.21-2-4.81a2.64,2.64,0,0,0-.63-1c-.75-.61-1.58-1.11-2.37-1.66l-6.5-4.52c-1-.71-2.1-1.38-3.14-2.09-.85-.59-1.67-1.22-2.5-1.82-.54-.39-1.09-.77-1.64-1.15-1.54-1.07-3.06-2.16-4.62-3.2a55.62,55.62,0,0,0-4.66-3.12A16.22,16.22,0,0,1,190.54,94.66ZM224.93,117a.76.76,0,0,0,.1-.13c.93-2.15,1.87-4.3,2.79-6.45a1.09,1.09,0,0,0,.12-.58c-.17-1.09-.37-2.17-.57-3.26s-.43-2.45-.66-3.67-.45-2.5-.68-3.75-.46-2.49-.68-3.73l-.6-3.3-.66-3.75-.54-2.87c-.2-1.13-.36-2.26-.61-3.37a13.52,13.52,0,0,0-.65-2.92,5.2,5.2,0,0,1-.23-1.26c0-.18-.06-.26-.29-.23-.87.14-1.76.21-2.63.38-1.45.28-2.9.6-4.36.92a.25.25,0,0,0-.15.18,14,14,0,0,1,.23,2,17.64,17.64,0,0,0,.4,2.47c.28,1.56.57,3.11.84,4.67.34,2,.66,4,1,5.92.29,1.69.61,3.36.9,5.05q.51,3,1,5.92t1.07,6.08a1.7,1.7,0,0,0,.24.75c.41.51.88,1,1.33,1.46.65.71,1.31,1.42,2,2.12C224.05,116.09,224.49,116.54,224.93,117Zm48.85,4.31c-.1-1-.17-1.89-.3-2.79-.19-1.35-.42-2.7-.63-4,0-.2-.14-.28-.34-.25a6,6,0,0,1-2,.14.55.55,0,0,0-.18,0l-.83.12-2.43.33-2.32.31-2.37.3c-1,.13-1.91.28-2.87.4l-2.92.38-2.88.4-2.92.37c-1.14.15-2.27.33-3.4.48-1.32.18-2.64.33-4,.51-1.58.2-3.15.41-4.72.64a1.13,1.13,0,0,0-.57.21c-.8.64-1.57,1.3-2.36,2l-3,2.49a2.88,2.88,0,0,0,.29.16c1.86.83,3.74,1.63,5.58,2.51a2.94,2.94,0,0,0,1.77.17l2.84-.41,2.25-.31,2.81-.4,2.26-.29,2.35-.34,2.74-.38,2.84-.4,2.26-.31,2.81-.4,2.35-.34,2.78-.37c.76-.11,1.52-.21,2.28-.33.51-.09,1-.22,1.51-.32S273.35,121.39,273.78,121.32Zm-92.73,12.26h.19l1.57-.14c.18,0,.37.07.54.05.74-.07,1.46-.17,2.19-.26l2.1-.23c.72-.08,1.43-.18,2.15-.27l2.06-.23,2.78-.33,2.06-.23c.7-.09,1.41-.19,2.12-.27s1.39-.14,2.09-.23l2.19-.26,2.12-.26,2.13-.24c.6-.06,1.2-.1,1.8-.17.84-.1,1.67-.2,2.5-.34a2.54,2.54,0,0,0,1.33-.34c1.74-1.39,3.49-2.75,5.24-4.13l.86-.7-.18-.09c-2.36-1-4.72-2-7.09-2.94a1.28,1.28,0,0,0-.58-.08l-2.49.39-2.9.46-2.94.45-3.38.54-3,.43-4.24.7c-1.13.18-2.28.33-3.42.51s-2.28.35-3.41.56a26.55,26.55,0,0,0-3.85.69,8.78,8.78,0,0,1-1.44.26A40.82,40.82,0,0,0,181.05,133.58Zm18.2,28.14c.22-.26.41-.51.63-.74s.52-.45.74-.7c.76-.9,1.49-1.81,2.24-2.72,1-1.16,1.95-2.32,2.91-3.49,1.2-1.44,2.38-2.89,3.57-4.32s2.42-2.9,3.63-4.36c1.09-1.31,2.16-2.63,3.25-3.94,1.4-1.69,2.81-3.38,4.2-5.07a.85.85,0,0,0,.15-.42c.09-.64.15-1.28.23-1.91.13-1,.28-2,.41-3,0-.26,0-.53.07-.82l-.16,0-6.8,2.11a1.11,1.11,0,0,0-.46.31c-.37.41-.72.86-1.09,1.28-1.06,1.24-2.14,2.47-3.2,3.71-1.21,1.41-2.4,2.83-3.61,4.24-1.06,1.24-2.14,2.47-3.2,3.71-1.21,1.41-2.43,2.81-3.61,4.24-1.5,1.81-3.17,3.46-4.5,5.41-.35.51-.81,1-1.21,1.45A40.87,40.87,0,0,0,199.25,161.72Zm33.46-83.91a49.15,49.15,0,0,0-10.15-.16c1.71,10.61,3.8,21.12,5.67,31.68a1.54,1.54,0,0,0,.23-.38l2.28-5.22a5.7,5.7,0,0,0,.44-1.14,16.47,16.47,0,0,0,.16-1.86c.1-1.39.19-2.79.28-4.18.08-1.08.15-2.16.22-3.24.09-1.42.19-2.84.28-4.26.08-1.27.14-2.55.22-3.83,0-.41,0-.82.08-1.23.09-1.28.19-2.56.26-3.84,0-.47,0-1,0-1.44C232.64,78.42,232.68,78.13,232.71,77.81Zm-6.36,93c0-.95-.06-1.84-.11-2.74s-.14-1.61-.22-2.41-.19-1.75-.27-2.63-.15-1.58-.23-2.38l-.27-2.58c-.06-.57-.1-1.15-.16-1.72-.08-.85-.18-1.7-.26-2.55-.06-.57-.1-1.14-.15-1.71-.09-.88-.19-1.75-.28-2.62l-.15-1.64c-.09-.83-.19-1.66-.27-2.48s-.14-1.66-.23-2.49c-.11-1.13-.22-2.26-.34-3.39,0-.46-.11-.91-.17-1.45l-.27.47L220.15,144a3,3,0,0,0-.35.78c-.15.84-.26,1.69-.36,2.53-.16,1.2-.29,2.39-.44,3.59-.18,1.36-.38,2.73-.56,4.1-.15,1.19-.28,2.39-.43,3.58-.2,1.55-.43,3.1-.63,4.65-.18,1.38-.34,2.76-.5,4.15,0,.22,0,.45,0,.68-.05.55-.12,1.11-.18,1.67A46.17,46.17,0,0,0,226.35,170.78ZM220.44,137l-.08,0a2.85,2.85,0,0,0-.23.26l-1.8,2.16c-1,1.16-1.9,2.33-2.86,3.48l-3.3,3.94-3,3.61-2.55,3.06-2.6,3.15c-.75.91-1.51,1.82-2.25,2.74-.48.6-.92,1.22-1.39,1.83-.22.29-.45.56-.7.88a46,46,0,0,0,8,4.6c.41-.63.82-1.22,1.18-1.85s.51-1.06.77-1.59c.11-.23.19-.48.32-.71s.37-.49.51-.76l4-7.66c1.31-2.54,2.59-5.11,3.95-7.62a9.41,9.41,0,0,0,1.27-4.13c0-.77.18-1.53.28-2.29Zm-.73-25.61.08,0c-.12-.65-.23-1.3-.35-2-.2-1.17-.41-2.34-.61-3.51-.25-1.4-.49-2.8-.73-4.2s-.48-2.85-.73-4.28-.51-2.82-.76-4.23c-.2-1.17-.39-2.35-.59-3.52-.25-1.43-.51-2.87-.76-4.3s-.44-2.58-.68-3.86c-.08-.44-.25-.87-.35-1.31s-.11-.64-.17-1a46.58,46.58,0,0,0-8.73,3.47,18.19,18.19,0,0,1,.83,2.34,4.79,4.79,0,0,0,.49,1.23L212.47,100c.75,1.79,1.49,3.57,2.25,5.35a5.92,5.92,0,0,0,.7,1.4c.68.83,1.45,1.58,2.18,2.36Zm52.92,2.28a1.14,1.14,0,0,0,0-.19c-.51-1.69-1-3.4-1.53-5.08-.32-1-.76-2-1.16-3,0-.09-.21-.22-.28-.2-.63.15-1.26.32-1.87.53-1,.33-2,.69-3,1l-9.52,3.42-11.41,4.07a2.71,2.71,0,0,0-.77.41c-1,.85-2.08,1.72-3.12,2.58l-1.1.91,0,.08C250.17,116.71,261.43,115.4,272.63,113.69Zm1.14,8.18c-11.29,1.4-22.47,3.12-33.69,4.64a1.29,1.29,0,0,0,.37.22l3.51,1.58a6.4,6.4,0,0,0,1.39.58,18.38,18.38,0,0,0,2.11.16l2.28.16,3.55.26,2.36.16,3.48.27,2.36.15,3.69.28,2.25.15c1.17.09,2.34.2,3.51.26.62,0,1.25,0,1.87,0s.55,0,.61-.51c.13-1.07.28-2.14.34-3.22.07-1.42.06-2.85.08-4.28C273.84,122.5,273.8,122.24,273.77,121.87Zm-29.19,45.49c-.19-.76-.33-1.53-.58-2.26-1.08-3.12-2.2-6.22-3.29-9.34-1.52-4.35-3-8.7-4.56-13a2.75,2.75,0,0,0-.44-.83c-.74-.95-1.51-1.89-2.27-2.83-.32-.39-.65-.78-1-1.21.09,1,.17,2,.26,3l.15,1.72c.09.92.19,1.84.27,2.76.06.61.1,1.21.16,1.82.08.93.18,1.87.27,2.8l.15,1.79.27,2.83c.06.58.1,1.17.16,1.75.08.89.18,1.77.27,2.66s.14,1.77.22,2.66c.11,1.26.2,2.52.35,3.78a20.8,20.8,0,0,0,.44,3.33,7.36,7.36,0,0,1,.14,1.24C236.55,170,243.23,168.11,244.58,167.36ZM259,89.86c-7.46,8.81-14.53,17.7-21.78,26.47a.26.26,0,0,0,.18,0c1.28-.46,2.56-.93,3.85-1.36a8.44,8.44,0,0,0,3.2-1.72c1.13-1,2.35-2,3.54-3l3.91-3.22,3.6-3,3-2.51,3.2-2.66c.5-.43,1-.84,1.51-1.27s.75-.75,1.15-1.09c.19-.17.19-.26,0-.45-1.12-1.32-2.21-2.65-3.34-3.95C260.42,91.36,259.72,90.65,259,89.86Zm-68.06,4.29c.67.58,1.23,1.16,1.87,1.62,1.65,1.19,3.33,2.32,5,3.47q3.57,2.46,7.13,4.93c1.5,1,3,2.09,4.47,3.13l6.57,4.57,1.54,1.07a.49.49,0,0,0,0-.16q-1-2.49-2.11-5a3.83,3.83,0,0,0-.55-1.15c-1.38-1.53-2.81-3-4.22-4.52-.33-.35-.68-.68-1-1-1.12-1.23-2.24-2.47-3.37-3.7-.73-.8-1.48-1.58-2.22-2.37-1.45-1.56-2.88-3.14-4.34-4.69-.51-.54-1.09-1-1.62-1.56-.2-.2-.37-.44-.58-.63a.36.36,0,0,0-.33,0,26.54,26.54,0,0,0-2,1.77C193.68,91.29,192.31,92.74,190.93,94.15Zm48.36,34.63v.07c.74.53,1.47,1.07,2.22,1.59l5.11,3.58,11,7.71c1.62,1.14,3.22,2.3,4.85,3.42a43.64,43.64,0,0,0,4.05,2.68,6.45,6.45,0,0,1,.63.43c.43-.75.88-1.47,1.24-2.22.79-1.65,1.54-3.31,2.3-5a.37.37,0,0,0-.06-.33c-.59-.34-1.19-.68-1.81-1-1.16-.54-2.35-1.05-3.52-1.57l-8.63-3.88c-3.23-1.44-6.46-2.9-9.69-4.32a5.39,5.39,0,0,0-2.64-.85,5.92,5.92,0,0,1-.84-.05Zm-5,7.63c.53,1.54,1,3,1.52,4.41a4.8,4.8,0,0,0,.53,1.32c.89,1.18,1.85,2.31,2.78,3.45l3.26,4c1,1.19,1.92,2.39,2.89,3.58l2.69,3.3c1,1.2,1.93,2.39,2.91,3.57.44.53.93,1,1.39,1.54s.64.78,1,1.16a39.15,39.15,0,0,0,6.7-5.49C251.52,150.19,242.86,143.43,234.3,136.41Zm-3.19-27.24.1,0a.45.45,0,0,1,.06-.12c.8-1.14,1.61-2.27,2.43-3.4.53-.73,1.1-1.43,1.62-2.17s1-1.47,1.48-2.19,1.22-1.71,1.84-2.57c1.7-2.38,3.43-4.73,5.1-7.14s3.45-4.56,4.89-7c.27-.46.62-.88,1-1.34a45.25,45.25,0,0,0-7.88-3.44c-.36.66-.73,1.27-1,1.92-1.51,3.42-3,6.84-4.5,10.27s-2.87,6.58-4.29,9.88a5,5,0,0,0-.4,1.33c-.1.9-.11,1.81-.17,2.71,0,.48-.09,1-.13,1.44S231.14,108.57,231.11,109.17Zm-45.35-7.28a2.56,2.56,0,0,0-.16.25c-.54,1.11-1.13,2.21-1.62,3.34s-.94,2.41-1.39,3.62a.35.35,0,0,0,.08.3c.66.34,1.32.7,2,1,3.43,1.44,6.87,2.85,10.31,4.28s6.59,2.74,9.9,4.09a4.53,4.53,0,0,0,1.82.54c1.08,0,2.15.08,3.22.11.7,0,1.4,0,2.16,0l-.31-.23-11.23-7.52c-2.91-2-5.79-3.93-8.72-5.85a43.67,43.67,0,0,0-4.57-2.92A12.71,12.71,0,0,1,185.76,101.89Zm27.61,30.78-5.76,1.76a.55.55,0,0,0-.21.12l-2.91,2.31-2.56,2-4.07,3.2c-1.68,1.32-3.39,2.62-5.06,4a40.54,40.54,0,0,0-4.12,3.39,7.61,7.61,0,0,1-.74.58,45.29,45.29,0,0,0,5.09,6.32C200,148.55,206.59,140.53,213.37,132.67Zm-30,8.68c.71-.15,1.39-.26,2-.45,1.46-.42,2.92-.89,4.37-1.34l17.31-5.33a1.68,1.68,0,0,0,.46-.24l3.16-2.47c.42-.33.83-.67,1.32-1.07l-1.73.22-2.93.33-3.28.38-2,.23-2.79.33-2.06.24-2.76.33-2.06.23-2.75.34-2.1.23-2.79.33c-.53.07-1.07.13-1.6.22-.35,0-.69.14-1,.21s-.65.1-1,.15A45,45,0,0,0,183.4,141.35Zm27.48-19.71a1,1,0,0,0-.22-.13l-4.24-1.76a1.59,1.59,0,0,0-.46-.13l-3.75-.14-5.37-.14c-1.42,0-2.83-.06-4.25-.08h-.87c-.9,0-1.8-.1-2.71-.13-1.7-.06-3.41-.12-5.12-.14-1.14,0-2.28,0-3.42.06a1.18,1.18,0,0,0-.21.07l-.2,7.23C190.4,124.93,200.57,123.17,210.88,121.64Zm62.39,9.8c-.66-.12-1.29-.25-1.92-.34s-1.15-.1-1.72-.15l-2-.14-4-.28-2.87-.21-4-.29-3.9-.28-3.52-.22-1.29-.12c-.55,0-1.11-.06-1.66-.09.83.44,1.66.82,2.5,1.19,2.16,1,4.32,2,6.48,2.91l7.07,3.15c1.26.57,2.5,1.17,3.76,1.72s2.64,1.06,3.95,1.6l.79.35A46.76,46.76,0,0,0,273.27,131.44Zm-3.74-26.82a46.75,46.75,0,0,0-4.61-7.85c-2.31,1.88-4.61,3.74-6.89,5.63s-4.58,3.8-6.87,5.7-4.56,3.77-6.87,5.68c.08,0,.09,0,.1,0l9.77-3.51c2.66-1,5.32-1.89,8-2.85,1-.34,1.91-.72,2.87-1.07.46-.16.94-.28,1.39-.46C267.43,105.5,268.46,105.07,269.53,104.62ZM236.81,143.2l-.12.06c.14.41.29.83.44,1.24q3,8.46,5.94,16.93a37.27,37.27,0,0,0,1.71,4.51,9.05,9.05,0,0,1,.4,1.14,36.52,36.52,0,0,0,7.57-4.06C247.59,156.29,242.09,149.84,236.81,143.2ZM205,119.29l0-.11-.24-.13-1.67-.7-7.24-3c-2.29-1-4.57-1.92-6.87-2.84a44.5,44.5,0,0,0-5.1-2,11.94,11.94,0,0,1-1.58-.65,46.44,46.44,0,0,0-1.87,8.55l.71.06,2.37.16c1.07,0,2.14.12,3.2.14s1.83,0,2.74,0c.65,0,1.29.1,1.93.12.94,0,1.89.06,2.83.08l5.87.14,3.92.08C204.33,119.22,204.65,119.26,205,119.29Zm-7.18-31.72c.41.54.8,1.08,1.21,1.6.28.34.59.64.89,1l2.7,2.92,4,4.27c1.09,1.17,2.18,2.32,3.27,3.48.73.78,1.44,1.57,2.17,2.36s1.28,1.4,1.93,2.09c.15.17.31.32.47.48l.08-.07c-.05-.12-.09-.25-.14-.38-.51-1.2-1-2.4-1.51-3.61-.78-1.82-1.55-3.65-2.32-5.47l-2.07-4.9c-.68-1.61-1.35-3.22-2.05-4.83-.32-.73-.7-1.43-1-2.15-.2-.44-.37-.89-.56-1.35A45.19,45.19,0,0,0,197.79,87.57Zm-10.22,61.88a73.27,73.27,0,0,0,6.39-4.78c2.11-1.62,4.2-3.25,6.29-4.89l6.18-4.85-.06-.08a1.79,1.79,0,0,0-.23,0l-3.42,1.07-2.34.71c-4,1.22-8,2.43-11.92,3.69a19.87,19.87,0,0,0-3.41,1.16,8.76,8.76,0,0,1-1.42.47A45.89,45.89,0,0,0,187.57,149.45Zm31.69-3.71a2.68,2.68,0,0,0-.18.28l-2.32,4.44q-3.31,6.39-6.61,12.8c-.41.8-.75,1.64-1.14,2.46-.2.42-.43.83-.65,1.24a45.2,45.2,0,0,0,7.76,2.58C217.4,161.64,218.22,153.68,219.26,145.74Zm12.34-44.25.08,0c.08-.15.16-.3.23-.46l2.22-5.14c1.42-3.25,2.86-6.49,4.25-9.76a46.82,46.82,0,0,0,2.2-5.34,10.59,10.59,0,0,1,.49-1.16,38.49,38.49,0,0,0-7.71-1.74c-.11.61-.26,1.21-.32,1.83-.12,1.38-.2,2.76-.29,4.15s-.19,2.86-.28,4.29l-.36,5.35c-.08,1.28-.14,2.56-.22,3.84,0,.41-.06.82-.09,1.23Zm-5.55,17.41a5,5,0,1,0,5,5.06A5,5,0,0,0,226.05,118.9Zm5,9.32c-.34,0-.64-.08-1-.09a.81.81,0,0,0-.37.14q-.91.53-1.83,1.08a1,1,0,0,0-.32.29,6.71,6.71,0,0,0-.35.65l4.47,3.61c-.1-1-.19-2-.29-2.89A12.33,12.33,0,0,0,231.05,128.22Zm-8.21,5.83a1.67,1.67,0,0,0-.17.15c-.51.62-1,1.23-1.52,1.86a1.42,1.42,0,0,0-.3.6c-.1.56-.15,1.12-.22,1.67-.23,1.7-.45,3.4-.68,5.1a.56.56,0,0,0,.19-.22l2.82-5.46a1.12,1.12,0,0,0,.17-.76c0-.29,0-.58-.08-.88C223,135.44,222.91,134.77,222.84,134.05Zm6.76-15-1-5.59-3,4.2.22.29a1.41,1.41,0,0,0,.95.57,8.67,8.67,0,0,1,1.79.57A.9.9,0,0,0,229.6,119Zm-14.11,2.22,4.23,2.83c.1.07.29.13.35.09a1,1,0,0,0,.35-.46c.18-.64.25-1.31.47-1.92a1.21,1.21,0,0,0,0-1,.43.43,0,0,0-.56-.3l-3.53.56Zm4.6,4.2-3.53,4.11.7-.09c1.12-.12,2.24-.23,3.35-.37.82-.11.83-.13.94-.85a1.24,1.24,0,0,0-.22-1.16,2.74,2.74,0,0,1-.51-1A.83.83,0,0,0,220.09,125.46Zm11-21.44-.09,0c-.05.11-.11.22-.16.34-.75,1.73-1.51,3.47-2.27,5.2a1.48,1.48,0,0,0-.15,1c.15.64.25,1.29.38,2l.21-.28c.5-.69,1-1.38,1.49-2.09a1.26,1.26,0,0,0,.2-.57c.07-.81.11-1.62.17-2.43C230.94,106.11,231,105.06,231.09,104ZM220.36,114.9c-.13-.78-.23-1.49-.37-2.2a1.54,1.54,0,0,0-.36-.89c-.75-.77-1.47-1.59-2.2-2.38-.52-.55-1-1.09-1.55-1.64a.31.31,0,0,0,0,.25q1.06,2.55,2.15,5.1a.69.69,0,0,0,.2.28Zm-11.88,18.84,0,.06,5-1.53a1.52,1.52,0,0,0,.59-.39c.37-.38.7-.79,1-1.19.17-.2.33-.41.52-.65-.7.08-1.34.13-2,.21a2.11,2.11,0,0,0-1.39.49,6.4,6.4,0,0,1-.85.69Zm26.73-15c.79-.09,1.52-.16,2.24-.28a1.83,1.83,0,0,0,1-.32c.87-.77,1.79-1.49,2.69-2.23.34-.28.68-.57,1.06-.91a.64.64,0,0,0-.22,0l-4.27,1.54a3,3,0,0,0-1,.42A22.14,22.14,0,0,0,235.21,118.76Zm-9.09,11.33-.09,0c-.81,1-1.62,1.93-2.41,2.91-.21.27-.52.5-.44.94s.1.89.15,1.33.11.88.17,1.4c1-2,2-3.91,3-5.84a.37.37,0,0,0,0-.31A4,4,0,0,0,226.12,130.09Zm5.37-2.74,4.19-.59-3.78-2.66c-.48.17-.3.59-.4.9A4.79,4.79,0,0,0,231.49,127.35Zm5.25-.37v.09l1.56,1.07a1.28,1.28,0,0,0,.52.26c.74.08,1.48.1,2.22.16.45,0,.89.09,1.33.13l1.59.08a.6.6,0,0,0-.25-.21l-3.66-1.63a2,2,0,0,0-1.34-.24C238.06,126.83,237.4,126.89,236.74,127Zm-15.17-7.3a1.57,1.57,0,0,0,1.34-.31,2.5,2.5,0,0,1,.92-.5.83.83,0,0,0,.57-.73l-3.53-2.45Zm9.08-9-.08,0c-.5.7-1,1.4-1.49,2.11a.92.92,0,0,0-.13.58c.21,1.28.45,2.55.68,3.82.11.58.22,1.16.32,1.74h.15Zm-23.27,9v.08l.08.05,4,1.64a1.13,1.13,0,0,0,.52,0c.41,0,.83-.12,1.24-.19l1.33-.23-1.69-1.12a.47.47,0,0,0-.26-.08Zm4.9,2.1a.91.91,0,0,0,.17.12l6.66,2.76c.22.09.39.1.53-.12,0,0,0-.06,0-.07l-4.56-3a.27.27,0,0,0-.18-.07Zm19.62,1V123c.23,0,.51.13.68,0a4.24,4.24,0,0,0,.83-.65l3.2-2.64,1-.86a2.69,2.69,0,0,0-.29,0c-.58.07-1.15.17-1.73.22a1.38,1.38,0,0,0-1.2.71,4.52,4.52,0,0,1-.4.49Zm.25,11.93c.07.82.12,1.55.2,2.28a1,1,0,0,0,.24.47c.68.85,1.37,1.7,2.06,2.54.26.33.53.65.8,1a3.64,3.64,0,0,0-.24-.89c-.38-1.09-.77-2.17-1.16-3.25a2.71,2.71,0,0,0-.46-1A13,13,0,0,0,232.15,134.74Zm-.65-12,2.85-3.47-3.88.52a1.33,1.33,0,0,0,.24,1.31A15.68,15.68,0,0,1,231.5,122.72Zm-11.78,2.6c-.23-.25-.39-.08-.55.05l-4.43,3.47c-.42.32-.83.66-1.25,1l0,.08c.59-.07,1.19-.16,1.79-.21a1.28,1.28,0,0,0,1-.42C217.45,128,218.58,126.65,219.72,125.32Zm1.63,4.08a2.94,2.94,0,0,0-.42,0l-4.53.56c-.08,0-.2,0-.25.08-.51.59-1,1.2-1.58,1.86a1.85,1.85,0,0,0,.31-.07L221,130C221.35,129.87,221.39,129.69,221.35,129.4Zm-1-16.81c.14.84.27,1.57.39,2.31a.69.69,0,0,0,.36.51l1.3.9,2.16,1.5c.25-.43.25-.43-.06-.76l-1.24-1.35ZM223.1,133l.09,0,2.71-3.27-1.73-.37a.5.5,0,0,0-.21,0l-.93.29a.26.26,0,0,0-.21.33C222.93,131,223,132,223.1,133Zm-.67-3.09c-.71.15-.73.15-.81.75-.19,1.36-.38,2.73-.56,4.1,0,.27-.05.55-.08.91L222.4,134a1,1,0,0,0,.37-.93c-.08-.4-.1-.81-.14-1.22C222.56,131.19,222.49,130.55,222.43,129.91Zm9.76-6.06,3.89,2.75a.36.36,0,0,0,.22.07l2.38-.33a1.52,1.52,0,0,0-.26-.13c-1.88-.85-3.77-1.69-5.65-2.55A.43.43,0,0,0,232.19,123.85Zm-.33,12.74h.07c-.06-.69-.1-1.38-.17-2.06a.42.42,0,0,0-.18-.24l-3.6-2.93-.69-.55-.07.07ZM228.1,110.8c-1,2.16-2,4.32-2.84,6.54.1,0,.15,0,.18-.08l3-4.15c0-.06.11-.15.1-.22C228.37,112.19,228.24,111.5,228.1,110.8ZM218.48,114l0,.06c.75,1.79,1.5,3.59,2.27,5.39,0,.12.26.17.39.26l.09-.1c-.23-1.37-.46-2.74-.7-4.1a.29.29,0,0,0-.14-.2Zm19.35,14.24c-.53-.37-1.05-.75-1.58-1.11a.59.59,0,0,0-.35-.06l-2.78.38-1.64.24v.14C233.58,128.06,235.7,128.16,237.83,128.27Zm-17.34-8.16V120l-7-.19a16.93,16.93,0,0,0,1.45,1,.47.47,0,0,0,.29,0Zm9.91-.8,0,.09.72-.08,2.43-.33c.37,0,.85,0,1.09-.2a12.06,12.06,0,0,0,1.28-1.53l-.1,0-5.24,1.88C230.54,119.14,230.47,119.24,230.4,119.31Zm3.08,16,0,0-1.7-4.86a2.91,2.91,0,0,0,0,.78c.08.89.14,1.77.23,2.66a.88.88,0,0,0,.27.5C232.69,134.72,233.09,135,233.48,135.34Zm-11.21-6.45c0-.65,0-.67-.32-.9l-.1.92Zm-.49.79c.58-.14.58-.14.51-.43l-.51.11Zm5.17.37.22-.48-.67.12Zm5.17-6.64-.49-.23-.09.06.25.38Z" transform="translate(-15.77 -10.49)"/>
    <path d="M228.86,123.91A2.87,2.87,0,1,1,226,121,2.88,2.88,0,0,1,228.86,123.91ZM226,121.45a2.46,2.46,0,1,0,2.43,2.47A2.46,2.46,0,0,0,226,121.45Z" transform="translate(-15.77 -10.49)"/>
  </g>
  <g id="backcrank">
    <path d="M124.7,113.22c.23.53.41,1,.65,1.48q2.1,3.92,4.22,7.83l4.48,8.29c.06.11.12.22.16.31l-2.65,1.74c-.33.21-.64.45-.95.67s-.4.21-.58-.13l-5.49-10.15c-.86-1.57-1.73-3.14-2.62-4.69-.62-1.07-1.25-2.13-1.94-3.16a8.54,8.54,0,0,0-1.18-1.23.52.52,0,0,0-.33-.07l-5.13.76a.76.76,0,0,1-1-.69c-.16-1-.32-2.09-.46-3.14a.74.74,0,0,1,.7-.89c1.83-.27,3.66-.53,5.49-.82a1,1,0,0,0,.53-.26,3.29,3.29,0,0,1,3.94-.51.59.59,0,0,0,.37.07l5.53-.81a.74.74,0,0,1,.95.66c.17,1.06.32,2.12.47,3.18a.74.74,0,0,1-.71.88l-4.09.6Z" transform="translate(-15.77 -10.49)"/>
    <path class="cls-1" d="M133.75,130.86a2.15,2.15,0,0,1,.14.27l-3.51,2.36-7.72-14.29c-.55-1-1.09-2-1.71-3-.41-.63-1-1.17-1.43-1.78a15.14,15.14,0,0,1-1.29-1.8,2.66,2.66,0,0,1,.43-3,2.89,2.89,0,0,1,3.46-.85,3.22,3.22,0,0,1,1.66,2.12c.21.7.34,1.42.56,2.12a10.23,10.23,0,0,0,.72,1.86Q129.38,122.87,133.75,130.86Z" transform="translate(-15.77 -10.49)"/>
    <path class="cls-1" d="M129.61,111.61c.06.45-.05.6-.5.67l-4.15.62c-.21,0-.28-.05-.32-.23-.13-.53-.26-1.06-.41-1.58a4.58,4.58,0,0,0-1.21-2.2l1.84-.28,3.4-.5c.71-.11.84,0,.94.68C129.35,109.72,129.48,110.67,129.61,111.61Z" transform="translate(-15.77 -10.49)"/>
    <path class="cls-1" d="M117.92,109.63h.21a3.38,3.38,0,0,0,.42,4.2l-1.59.25-3.47.51c-.66.09-.79,0-.89-.66-.15-1-.29-1.9-.41-2.85-.06-.45,0-.6.5-.67C114.43,110.14,116.18,109.89,117.92,109.63Z" transform="translate(-15.77 -10.49)"/>
    <g>
      <path d="M121.39,110.19a1.32,1.32,0,0,1,.68,1.38,1.28,1.28,0,0,1-.88,1.11,1.24,1.24,0,0,1-1.36-.25,2.45,2.45,0,0,1-.24-.38h0l.31.27a1.19,1.19,0,0,0,1.66-.2,1.14,1.14,0,0,0-.12-1.58,1.16,1.16,0,0,0-1.61,0,1.31,1.31,0,0,0-.25,1.48,1.23,1.23,0,0,1,.07-1.6A1.37,1.37,0,0,1,121.39,110.19Z" transform="translate(-15.77 -10.49)"/>
      <path class="cls-2" d="M121.46,110.55a1.14,1.14,0,0,1,.12,1.58,1.19,1.19,0,0,1-1.66.2l-.31-.27h0a1.31,1.31,0,0,1,.25-1.48A1.16,1.16,0,0,1,121.46,110.55Z" transform="translate(-15.77 -10.49)"/>
    </g>
  </g>
  <g id="backwheel">
    <path d="M67.15,176.29c-.52,0-1.05,0-1.57,0-1.3-.08-2.6-.14-3.89-.28-1.45-.16-2.9-.35-4.34-.62s-2.9-.64-4.33-1a42,42,0,0,1-5.9-2.06c-1.63-.72-3.23-1.52-4.8-2.36-1.24-.66-2.45-1.39-3.61-2.16a41,41,0,0,1-3.38-2.45c-1.29-1-2.52-2.15-3.75-3.27-.82-.75-1.62-1.53-2.37-2.36a53.45,53.45,0,0,1-4.83-6.18A46.48,46.48,0,0,1,20.69,147c-.8-1.79-1.53-3.61-2.17-5.46-.5-1.41-.82-2.88-1.2-4.32-.25-.94-.49-1.89-.68-2.84-.12-.59-.15-1.21-.21-1.81-.12-1-.23-2.05-.34-3.07,0-.42-.07-.84-.07-1.26,0-1.59,0-3.18,0-4.76,0-1.21.2-2.42.33-3.63A47.07,47.07,0,0,1,18.88,109,49.22,49.22,0,0,1,24.57,97.8,46.76,46.76,0,0,1,28.28,93l1.93-2.13a33.18,33.18,0,0,1,3.65-3.36c1.3-1.07,2.62-2.13,4-3.09a48.53,48.53,0,0,1,5.93-3.53,55.27,55.27,0,0,1,6-2.59,48.51,48.51,0,0,1,7.4-2c1.24-.24,2.49-.41,3.74-.57q1.57-.18,3.15-.27c1.17-.07,2.35-.13,3.52-.13s2.17,0,3.25.14,2.31.24,3.47.39,2.27.32,3.4.53c.87.17,1.73.41,2.58.66,1.48.44,3,.87,4.41,1.4s2.78,1.12,4.15,1.72c.83.36,1.64.76,2.43,1.18a42.62,42.62,0,0,1,4.88,3c1.17.85,2.35,1.69,3.5,2.57a23.36,23.36,0,0,1,1.76,1.54c.94.87,1.9,1.72,2.78,2.65,1.07,1.15,2.1,2.35,3.09,3.57.87,1.06,1.7,2.15,2.46,3.29s1.48,2.37,2.18,3.59c.54,1,1.06,1.93,1.54,2.92a47,47,0,0,1,2.4,6c.41,1.31.78,2.64,1.09,4s.52,2.51.72,3.77.3,2.39.41,3.58c.08.81.11,1.63.14,2.45s.08,1.47.07,2.21c0,1.06,0,2.12-.15,3.16-.18,1.69-.42,3.37-.67,5a34.15,34.15,0,0,1-1.42,5.89c-.61,1.78-1.24,3.55-2,5.28a41.44,41.44,0,0,1-2.08,4.23c-.89,1.56-1.86,3.1-2.88,4.58a40.46,40.46,0,0,1-2.85,3.67c-1.24,1.42-2.52,2.81-3.89,4.1s-2.72,2.33-4.12,3.45a42.11,42.11,0,0,1-5.86,3.87,50.53,50.53,0,0,1-7.85,3.59,43.54,43.54,0,0,1-7.11,2c-1.21.22-2.42.43-3.64.61-.92.13-1.84.21-2.76.27-1.31.09-2.63.14-3.94.2Zm2.45-3.55c1.16-.12,2-.17,2.74-.27,1.56-.22,3.13-.4,4.66-.71a44.79,44.79,0,0,0,10.75-3.62c1.46-.71,2.87-1.5,4.28-2.3a41.12,41.12,0,0,0,5.64-4c.83-.68,1.64-1.4,2.41-2.15,1-1,2-2,2.93-3,.71-.77,1.31-1.63,2-2.42a22.83,22.83,0,0,0,1.79-2.47c.88-1.31,1.69-2.68,2.45-4.07a43.73,43.73,0,0,0,3.72-9.14,44.28,44.28,0,0,0,1.46-7.28c.16-1.33.24-2.67.28-4a38.81,38.81,0,0,0-.34-7.23c-.22-1.42-.41-2.85-.71-4.26a44,44,0,0,0-2.73-8.44c-.37-.85-.73-1.69-1.14-2.51a10.38,10.38,0,0,1-.89-1.76.82.82,0,0,0-.11-.17c-.48-.73-1-1.46-1.45-2.18-.8-1.17-1.54-2.38-2.42-3.48-1.07-1.34-2.21-2.62-3.4-3.84S99,90.91,97.6,89.74a43.34,43.34,0,0,0-5.95-4.19,47.79,47.79,0,0,0-6.54-3.22c-.21-.09-.44-.12-.65-.21s-.44-.22-.68-.3c-1-.36-2.08-.76-3.15-1q-2.44-.65-4.94-1.13c-1.13-.23-2.3-.36-3.45-.48s-2.52-.25-3.78-.27a41.75,41.75,0,0,0-6.42.26c-1.21.15-2.44.25-3.63.51q-2.77.6-5.49,1.37a42.23,42.23,0,0,0-7.27,2.9c-.84.42-1.67.87-2.48,1.35s-1.87,1.17-2.79,1.77c-.58.38-1.14.8-1.69,1.21-.27.2-.51.46-.78.66s-.81.5-1.16.81c-.65.55-1.26,1.16-1.89,1.73-.48.43-1,.81-1.45,1.26-.69.69-1.36,1.4-2,2.14s-1.33,1.6-2,2.4c-.09.12-.13.28-.22.4s-.28.23-.38.37c-.52.72-1.06,1.42-1.53,2.17-.72,1.14-1.43,2.3-2.08,3.48a44.81,44.81,0,0,0-3.39,7.86,36.74,36.74,0,0,0-1.48,6c-.22,1.49-.48,3-.61,4.48s-.13,2.94-.15,4.41c0,.85.07,1.71.12,2.56,0,.63.09,1.25.15,1.87.08.92.15,1.84.25,2.75,0,.27.23.53.28.8A39,39,0,0,0,22.12,141a48,48,0,0,0,1.9,4.64c.86,1.75,1.83,3.44,2.82,5.12a35.71,35.71,0,0,0,4.25,5.69c1.35,1.5,2.79,2.92,4.27,4.28a46.34,46.34,0,0,0,3.72,3c1,.72,2,1.38,3,2,.81.51,1.65,1,2.48,1.42a34.28,34.28,0,0,0,4.34,2c.91.37,1.85.66,2.76,1a34.24,34.24,0,0,0,5.79,1.59c1.52.29,3.06.51,4.6.7,1.2.14,2.4.22,3.61.26C67.08,172.77,68.52,172.74,69.6,172.74Z" transform="translate(-15.77 -10.49)"/>
    <path d="M32.6,95.55a.91.91,0,0,0,.3-.13c.66-.7,1.3-1.42,2-2.11.52-.52,1.08-1,1.64-1.48.84-.73,1.68-1.45,2.54-2.14.65-.51,1.32-1,2-1.46s1.54-1,2.33-1.52,1.59-.88,2.39-1.31a28.82,28.82,0,0,1,2.61-1.3c1.71-.69,3.41-1.38,5.17-1.9,2-.58,4-1,6-1.42A40.09,40.09,0,0,1,64,80.29c1.22-.1,2.44-.13,3.66-.14.8,0,1.59.06,2.39.1.61,0,1.22,0,1.83.09s1.3.17,1.95.28c1.08.19,2.16.39,3.23.61A41.47,41.47,0,0,1,83,83c.77.29,1.51.62,2.28.91a1.87,1.87,0,0,0,.53.05l0,.15.32,0,.23,0c0,.36.34.37.55.47a41,41,0,0,1,5.59,3.17q1.89,1.31,3.7,2.7c.78.61,1.5,1.29,2.23,2s1.16,1.14,1.73,1.72a42.11,42.11,0,0,1,5.81,7.36c.7,1.11,1.37,2.24,2,3.41a44,44,0,0,1,3.72,9.9c.35,1.47.65,3,.88,4.46a35.67,35.67,0,0,1,.36,3.73c.07,1.61.11,3.22.06,4.82,0,1.41-.23,2.81-.39,4.21a41.66,41.66,0,0,1-1.51,7,40,40,0,0,1-2.5,6.45c-.92,1.82-2,3.59-3,5.32-.89,1.4-1.91,2.72-2.93,4-.6.77-1.32,1.43-1.94,2.18A23.2,23.2,0,0,1,98.75,159c-1,.91-2,1.72-3,2.56a38.85,38.85,0,0,1-4.86,3.4,44.49,44.49,0,0,1-6.44,3.22,43.94,43.94,0,0,1-7.78,2.37c-1.33.27-2.68.46-4,.65a38.44,38.44,0,0,1-6.61.33c-1.23,0-2.46-.12-3.68-.27-1.62-.2-3.23-.42-4.83-.74a41,41,0,0,1-8.31-2.62c-1.1-.49-2.2-1-3.27-1.56a41.22,41.22,0,0,1-5.07-3A36.21,36.21,0,0,1,36.8,160c-1.22-1.16-2.46-2.3-3.59-3.55a45,45,0,0,1-3.34-4.08c-1.12-1.58-2.15-3.23-3.11-4.91a41.22,41.22,0,0,1-2-4.14,44.76,44.76,0,0,1-2.46-7.75c-.19-.85-.35-1.71-.47-2.57-.17-1.17-.33-2.35-.42-3.53s-.16-2.39-.15-3.59c0-1.4.07-2.8.21-4.2a46.16,46.16,0,0,1,.64-4.68c.34-1.7.8-3.37,1.3-5,.41-1.35.93-2.67,1.46-4,.45-1.09,1-2.15,1.5-3.2a43.6,43.6,0,0,1,3.51-5.68c.18-.25.3-.54.47-.79s.25-.18.34-.29c.56-.68,1.12-1.37,1.66-2.07A2,2,0,0,0,32.6,95.55Zm66.87,62a46.44,46.44,0,0,0,6.21-7.84c-.44-.42-1-.71-1.37-1.11A17,17,0,0,0,102.2,147l-7.27-5.1c-3-2.14-6.08-4.29-9.13-6.42-1.59-1.11-3.2-2.19-4.8-3.29-.81-.57-1.59-1.17-2.39-1.74a1.69,1.69,0,0,0-.62-.25c-.35-.05-.72-.05-1.08-.08-.81,0-1.61-.08-2.42-.14l-1.21-.12c-.56,0-1.11-.06-1.73-.09.06.25.09.45.15.64.72,2.05,1.43,4.1,2.17,6.14a1.74,1.74,0,0,0,.44.69c.67.6,1.36,1.17,2.06,1.74l3,2.46,3.76,3,3,2.42,3.36,2.7c1.26,1,2.48,2.07,3.76,3,1.7,1.31,3.25,2.81,5.08,4A11.61,11.61,0,0,1,99.47,157.52Zm-9.88-71c-.49.57-1,1.08-1.4,1.66-2.24,3.1-4.45,6.22-6.67,9.33l-4.39,6.14c-.72,1-1.46,2-2.18,3-1.15,1.61-2.28,3.23-3.44,4.84a2.09,2.09,0,0,0-.46,1.13c0,.26,0,.53,0,.79-.08,1.18-.18,2.35-.27,3.53-.07,1-.14,2-.2,3,0,.22,0,.44,0,.68,1.9-.68,3.74-1.33,5.58-2a1,1,0,0,0,.41-.28l1.7-2.08c1-1.21,2-2.41,3-3.62l3.59-4.41c1-1.2,2-2.39,3-3.6s1.94-2.39,2.92-3.58,2-2.38,3-3.61a44.28,44.28,0,0,0,3.12-4,10.8,10.8,0,0,1,.85-1.1A43.88,43.88,0,0,0,89.59,86.57ZM74.86,170.34c0-.58-.08-1.09-.1-1.6,0-.7,0-1.4-.08-2.09-.07-.88-.18-1.76-.26-2.64s-.14-1.7-.22-2.55-.18-1.82-.26-2.74c-.06-.56-.1-1.13-.15-1.7-.08-.92-.18-1.85-.26-2.77-.06-.56-.1-1.11-.15-1.66l-.27-2.78c0-.55-.09-1.11-.14-1.66l-.27-2.78c0-.55-.09-1.1-.15-1.66-.08-.87-.18-1.75-.26-2.63-.05-.6-.08-1.21-.15-1.8a2.25,2.25,0,0,0-.24-.86,6,6,0,0,0-.67-.85l-2.61-3.19-1.53-1.89-.08,0-3.07,5.94a1.05,1.05,0,0,0-.07.56c.05.61.12,1.21.18,1.82s.1,1.09.15,1.63l.27,2.54.15,1.59c.08.81.18,1.62.26,2.43l.21,2.37.27,2.57c0,.53.09,1.06.15,1.59.08.81.18,1.62.26,2.44s.14,1.58.21,2.37l.27,2.6.15,1.56c.08.82.17,1.64.26,2.46.06.59.11,1.17.19,1.76,0,.31.17.61.21.92s0,.68.09,1c0,.09.15.24.23.24,1,0,2.07,0,3.11-.08.84-.05,1.69-.16,2.53-.26C73.64,170.54,74.25,170.43,74.86,170.34Zm-42.94-73c-.77,1-1.55,2-2.26,3.09s-1.33,2.08-2,3.13a.4.4,0,0,0,0,.37c.57.43,1.13.88,1.71,1.29,2,1.43,4,2.76,6.07,4.12l5.8,3.88,6.4,4.3,5.09,3.41a2.09,2.09,0,0,0,.79.42,14.38,14.38,0,0,0,1.74.09l4.82.13h.78c-.09-.18-.16-.3-.22-.43-.65-1.55-1.29-3.11-2-4.65a2.6,2.6,0,0,0-.61-1c-.73-.59-1.53-1.07-2.3-1.6-2.09-1.46-4.18-2.93-6.28-4.38-1-.69-2-1.33-3-2-.82-.56-1.61-1.18-2.42-1.76-.53-.38-1.06-.74-1.59-1.1-1.49-1-3-2.1-4.47-3.11s-2.9-2.16-4.51-3A12.93,12.93,0,0,1,31.92,97.3Zm33.27,21.64a.76.76,0,0,0,.1-.14c.9-2.07,1.81-4.15,2.7-6.23a1.05,1.05,0,0,0,.12-.56c-.17-1.06-.36-2.11-.55-3.16s-.42-2.37-.64-3.56l-.66-3.62-.66-3.62c-.2-1.06-.38-2.12-.57-3.19s-.43-2.41-.65-3.62c-.17-.93-.35-1.86-.52-2.79-.2-1.08-.35-2.18-.59-3.25a13.29,13.29,0,0,0-.63-2.83,5.27,5.27,0,0,1-.22-1.22c0-.17-.06-.25-.28-.22-.85.14-1.7.21-2.54.37-1.42.26-2.82.58-4.22.89-.06,0-.16.12-.15.17a14.72,14.72,0,0,1,.22,1.9,16.53,16.53,0,0,0,.39,2.39c.27,1.51.55,3,.81,4.52.33,1.91.64,3.82,1,5.73.29,1.63.59,3.25.88,4.88.33,1.91.64,3.82,1,5.73s.68,3.93,1,5.89a1.58,1.58,0,0,0,.24.72c.39.5.84.95,1.28,1.42.63.69,1.27,1.37,1.9,2Zm47.28,4.16c-.1-.94-.17-1.82-.29-2.7-.18-1.3-.41-2.61-.61-3.91a.26.26,0,0,0-.33-.24,5.86,5.86,0,0,1-1.91.14,1,1,0,0,0-.17,0c-.27,0-.53.09-.8.12l-2.35.32-2.25.3c-.77.1-1.53.19-2.29.3l-2.79.38c-.94.13-1.88.24-2.82.36l-2.79.4c-.94.12-1.88.22-2.82.35L87,119.4l-3.83.49c-1.53.2-3,.4-4.57.62a1.09,1.09,0,0,0-.55.21c-.77.61-1.53,1.25-2.29,1.88L72.82,125c.11.06.19.12.28.16,1.8.8,3.62,1.57,5.41,2.42a2.81,2.81,0,0,0,1.71.17l2.74-.4,2.18-.29,2.72-.39,2.18-.29,2.28-.33L95,125.7l2.75-.39,2.19-.3,2.71-.39,2.28-.33,2.69-.36c.74-.1,1.48-.2,2.21-.32.49-.08,1-.21,1.46-.3S112.05,123.17,112.47,123.1ZM22.73,135h.18c.51,0,1-.1,1.52-.13.17,0,.36.06.53,0l2.12-.26,2-.22,2.09-.26,2-.22,2.69-.33,2-.22,2-.26,2-.22,2.12-.26,2-.25,2.06-.23c.58-.06,1.16-.1,1.75-.17.8-.09,1.61-.18,2.41-.32a2.46,2.46,0,0,0,1.29-.33c1.68-1.35,3.38-2.67,5.07-4l.83-.68-.17-.09c-2.28-1-4.57-1.91-6.86-2.85a1.1,1.1,0,0,0-.57-.07c-.8.11-1.6.25-2.4.37l-2.81.44-2.84.44-3.27.52c-1,.15-1.92.27-2.88.43-1.37.21-2.73.45-4.1.67l-3.31.49c-1.1.17-2.21.34-3.3.54a25,25,0,0,0-3.73.68,10.65,10.65,0,0,1-1.4.25A41.66,41.66,0,0,0,22.73,135ZM40.34,162.2c.21-.25.4-.5.61-.72s.5-.43.71-.68c.74-.86,1.45-1.75,2.18-2.62l2.82-3.38c1.15-1.39,2.29-2.8,3.44-4.19s2.35-2.8,3.52-4.21l3.14-3.82q2-2.45,4.07-4.9a.85.85,0,0,0,.15-.41c.08-.61.14-1.23.22-1.85.13-1,.27-1.92.4-2.89,0-.26,0-.52.07-.79l-.17,0-6.57,2a1,1,0,0,0-.44.29c-.37.41-.71.84-1.06,1.25l-3.1,3.59c-1.17,1.36-2.32,2.74-3.49,4.1-1,1.2-2.08,2.39-3.1,3.59-1.17,1.36-2.35,2.72-3.49,4.11-1.45,1.74-3.07,3.34-4.36,5.22a17.49,17.49,0,0,1-1.17,1.41A38.88,38.88,0,0,0,40.34,162.2ZM72.72,81a48.06,48.06,0,0,0-9.82-.15c1.66,10.27,3.68,20.45,5.49,30.66a1.4,1.4,0,0,0,.22-.36l2.21-5.06a5.7,5.7,0,0,0,.43-1.1,18,18,0,0,0,.15-1.8l.27-4.05L71.88,96c.09-1.37.19-2.75.27-4.12s.14-2.48.21-3.71c0-.4,0-.8.08-1.2.09-1.23.19-2.47.26-3.7,0-.47,0-.93,0-1.4C72.65,81.59,72.7,81.31,72.72,81Zm-6.15,90c0-.92-.06-1.79-.11-2.65s-.14-1.56-.21-2.34-.18-1.69-.26-2.54-.15-1.53-.23-2.3-.17-1.67-.25-2.5c-.06-.56-.1-1.11-.16-1.66-.08-.83-.17-1.65-.26-2.47,0-.55-.09-1.11-.14-1.66-.08-.85-.18-1.69-.27-2.53-.05-.53-.09-1.06-.15-1.59-.08-.8-.18-1.6-.26-2.4s-.14-1.61-.21-2.41c-.11-1.09-.22-2.19-.34-3.28,0-.44-.1-.88-.16-1.4l-.26.45c-.91,1.77-1.83,3.54-2.73,5.31a2.69,2.69,0,0,0-.34.76c-.15.81-.25,1.63-.35,2.45-.15,1.16-.28,2.31-.42,3.47-.18,1.32-.37,2.64-.54,4-.15,1.15-.27,2.31-.42,3.47-.2,1.5-.42,3-.61,4.5-.17,1.33-.33,2.67-.48,4,0,.21,0,.44,0,.66,0,.53-.12,1.07-.18,1.61A44.55,44.55,0,0,0,66.57,171ZM60.85,138.3l-.08,0c-.07.08-.15.16-.22.25l-1.74,2.09C57.88,141.73,57,142.85,56,144c-1.06,1.28-2.13,2.54-3.19,3.82s-1.92,2.33-2.88,3.49l-2.46,3-2.52,3c-.73.89-1.47,1.77-2.18,2.66-.47.58-.89,1.18-1.34,1.77l-.68.85A44.71,44.71,0,0,0,48.58,167c.39-.61.79-1.18,1.14-1.79s.5-1,.74-1.54a7.08,7.08,0,0,1,.32-.68c.15-.26.36-.48.49-.74q1.93-3.7,3.85-7.42c1.27-2.46,2.5-4.93,3.83-7.37a9.11,9.11,0,0,0,1.22-4c0-.75.18-1.49.27-2.23C60.58,140.27,60.71,139.29,60.85,138.3Zm-.71-24.79.08,0c-.11-.63-.22-1.26-.34-1.89-.19-1.13-.39-2.26-.59-3.4-.24-1.35-.47-2.71-.71-4.06s-.46-2.77-.7-4.14-.5-2.73-.73-4.1c-.2-1.13-.39-2.27-.58-3.4-.24-1.39-.49-2.78-.73-4.17s-.43-2.49-.66-3.73c-.08-.43-.24-.85-.34-1.27s-.11-.62-.17-.94a44.7,44.7,0,0,0-8.44,3.35A18.05,18.05,0,0,1,47,88a4.79,4.79,0,0,0,.48,1.19q2.81,6.66,5.63,13.31c.72,1.73,1.44,3.46,2.18,5.18A4.89,4.89,0,0,0,56,109c.65.8,1.39,1.53,2.1,2.29Zm51.21,2.21c0-.09,0-.14,0-.18-.48-1.64-.94-3.29-1.47-4.92-.32-1-.74-1.91-1.13-2.86,0-.09-.2-.22-.27-.2-.61.15-1.22.31-1.81.51-1,.32-1.9.67-2.85,1l-9.22,3.31-11,3.94a2.52,2.52,0,0,0-.74.4c-1,.82-2,1.66-3,2.49l-1.05.89,0,.08C89.62,118.64,100.51,117.37,111.35,115.72Zm1.1,7.92c-10.92,1.35-21.74,3-32.59,4.49a1.41,1.41,0,0,0,.35.21l3.4,1.53a6.69,6.69,0,0,0,1.34.56,19.79,19.79,0,0,0,2,.16l2.22.15,3.43.26c.76.05,1.53.09,2.29.15l3.36.26c.76.05,1.53.09,2.28.15l3.58.26,2.17.15c1.14.08,2.27.19,3.4.25.6,0,1.21,0,1.81,0s.53,0,.59-.5c.13-1,.27-2.07.33-3.11.07-1.38.06-2.76.07-4.14A5.89,5.89,0,0,0,112.45,123.64Zm-28.24,44a21.73,21.73,0,0,0-.56-2.18c-1-3-2.13-6-3.18-9-1.48-4.2-2.94-8.41-4.42-12.62a2.91,2.91,0,0,0-.42-.8c-.72-.92-1.46-1.83-2.2-2.73-.31-.39-.63-.76-1-1.18.09,1,.17,1.94.25,2.88l.15,1.66c.09.89.18,1.78.26,2.67.06.59.1,1.18.15,1.76.09.91.18,1.81.26,2.71.06.58.1,1.15.15,1.73l.27,2.74c0,.57.09,1.13.15,1.7.08.85.18,1.71.26,2.57s.13,1.72.21,2.57c.11,1.22.2,2.45.35,3.66a20.68,20.68,0,0,0,.41,3.23,6.79,6.79,0,0,1,.14,1.2C76.44,170.26,82.9,168.39,84.21,167.66Zm13.94-75c-7.21,8.52-14.06,17.13-21.07,25.62a.28.28,0,0,0,.17,0c1.25-.44,2.48-.89,3.73-1.31a8.33,8.33,0,0,0,3.1-1.66c1.09-1,2.27-1.93,3.42-2.88l3.78-3.12q1.75-1.44,3.49-2.9L97.71,104l3.09-2.58c.49-.4,1-.8,1.47-1.22s.72-.73,1.11-1.06c.19-.16.19-.25,0-.43-1.08-1.27-2.14-2.56-3.23-3.83C99.54,94.11,98.86,93.42,98.15,92.66ZM32.29,96.81c.65.57,1.19,1.12,1.81,1.57,1.59,1.15,3.22,2.24,4.83,3.36,2.3,1.59,4.61,3.17,6.9,4.77,1.45,1,2.88,2,4.33,3,2.11,1.48,4.24,2.95,6.36,4.42L58,115c0-.09,0-.12,0-.15L56,110a4.17,4.17,0,0,0-.55-1.12c-1.33-1.48-2.71-2.92-4.07-4.37-.32-.34-.66-.66-1-1L47.12,100c-.71-.77-1.44-1.52-2.15-2.29-1.4-1.51-2.79-3-4.2-4.53-.5-.53-1.05-1-1.57-1.52-.2-.19-.36-.42-.56-.6a.32.32,0,0,0-.32,0c-.67.56-1.37,1.1-2,1.71C35,94,33.62,95.45,32.29,96.81Zm46.8,33.51v.07c.72.52,1.43,1,2.15,1.54,1.64,1.16,3.3,2.31,5,3.47l10.61,7.46c1.57,1.1,3.12,2.22,4.7,3.3a40.8,40.8,0,0,0,3.91,2.6,4.86,4.86,0,0,1,.62.42c.41-.74.85-1.43,1.2-2.16.76-1.59,1.49-3.19,2.22-4.8a.34.34,0,0,0-.06-.32c-.57-.33-1.15-.66-1.75-.94-1.13-.53-2.27-1-3.4-1.52l-8.36-3.75c-3.12-1.4-6.25-2.81-9.38-4.19a5.37,5.37,0,0,0-2.55-.82,5.63,5.63,0,0,1-.82,0Zm-4.83,7.39c.52,1.49,1,2.88,1.47,4.26a4.71,4.71,0,0,0,.52,1.28c.86,1.14,1.78,2.23,2.69,3.34l3.15,3.86,2.8,3.47,2.6,3.19c.94,1.16,1.87,2.32,2.82,3.46.43.51.9,1,1.34,1.48s.62.76.93,1.13a38,38,0,0,0,6.49-5.31C90.93,151,82.55,144.5,74.26,137.71Zm-3.08-26.36.09.05a.75.75,0,0,1,.06-.13c.78-1.09,1.56-2.19,2.35-3.28.51-.71,1.06-1.39,1.57-2.1s1-1.42,1.43-2.12,1.19-1.66,1.78-2.49c1.65-2.3,3.32-4.58,4.93-6.91s3.35-4.41,4.74-6.81c.26-.45.6-.85.92-1.3a43.15,43.15,0,0,0-7.63-3.33c-.34.65-.71,1.23-1,1.86-1.47,3.31-2.91,6.62-4.35,9.94s-2.78,6.37-4.16,9.56a4.92,4.92,0,0,0-.39,1.29c-.1.87-.1,1.75-.16,2.62,0,.47-.09.93-.12,1.39S71.2,110.76,71.18,111.35Zm-43.89-7a2.29,2.29,0,0,0-.15.24c-.53,1.08-1.1,2.14-1.57,3.24s-.91,2.33-1.35,3.5a.33.33,0,0,0,.08.29c.64.33,1.28.68,1.94,1,3.32,1.4,6.65,2.77,10,4.15s6.38,2.65,9.58,4a4.25,4.25,0,0,0,1.77.53c1,0,2.07.08,3.11.11.68,0,1.36,0,2.09,0l-.3-.22L41.6,113.77c-2.81-1.89-5.61-3.81-8.44-5.66a38.54,38.54,0,0,0-4.42-2.83A12.75,12.75,0,0,1,27.29,104.3ZM54,134.09l-5.58,1.7a.59.59,0,0,0-.2.12c-.94.74-1.87,1.49-2.82,2.23l-2.48,1.94L39,143.18c-1.63,1.27-3.28,2.53-4.9,3.82a38.09,38.09,0,0,0-4,3.29,5.24,5.24,0,0,1-.72.55A44,44,0,0,0,34.32,157C41.07,149.45,47.45,141.7,54,134.09Zm-29,8.4c.69-.15,1.35-.25,2-.43,1.42-.42,2.83-.87,4.24-1.3L48,135.6a1.58,1.58,0,0,0,.44-.24c1-.79,2-1.58,3.06-2.38.41-.32.8-.65,1.28-1l-1.67.21-2.84.32-3.18.37-1.92.22-2.7.32-2,.23-2.67.32-2,.23-2.66.32-2,.23-2.7.32c-.52.06-1,.13-1.55.21-.34,0-.67.14-1,.2l-1,.15A45.59,45.59,0,0,0,25,142.49Zm26.6-19.08-.22-.13-4.1-1.69a1.37,1.37,0,0,0-.45-.13l-3.62-.14-5.2-.13c-1.37,0-2.74-.06-4.11-.08-.28,0-.56,0-.84,0-.88,0-1.75-.1-2.62-.13-1.66,0-3.31-.11-5-.13-1.11,0-2.21,0-3.31.06A1.53,1.53,0,0,0,22,121l-.19,7C31.78,126.6,41.62,124.89,51.6,123.41ZM112,132.9c-.63-.12-1.24-.25-1.86-.33s-1.1-.1-1.66-.14l-1.93-.14-3.88-.28-2.79-.2L96,131.53l-3.78-.27-3.4-.21c-.42,0-.83-.09-1.25-.12L86,130.84c.8.44,1.61.8,2.42,1.16l6.28,2.82,6.83,3.05c1.22.54,2.42,1.13,3.65,1.65s2.54,1,3.82,1.55l.76.34A43.73,43.73,0,0,0,112,132.9ZM108.35,107a44.08,44.08,0,0,0-4.46-7.6c-2.23,1.82-4.46,3.62-6.67,5.44s-4.42,3.68-6.64,5.52-4.41,3.65-6.65,5.5l.09,0,9.47-3.4,7.71-2.75,2.78-1c.44-.16.91-.27,1.35-.44C106.33,107.8,107.32,107.38,108.35,107ZM76.7,144.28l-.13.06.43,1.2q2.86,8.19,5.75,16.38a35.82,35.82,0,0,0,1.65,4.36,8.59,8.59,0,0,1,.39,1.11,34.94,34.94,0,0,0,7.33-3.93C87.13,157,81.8,150.71,76.7,144.28ZM45.88,121.14l0-.11a1.55,1.55,0,0,0-.22-.12l-1.62-.68-7-2.89c-2.22-.91-4.43-1.85-6.66-2.74a41.1,41.1,0,0,0-4.94-1.93,13.19,13.19,0,0,1-1.52-.63,45.15,45.15,0,0,0-1.81,8.28l.69.05,2.29.16c1,0,2.07.11,3.1.14.88,0,1.77,0,2.65,0,.62,0,1.25.1,1.87.12.91,0,1.82.06,2.73.08l5.68.14,3.8.07C45.25,121.07,45.57,121.11,45.88,121.14Zm-7-30.7c.4.53.77,1,1.18,1.55.26.33.56.62.85.93.87.94,1.74,1.89,2.62,2.83q1.92,2.07,3.86,4.13c1.05,1.13,2.11,2.24,3.16,3.37l2.1,2.28c.62.68,1.24,1.35,1.87,2L55,108l.08-.07c0-.12-.09-.24-.14-.36-.48-1.17-1-2.34-1.46-3.5l-2.25-5.3-2-4.74c-.66-1.56-1.31-3.12-2-4.67-.31-.71-.68-1.38-1-2.08-.2-.43-.36-.86-.55-1.31A44.66,44.66,0,0,0,38.93,90.44ZM29,150.32a69.61,69.61,0,0,0,6.19-4.62c2-1.56,4.06-3.15,6.08-4.73l6-4.69,0-.08a.86.86,0,0,0-.23,0l-3.31,1-2.26.69c-3.85,1.18-7.7,2.35-11.54,3.57a19.14,19.14,0,0,0-3.3,1.12,8,8,0,0,1-1.38.46A44.85,44.85,0,0,0,29,150.32Zm30.67-3.58a2.46,2.46,0,0,0-.17.27q-1.14,2.15-2.25,4.3-3.21,6.18-6.4,12.38c-.4.78-.72,1.59-1.1,2.39-.19.4-.42.79-.63,1.19a44,44,0,0,0,7.51,2.5C57.91,162.12,58.7,154.42,59.71,146.74Zm11.94-42.82.08,0c.07-.15.15-.29.22-.44l2.15-5c1.37-3.14,2.76-6.28,4.11-9.44a45.66,45.66,0,0,0,2.13-5.17,9.2,9.2,0,0,1,.48-1.12,36.27,36.27,0,0,0-7.47-1.68c-.1.59-.25,1.17-.31,1.76-.12,1.34-.19,2.68-.28,4L72.49,91c-.12,1.73-.24,3.45-.34,5.18-.08,1.24-.15,2.48-.22,3.72,0,.39-.05.79-.08,1.19Zm-5.38,16.85a4.88,4.88,0,1,0,4.86,4.89A4.87,4.87,0,0,0,66.27,120.77Zm4.84,9c-.32,0-.62-.08-.91-.09a.73.73,0,0,0-.36.14c-.59.34-1.19.69-1.77,1a.91.91,0,0,0-.31.27,6.48,6.48,0,0,0-.34.64l4.33,3.49c-.1-1-.18-1.9-.28-2.8A11.56,11.56,0,0,0,71.11,129.78Zm-7.94,5.64a1.27,1.27,0,0,0-.16.15c-.5.6-1,1.19-1.47,1.8a1.38,1.38,0,0,0-.29.58c-.1.54-.15,1.08-.22,1.62-.22,1.64-.43,3.29-.65,4.93a.51.51,0,0,0,.18-.21L63.29,139a1.08,1.08,0,0,0,.17-.74c-.05-.28-.05-.57-.08-.85C63.31,136.77,63.24,136.12,63.17,135.42Zm6.54-14.52-1-5.41-2.91,4.06c.08.1.15.19.21.28a1.37,1.37,0,0,0,.93.55,8.42,8.42,0,0,1,1.72.55A.87.87,0,0,0,69.71,120.9Zm-13.65,2.15,4.09,2.74c.1.06.29.12.35.08a1,1,0,0,0,.33-.45c.17-.61.24-1.26.46-1.85a1.22,1.22,0,0,0,0-1,.43.43,0,0,0-.55-.29c-1.13.19-2.27.36-3.41.54Zm4.45,4.06-3.42,4,.68-.09c1.08-.12,2.17-.22,3.24-.36.8-.1.81-.12.92-.82a1.21,1.21,0,0,0-.22-1.13,2.46,2.46,0,0,1-.49-1A.81.81,0,0,0,60.51,127.11Zm10.65-20.75-.09,0c0,.11-.11.22-.15.33l-2.21,5a1.42,1.42,0,0,0-.14.93c.14.62.24,1.25.37,2l.2-.27c.49-.67,1-1.34,1.44-2a1.18,1.18,0,0,0,.2-.55c.07-.78.11-1.56.16-2.35C71,108.38,71.08,107.37,71.16,106.36ZM60.77,116.89c-.12-.75-.23-1.45-.35-2.13a1.54,1.54,0,0,0-.35-.86c-.73-.75-1.42-1.54-2.14-2.31-.49-.53-1-1-1.5-1.58a.33.33,0,0,0,0,.24l2.09,4.94a.74.74,0,0,0,.19.27ZM49.28,135.13l0,.05,4.81-1.48a1.46,1.46,0,0,0,.58-.38c.35-.36.68-.76,1-1.15l.51-.62c-.68.07-1.3.12-1.92.2a1.94,1.94,0,0,0-1.33.47,5.87,5.87,0,0,1-.83.66Zm25.86-14.5c.76-.09,1.47-.16,2.17-.28a1.65,1.65,0,0,0,1-.31c.84-.74,1.73-1.43,2.6-2.15.33-.27.66-.56,1-.88a1.35,1.35,0,0,0-.21,0l-4.13,1.49a2.82,2.82,0,0,0-1,.42A20.75,20.75,0,0,0,75.14,120.63Zm-8.79,11-.09,0c-.78.94-1.57,1.86-2.33,2.81-.21.26-.5.49-.43.92s.1.85.15,1.28.1.86.16,1.36c1-1.93,2-3.79,2.92-5.65a.39.39,0,0,0,0-.3A3.24,3.24,0,0,0,66.35,131.6Zm5.19-2.66,4.06-.57-3.66-2.57c-.46.16-.29.56-.39.86A4.75,4.75,0,0,0,71.54,128.94Zm5.09-.36v.09c.5.34,1,.7,1.51,1a1.31,1.31,0,0,0,.5.25c.71.07,1.43.1,2.15.15.43,0,.85.09,1.28.12s1,.06,1.54.08a.59.59,0,0,0-.25-.2l-3.53-1.58a2,2,0,0,0-1.3-.23C77.91,128.44,77.26,128.49,76.63,128.58Zm-14.69-7.06a1.55,1.55,0,0,0,1.3-.3,2.5,2.5,0,0,1,.89-.49.8.8,0,0,0,.55-.7l-3.41-2.37Zm8.79-8.7-.08,0c-.48.68-1,1.35-1.44,2a.86.86,0,0,0-.13.56c.21,1.24.44,2.47.67,3.7l.3,1.68h.14Zm-22.52,8.67v.09l.08,0,3.82,1.58a1.05,1.05,0,0,0,.5,0c.41,0,.81-.12,1.21-.19l1.28-.21-1.63-1.09a.5.5,0,0,0-.26-.08Zm4.74,2a1.5,1.5,0,0,0,.17.11l6.44,2.68c.21.08.38.09.52-.12l0-.06-4.41-3c-.06,0-.13-.08-.18-.07Zm19,1v.14c.22,0,.49.12.66,0a4,4,0,0,0,.8-.63l3.1-2.56c.31-.25.61-.52,1-.83h-.28c-.56.07-1.12.16-1.68.2a1.38,1.38,0,0,0-1.16.69,3,3,0,0,1-.39.47Zm.24,11.54c.07.79.12,1.5.2,2.21a.92.92,0,0,0,.23.45c.65.82,1.32,1.64,2,2.46l.78.94a4.83,4.83,0,0,0-.23-.87c-.38-1.05-.75-2.1-1.13-3.14a2.71,2.71,0,0,0-.44-.92A13.45,13.45,0,0,0,72.18,136.09Zm-.63-11.63,2.76-3.36-3.75.5a1.28,1.28,0,0,0,.23,1.27A14.75,14.75,0,0,1,71.55,124.46ZM60.15,127c-.22-.25-.37-.08-.53,0l-4.29,3.36-1.21,1,0,.08c.58-.07,1.15-.16,1.73-.2a1.25,1.25,0,0,0,1-.42C58,129.53,59.05,128.26,60.15,127Zm1.58,3.94h-.4l-4.39.55a.45.45,0,0,0-.24.07l-1.53,1.8.29-.06c2-.61,4-1.22,6-1.81C61.73,131.38,61.77,131.21,61.73,130.92Zm-1-16.27c.14.82.27,1.53.38,2.24a.69.69,0,0,0,.34.5c.43.28.84.58,1.26.87.7.48,1.4,1,2.09,1.45.25-.42.25-.42,0-.74l-1.2-1.31Zm2.68,19.76.08,0,2.62-3.17-1.67-.35a.38.38,0,0,0-.21,0c-.3.08-.6.18-.9.27a.26.26,0,0,0-.2.32C63.26,132.48,63.34,133.44,63.43,134.41Zm-.66-3c-.68.14-.7.14-.78.72-.19,1.32-.36,2.64-.54,4,0,.26-.05.54-.08.89l1.38-1.64a1,1,0,0,0,.35-.9c-.07-.39-.09-.79-.13-1.18C62.9,132.66,62.84,132,62.77,131.42Zm9.45-5.86c1.27.89,2.51,1.78,3.76,2.65a.37.37,0,0,0,.22.08l2.31-.33-.26-.13c-1.82-.82-3.65-1.63-5.47-2.46C72.54,125.26,72.38,125.34,72.22,125.56Zm-.32,12.32H72c0-.67-.1-1.33-.17-2a.4.4,0,0,0-.17-.24l-3.49-2.83-.67-.53-.06.07Zm-3.63-24.95c-1,2.09-1.93,4.18-2.76,6.32a.2.2,0,0,0,.18-.07l2.86-4c0-.06.11-.15.09-.21C68.53,114.27,68.39,113.6,68.27,112.93ZM59,116.05l-.05,0c.73,1.74,1.46,3.49,2.2,5.22,0,.12.25.17.38.25l.08-.09c-.22-1.33-.44-2.65-.67-4a.44.44,0,0,0-.13-.2Zm18.71,13.78c-.5-.36-1-.72-1.52-1.07a.56.56,0,0,0-.34-.06l-2.69.37-1.59.23v.14C73.57,129.63,75.61,129.73,77.67,129.83Zm-16.77-7.9v-.08l-6.8-.19a14.52,14.52,0,0,0,1.4,1,.42.42,0,0,0,.27,0Zm9.58-.77.06.09.7-.08,2.35-.32c.36,0,.82,0,1-.2a10.67,10.67,0,0,0,1.24-1.48c-.06,0-.09,0-.1,0L70.71,121C70.62,121,70.56,121.09,70.48,121.16Zm3,15.51,0,0-1.65-4.7a2.68,2.68,0,0,0,0,.75c.07.86.13,1.72.22,2.58a.89.89,0,0,0,.25.48C72.7,136.07,73.09,136.36,73.47,136.67Zm-10.85-6.24c.05-.63,0-.65-.31-.87l-.1.89Zm-.47.76c.56-.13.56-.13.49-.41l-.49.1Zm5,.36.21-.46-.64.12Zm5-6.42-.49-.23-.08.06.24.37Z" transform="translate(-15.77 -10.49)"/>
    <path d="M69,125.61a2.78,2.78,0,1,1-2.77-2.78A2.8,2.8,0,0,1,69,125.61Zm-2.75-2.38a2.38,2.38,0,1,0,2.35,2.39A2.38,2.38,0,0,0,66.25,123.23Z" transform="translate(-15.77 -10.49)"/>
  </g>
  <g id="frame">
    <path class="cls-3" d="M107.1,49.82c1.83,1.84,4,1.5,6.28,1.15a11.68,11.68,0,0,1,1.55.12l61.74-.69c2.84,0,5.68,0,8.52,0a6.69,6.69,0,0,0,1.73-.24c.79-.23,1-.92,1-1.65,1.41-.33,2.81-.68,4.22-1,.24,0,.53.15.8.24l1.21,3.33,1.68,4.68c1,3.14,2,6.31,3.16,9.4.5,1.32.58,2.95,2,3.85.22.14.17.76.2,1.17a5.79,5.79,0,0,1-.07.92l.46,1.54c0,.13.05.26.07.4s.07.16.1.25c.72,2.4,1.48,4.79,2.17,7.2.65,2.26,1.21,4.55,1.86,6.81.49,1.67,1.11,3.29,1.6,5,.76,2.56,1.39,5.16,2.19,7.7a31.43,31.43,0,0,0,1.52,3.54,43,43,0,0,0,6.37,10.71c1.21,1.4,2.34,2.87,3.6,4.22a40.65,40.65,0,0,0,3.52,3.3,12.66,12.66,0,0,0,1.68.87c.43.27,1,.58,1.12,1s-.38.82-.61,1.26c-1.67-1-3.22-1.84-4.69-2.81a13.22,13.22,0,0,1-1.49-1.58,51.88,51.88,0,0,1-4.1-3.87,76.81,76.81,0,0,1-5.47-7.34,60.93,60.93,0,0,1-4-7.37c-1.09-2.39-1.87-4.92-2.8-7.39-.6-1.61-1.29-3.19-1.81-4.82-.59-1.85-1-3.76-1.55-5.62-.31-1-.86-2-1.26-3-.84-2-1.66-4.06-2.46-6.11-.44-1.11-.52-2.4-1.8-3.06-.26-.12-.28-.7-.42-1.06s-.28-.64-.49-1.12c-1.81,2.07-3.45,4-5.11,5.84-.8.9-1.62,1.78-2.43,2.68q-4.5,4.94-9,9.88c-1.88,2.08-3.74,4.18-5.61,6.27l-9.64,10.74c-2.58,2.87-5.13,5.78-7.74,8.62-6.81,7.39-13.61,14.79-20.53,22.07-.57.6-2.08.52-3.12.4-4.31-.5-8.6-1.15-12.91-1.71q-11-1.43-22-2.8l-23.58-3-8.36-1.07c-1.12-1.74,0-2.94.74-4.22l38.52-67.91a7.3,7.3,0,0,0,.44-.77c.35-.77.11-1.16-.72-1.27a3,3,0,0,1-1.37-.32,1.83,1.83,0,0,1-.65-1.24,1.78,1.78,0,0,1,.76-1.07,11.3,11.3,0,0,1,1.6-.89c.13,0,.32.19.37.15C105,49.33,106.06,49.56,107.1,49.82ZM133.89,130c.37-.48.56-.79.8-1q10.59-11.5,21.17-23c1.92-2.09,3.79-4.23,5.69-6.34q4.48-4.95,9-9.88c.81-.89,1.64-1.76,2.43-2.67,2-2.32,3.95-4.68,6-7,1.8-2,3.7-4,5.43-5.78a8.33,8.33,0,0,0-.29-1.39c-.5-1.31-1-2.61-1.59-3.89-.33-.78-1.18-1.39-.71-2.43h1c1,2,1.93,4,2.93,6.07C188,70.22,190,68,192,65.79c.58-.66,1.24-1.32.82-2.51-.87-2.48-1.5-5.05-2.32-7.56-.69-2.14-1.28-2.48-3.48-2.41l-.66,0-71.78.81a8,8,0,0,0-4.64,1.09,24.17,24.17,0,0,0,.56,2.84c.49,1.53,1.15,3,1.66,4.53.68,2,1.29,4,1.93,6,2.91,9.08,5.81,18.16,8.77,27.23.19.59.11,1.59,1.22,1.64a2.84,2.84,0,0,1,.18,1.06c0,.36-.22.76-.12,1.06.92,2.84,1.93,5.65,2.84,8.48,1.38,4.29,2.7,8.59,4,12.89C131.94,123.87,132.86,126.77,133.89,130Zm-3.78,2.77L106,58.09l-40.7,68.09Z" transform="translate(-15.77 -10.49)"/>
    <path class="cls-4" d="M201.6,72.63l-.46-1.54a4.61,4.61,0,0,0,1.23-.46c1.29-1,2.52-2,3.85-3.1-1.38-3.86-2.8-7.82-4.23-11.78a1.25,1.25,0,0,0-1.68-.88c-1.48.35-3,.59-4.48.88l-1.68-4.68c.67-.08,1.35-.12,2-.23,3.07-.51,6.18-.88,9.2-1.6a20.22,20.22,0,0,0,6.9-2.68c2.69-1.84,3.28-6.52.85-8.92a10.73,10.73,0,0,0-6.49-3.23c-3.79-.46-7.41-.46-10.45,2.39a3.41,3.41,0,0,1-2.06.7,31.48,31.48,0,0,1-3.59-.2,3.65,3.65,0,0,1-.36,3.38,2.2,2.2,0,0,0,.11,1.33c1.13,0,.92,1,1.27,1.6,1.8-.56,1.8-.56,2.5,1-.2.09-.49.13-.56.28-.26.54-.44,1.11-.72,1.88l.17.94c-.27-.09-.56-.29-.8-.24-1.41.28-2.81.63-4.22,1l-1.59-.77,1.24-1.54a10.07,10.07,0,0,0-.62-1.22,1.11,1.11,0,0,1,0-1.54c.29-.39.06-1.18-.15-1.79l-.93,1.52a1.13,1.13,0,0,1-.22-.15c.42-.91,0-1.46-.71-2a2.91,2.91,0,0,1-.9-3l-1.28-.85.07-.2c.39,0,.84.14,1.14,0,.46-.25,1.13-.7,1.13-1.06,0-1.26.81-1.42,1.68-1.54a16.51,16.51,0,0,1,2,0c.59-2.81,1.31-5.57,1.73-8.38a33.05,33.05,0,0,1,2.45-9c1.27-2.76,3-5.22,6.26-6.08a8,8,0,0,1,5,.4,17.52,17.52,0,0,1,6.44,4.21c2.32,2.43,4.53,5,6.79,7.43a4,4,0,0,1,.31.5c2.1-.48,2.87,1.65,4.54,2.25-1.08,1.45.53,1.75.95,2.58a6.22,6.22,0,0,0,.67,1.28,3.22,3.22,0,0,0,1.36.93,6.34,6.34,0,0,0,1,1.85c1.39,1.2,1.26,2.86,1.61,4.38.51,2.17,1,4.34,1.6,6.48.14.52.61.94.8,1.55-.3-.33-.76-.61-.89-1-.77-2.38-1.48-4.79-2.17-7.2-.45-1.57-.64-3.25-2.32-4.16-1.29-.71-3.61-.22-4.26,1a1.2,1.2,0,0,0,.16,1c1.42,2,1.22,4.49,1.74,6.75a6.33,6.33,0,0,1,.15,2.35L222,40.1c-.37-1.52-.69-3.05-1.14-4.55a5,5,0,0,0-.92-1.33,6.48,6.48,0,0,0-1.17,1.17,4.85,4.85,0,0,0-.43,4.09,9.27,9.27,0,0,1-.47,5.67c-1.66,4.67-5.34,6.72-9.77,7.88-1.73.45-3.48.81-5.48,1.27,1.15,4.41,3,8.64,4.38,13.06,2.07-.13,4.13-.32,6.2-.37,2.84-.06,5.68,0,8.52,0,2.49,0,5-.23,7.47-.16a30.27,30.27,0,0,1,4.3.68l.07.47a4.16,4.16,0,0,1-1.1.32q-11.59,0-23.21,0a7.13,7.13,0,0,0-2.17.06,6.73,6.73,0,0,0-1.93,1.29C203.92,70.62,202.77,71.64,201.6,72.63ZM192.28,34.1l.45.25c.38-.19,1.12-.45,1.1-.55-.23-1,.67-1.17,1.15-1.6,1.12-1,2.17-2.18,3.83-2.25,2.1-.08,4.2-.19,6.31-.18a15.1,15.1,0,0,1,6.35,1.32,1,1,0,0,0,1.37-.39,5.11,5.11,0,0,0-.07-5.18c-1.67-2.42-3.27-4.91-5.15-7.15A33.25,33.25,0,0,0,202.1,13c-2.77-2.08-5.38-1.35-7.11,1.65A23.07,23.07,0,0,0,192.31,25C192.14,28,192.28,31.07,192.28,34.1ZM200.81,11l-.15.49.56.43a38.13,38.13,0,0,1,3.9,2.84c3.12,2.92,5.42,6.52,7.84,10a5.2,5.2,0,0,0,1.22,1l3.41,2.57A5.9,5.9,0,0,0,218,27a5.57,5.57,0,0,0-1.46-4.53c-1.32-1.48-2.59-3-4-4.44-2.39-2.5-4.86-4.94-8.21-6.15A35,35,0,0,0,200.81,11ZM189.29,34l2.45-.14V24.41l-.32,0Z" transform="translate(-15.77 -10.49)"/>
    <path class="cls-4" d="M107.1,49.82c-1-.26-2.07-.49-3,.29,0,0-.24-.1-.37-.15-.58-2-1.11-4-1.77-5.93a5.12,5.12,0,0,0-1.15-1.62c-1.92-2.16-4.46-1.14-6.78-1.25a46.69,46.69,0,0,1-6.92-.41c-1.55-.32-2.4-1.94-2.56-3.55A4.22,4.22,0,0,0,83,34.1a30.65,30.65,0,0,1-2.33-2.38,2,2,0,0,1,2.13-1.26c4.21.16,8.41.37,12.62.42,3.08,0,6.17-.09,9.25-.22,2.15-.08,4.29-.27,6.44-.43,1.59-.12,3.19-.38,4.78-.36a33.09,33.09,0,0,1,5.54.51A9.44,9.44,0,0,1,124,31.89c-1.68,1.21-3,2.44-4.92,2.56a1.65,1.65,0,0,0-.92.26c-1.77,1.56-4.18,1.64-6.17,2.69-1.81,1-3.68,1.81-5.54,2.65a19.9,19.9,0,0,1-2.29.77c.69,1.93,1.35,3.82,2.06,5.7a1.44,1.44,0,0,0,.68.74c1.78.8,3.59,1.55,5.4,2.32l-.15.16c-1.74-.75-3.31-2-5.45-1.93ZM96.61,40l.13-.58-8.91-4.09c0,.91,0,1.5,0,2.08.17,1.87,1,2.6,2.85,2.59ZM85.36,35.58c.16,2.59.81,3.79,2.1,4.2l-1-4.79Zm34.7-3.39c-.55-.33-.83-.63-1.08-.6s-.51.36-.77.56c.22.25.44.67.68.69S119.49,32.53,120.06,32.19Z" transform="translate(-15.77 -10.49)"/>
    <path class="cls-4" d="M84.33,78.94q8.3-13.51,16.61-27c.42,0,.28.17.42.25q-8.3,13.52-16.6,27Z" transform="translate(-15.77 -10.49)"/>
    <path class="cls-4" d="M112.3,49.58l.72.68c0,.05.53.65.49.69a11,11,0,0,1-1.36-1.21Z" transform="translate(-15.77 -10.49)"/>
    <path class="cls-4" d="M223.17,43.52l.3.77-.16.07-.35-.74Z" transform="translate(-15.77 -10.49)"/>
    <polygon class="cls-4" points="215.35 34.42 215.39 34.34 215.34 34.33 215.35 34.42"/>
    <path class="cls-4" d="M201.77,73.28c0-.09-.07-.17-.1-.25C201.7,73.11,201.74,73.19,201.77,73.28Z" transform="translate(-15.77 -10.49)"/>
    <g>
      <rect class="cls-5" x="182.78" y="92.52" width="56.88" height="49.65" rx="2.94" ry="2.94"/>
      <path class="cls-6" d="M251.27,129.6H202.43c-1.55,0-2.82-.71-2.82-1.58V104.53c0-.86,1.27-1.57,2.82-1.57h48.84c1.55,0,2.81.71,2.81,1.57V128C254.08,128.89,252.82,129.6,251.27,129.6Z" transform="translate(-15.77 -10.49)"/>
    </g>
    <g>
      <rect class="cls-5" y="83.92" width="69.69" height="60.83" rx="3.6" ry="3.6"/>
      <path class="cls-6" d="M80.36,127H20.53c-1.9,0-3.46-.87-3.46-1.94V96.28c0-1.07,1.56-1.94,3.46-1.94H80.36c1.9,0,3.45.87,3.45,1.94v28.77C83.81,126.12,82.26,127,80.36,127Z" transform="translate(-15.77 -10.49)"/>
    </g>
  </g>
  <g id="crank">
    <path  d="M152.4,156.71c.11.66-.08.94-.76,1l-4.46.67a.81.81,0,0,0-.45.23,3.32,3.32,0,0,1-2.07,1,2.78,2.78,0,0,1-1.67-.45.84.84,0,0,0-.49-.1c-1.71.24-3.41.5-5.12.75a.74.74,0,0,1-.92-.71c-.12-.88-.25-1.77-.39-2.66-.08-.59.14-.88.74-1l4-.6.17,0a7.65,7.65,0,0,0-1-2.3c-.43-.88-.9-1.75-1.36-2.62-.27-.51-.55-1-.87-1.5,0-.09-.29-.1-.42-.08-.82.15-1.62.39-2.44.48a15.09,15.09,0,0,1-11.69-26.42,15.1,15.1,0,1,1,19,23.42c-.24.18-.38.34-.22.65,1.06,2.05,2.08,4.12,3.18,6.15a6.7,6.7,0,0,0,1.17,1.34.5.5,0,0,0,.37.06l4.23-.63c.63-.1.94.13,1,.76C152.15,155,152.27,155.87,152.4,156.71Zm-.66.74a.42.42,0,0,0,.41-.5c-.14-.91-.27-1.83-.41-2.75-.06-.45-.19-.56-.63-.5l-2,.29-6.55,1c-1.9.28-3.79.55-5.68.84-.54.08-.62.21-.54.75.13.84.25,1.69.37,2.53.07.44.2.56.64.5l2-.29,6.55-1Zm-10-11.61a14.88,14.88,0,1,0-4.21,2.1c-.21-.63-.2-.6-.81-.49a13.28,13.28,0,0,1-1.78.2,2.24,2.24,0,0,1-2.15-1.35,5.6,5.6,0,0,1-.53-3.09,3.68,3.68,0,0,1,.46-1.72.91.91,0,0,1,1-.43l.32.05-1.92-3.67a.33.33,0,0,1,.2.16c1.16,2.05,2.34,4.09,3.46,6.16,1.74,3.23,3.44,6.48,5.14,9.72a3.58,3.58,0,0,1,.41,1c.07.36.26.37.54.33.87-.14,1.75-.26,2.62-.39l1.55-.24c-.11-.12-.16-.2-.23-.26a7.35,7.35,0,0,1-1.57-2.21c-.22-.48-.47-1-.71-1.42-2.24-4.52-4.55-9-6.58-13.63-.21-.51-.43-1-.65-1.51l.08,0c.62,1.26,1.24,2.52,1.86,3.8a1.12,1.12,0,0,1,1.78-.27,1,1,0,0,0,.24.11,6.13,6.13,0,0,1,2.62,2,2.32,2.32,0,0,1,.31,2.35,3.18,3.18,0,0,1-1.17,1.32c-.78.58-.78.59-.3,1.39ZM143.49,159a2.14,2.14,0,0,0,2.59-.38Zm-1.25-15a2.11,2.11,0,0,0,.49-3,7.08,7.08,0,0,0-3.31-2.28.52.52,0,0,0-.67.11.84.84,0,0,0-.12.9l1.52,3,1,2.05C141.57,144.52,141.91,144.27,142.24,144Zm-5.13,3c-.07-.16-.12-.25-.17-.35-.76-1.48-1.53-2.94-2.28-4.42a1.38,1.38,0,0,0-.7-.67c-.5-.25-.83-.14-1,.4a5.37,5.37,0,0,0,.27,4.25,1.82,1.82,0,0,0,1.66,1,9.39,9.39,0,0,0,1.19-.06C136.42,147.2,136.74,147.11,137.11,147Z" transform="translate(-15.77 -10.49)"/>
    <path d="M151.56,156.39a.7.7,0,0,1-.67.88L139.64,159l-1.54.24c-.56.08-.83-.1-.93-.66s-.17-1.09-.25-1.57.19-.75.63-.82l3.25-.49,6.85-1,2.79-.42c.52-.08.78.11.88.65S151.49,155.88,151.56,156.39Zm-.79.6c.46-.07.56-.19.49-.66s-.13-.85-.19-1.28-.21-.62-.75-.54l-5.08.77-7.63,1.14a.4.4,0,0,0-.4.5c.09.56.17,1.11.26,1.67a.36.36,0,0,0,.42.33l.2,0,3.14-.47Z" transform="translate(-15.77 -10.49)"/>
    <path class="cls-7" d="M151.26,156.33c.07.47,0,.59-.49.66l-9.54,1.44-3.14.47-.2,0a.36.36,0,0,1-.42-.33c-.09-.56-.17-1.11-.26-1.67a.4.4,0,0,1,.4-.5l7.63-1.14,5.08-.77c.54-.08.68,0,.75.54S151.2,155.91,151.26,156.33Z" transform="translate(-15.77 -10.49)"/>
    <path d="M147.29,133.68h-.08a6,6,0,0,1-.41,2.37,2.09,2.09,0,0,1-1.73,1.32,6.42,6.42,0,0,1-2.31-.16,13.67,13.67,0,0,1-4.88-2.1,5.55,5.55,0,0,1-.95-.86,1.71,1.71,0,0,1-.31-1.63,6.59,6.59,0,0,1,1.88-3.14,12.72,12.72,0,0,1,4.7-3.08,1.42,1.42,0,0,1,2,.6,9.92,9.92,0,0,1,1.69,3.93C147,131.85,147.14,132.77,147.29,133.68Zm-.34-.13a15.67,15.67,0,0,0-1-4.9,4.9,4.9,0,0,0-1.07-1.7,1.23,1.23,0,0,0-1.47-.33,11.69,11.69,0,0,0-6.12,5.21,1.82,1.82,0,0,0,.56,2.73,17.54,17.54,0,0,0,2.34,1.35A10.93,10.93,0,0,0,144.3,137c1.27.06,2-.31,2.32-1.55A15.4,15.4,0,0,0,147,133.55Z" transform="translate(-15.77 -10.49)"/>
    <path class="cls-1" d="M145.92,126.51a14.73,14.73,0,0,1-4.16,19.33l0,0c-.48-.8-.48-.81.3-1.39a3.18,3.18,0,0,0,1.17-1.32,2.32,2.32,0,0,0-.31-2.35,6.13,6.13,0,0,0-2.62-2,1,1,0,0,1-.24-.11,1.12,1.12,0,0,0-1.78.27c-.62-1.28-1.24-2.54-1.86-3.8l-.08,0c.22.5.44,1,.65,1.51,2,4.62,4.34,9.11,6.58,13.63.24.47.49.94.71,1.42a7.35,7.35,0,0,0,1.57,2.21c.07.06.12.14.23.26l-1.55.24c-.87.13-1.75.25-2.62.39-.28,0-.47,0-.54-.33a3.58,3.58,0,0,0-.41-1c-1.7-3.24-3.4-6.49-5.14-9.72-1.12-2.07-2.3-4.11-3.46-6.16a.33.33,0,0,0-.2-.16l1.92,3.67-.32-.05a.91.91,0,0,0-1,.43,3.68,3.68,0,0,0-.46,1.72,5.6,5.6,0,0,0,.53,3.09,2.24,2.24,0,0,0,2.15,1.35,13.28,13.28,0,0,0,1.78-.2c.61-.11.6-.14.81.49a14.78,14.78,0,1,1,8.37-21.43Zm1.29,7.18h.08c-.15-.91-.25-1.83-.44-2.74a9.92,9.92,0,0,0-1.69-3.93,1.42,1.42,0,0,0-2-.6,12.72,12.72,0,0,0-4.7,3.08,6.59,6.59,0,0,0-1.88,3.14,1.71,1.71,0,0,0,.31,1.63,5.55,5.55,0,0,0,.95.86,13.67,13.67,0,0,0,4.88,2.1,6.42,6.42,0,0,0,2.31.16,2.09,2.09,0,0,0,1.73-1.32A6,6,0,0,0,147.21,133.69ZM140,123.56a1.88,1.88,0,0,0-.52-2.07,7.07,7.07,0,0,0-1.73-1.13,11.71,11.71,0,0,0-5.64-.89,8.1,8.1,0,0,0-1.94.42c-.85.29-1.12.77-1.12,1.75a12.54,12.54,0,0,0,1,4.23,8.67,8.67,0,0,0,2.21,3.43c1.33,1.15,2.07,1,3.24.28l.14-.1a13.28,13.28,0,0,0,3.11-3.28A8.53,8.53,0,0,0,140,123.56ZM134,135.41a1.61,1.61,0,0,0,.57-2.26h0a2.17,2.17,0,0,0-.25-.45,1.69,1.69,0,0,0-2.31-.17,1.76,1.76,0,0,0-.35,2.39A1.78,1.78,0,0,0,134,135.41ZM130.8,140a6,6,0,0,0-.23-2.79,1.74,1.74,0,0,0-1.41-1.26c-.51-.09-1-.13-1.59-.2s-1.21.16-1.83.25c-.27,0-.54.11-.82.14a8.27,8.27,0,0,0-3.82,1.48,2,2,0,0,0-.86,2.3,6.79,6.79,0,0,0,.58,1.54,12.05,12.05,0,0,0,4.12,4.39,7.92,7.92,0,0,0,1.82.84,1.35,1.35,0,0,0,1.59-.51A12.6,12.6,0,0,0,130.8,140Zm-1.8-7.14a1.92,1.92,0,0,0,.78-2.13,9.32,9.32,0,0,0-.38-1.2,18.25,18.25,0,0,0-2.28-3.85,6.64,6.64,0,0,0-1.82-1.72,1.91,1.91,0,0,0-2.19,0,6.91,6.91,0,0,0-1.44,1.2,12.38,12.38,0,0,0-2.48,4.65,6.24,6.24,0,0,0-.33,2.71,1.49,1.49,0,0,0,1.09,1.32,13.51,13.51,0,0,0,3.57.57c.8-.08,1.61-.13,2.4-.26A6.55,6.55,0,0,0,129,132.84Z" transform="translate(-15.77 -10.49)"/>
    <path d="M139.46,121.49a1.88,1.88,0,0,1,.52,2.07,8.53,8.53,0,0,1-1.29,2.64,13.28,13.28,0,0,1-3.11,3.28l-.14.1c-1.17.77-1.91.87-3.24-.28a8.67,8.67,0,0,1-2.21-3.43,12.54,12.54,0,0,1-1-4.23c0-1,.27-1.46,1.12-1.75a8.1,8.1,0,0,1,1.94-.42,11.71,11.71,0,0,1,5.64.89A7.07,7.07,0,0,1,139.46,121.49Zm.34,1.76a1.72,1.72,0,0,0-.34-1.59,4.59,4.59,0,0,0-2.17-1.28,12.36,12.36,0,0,0-3.66-.59,8.67,8.67,0,0,0-3.3.43,1.15,1.15,0,0,0-.88,1.31,12.19,12.19,0,0,0,1.26,4.91,7.29,7.29,0,0,0,2.09,2.82,1.72,1.72,0,0,0,2.21.12c.16-.11.34-.21.5-.33a13.05,13.05,0,0,0,2.78-2.87A7.87,7.87,0,0,0,139.8,123.25Z" transform="translate(-15.77 -10.49)"/>
    <path class="cls-2" d="M134.61,133.15a5.11,5.11,0,0,1,.06.95,1.48,1.48,0,0,1-1.34,1.3,1.51,1.51,0,0,1-1-2.78,1.57,1.57,0,0,1,1.9.16l.37.37Zm-1.06.72a.45.45,0,0,0-.89,0,.45.45,0,1,0,.89,0Z" transform="translate(-15.77 -10.49)"/>
    <path d="M134.67,134.1a5.11,5.11,0,0,0-.06-.95h0a1.61,1.61,0,0,1-.57,2.26,1.78,1.78,0,0,1-2.34-.49,1.76,1.76,0,0,1,.35-2.39,1.69,1.69,0,0,1,2.31.17,2.17,2.17,0,0,1,.25.45l-.37-.37a1.57,1.57,0,0,0-1.9-.16,1.51,1.51,0,0,0,1,2.78A1.48,1.48,0,0,0,134.67,134.1Z" transform="translate(-15.77 -10.49)"/>
    <polygon points="118.84 122.67 118.84 122.66 118.84 122.66 118.84 122.67"/>
    <path d="M133.12,133.42a.45.45,0,0,1,.43.45.45.45,0,1,1-.89,0A.45.45,0,0,1,133.12,133.42Z" transform="translate(-15.77 -10.49)"/>
    <path d="M130.57,137.19a6,6,0,0,1,.23,2.79,12.6,12.6,0,0,1-2.45,6.18,1.35,1.35,0,0,1-1.59.51,7.92,7.92,0,0,1-1.82-.84,12.05,12.05,0,0,1-4.12-4.39,6.79,6.79,0,0,1-.58-1.54,2,2,0,0,1,.86-2.3,8.27,8.27,0,0,1,3.82-1.48c.28,0,.55-.1.82-.14.62-.09,1.24-.18,1.83-.25s1.08.11,1.59.2A1.74,1.74,0,0,1,130.57,137.19Zm.15,1.37c-.05-.24-.12-.7-.25-1.14a1.68,1.68,0,0,0-1.57-1.27c-.28,0-.57-.06-.86-.07a13.64,13.64,0,0,0-3.86.55,8.41,8.41,0,0,0-2.8,1.26,1.68,1.68,0,0,0-.75,1.81A5.91,5.91,0,0,0,121,141a12,12,0,0,0,3.4,4,7.15,7.15,0,0,0,2.13,1.25,1.19,1.19,0,0,0,1.6-.45,10.55,10.55,0,0,0,1.54-2.66A12.16,12.16,0,0,0,130.72,138.56Z" transform="translate(-15.77 -10.49)"/>
    <path d="M129.78,130.71a1.92,1.92,0,0,1-.78,2.13,6.55,6.55,0,0,1-3.08,1.24c-.79.13-1.6.18-2.4.26a13.51,13.51,0,0,1-3.57-.57,1.49,1.49,0,0,1-1.09-1.32,6.24,6.24,0,0,1,.33-2.71,12.38,12.38,0,0,1,2.48-4.65,6.91,6.91,0,0,1,1.44-1.2,1.91,1.91,0,0,1,2.19,0,6.64,6.64,0,0,1,1.82,1.72,18.25,18.25,0,0,1,2.28,3.85A9.32,9.32,0,0,1,129.78,130.71Zm-1.31,2.09a1.83,1.83,0,0,0,1-2.41,11,11,0,0,0-1.89-3.88,10.51,10.51,0,0,0-2.05-2.11,1.91,1.91,0,0,0-2.61,0,5.77,5.77,0,0,0-.85.79,12.43,12.43,0,0,0-2.31,4.22,7.26,7.26,0,0,0-.45,2.77,1.11,1.11,0,0,0,.94,1.19,13.86,13.86,0,0,0,3,.53c.8-.07,1.6-.1,2.4-.2A6.71,6.71,0,0,0,128.47,132.8Z" transform="translate(-15.77 -10.49)"/>
  </g>
</svg>
