<?xml-stylesheet type="text/css" href="../../css/style.css" ?>

<svg id="Layer_1" data-name="Layer 1" xmlns="http://www.w3.org/2000/svg" viewBox="0 0 912.56 951.11" 
  xmlns:xlink="http://www.w3.org/1999/xlink">
  <defs>
    <style>
      .hokkaido {
        fill: #1f3566;
      }
    </style>
  </defs>
  <title>japan-full-map</title>
  <g>
    <a href="/shikoku.html" target="_top">
    <g id="tohoku-kids">

      <path class="hokkaido" d="M774.68,89.82a13.49,13.49,0,0,1,.13,1.4c-.06,3.7,1.8,6.18,4.94,7.88a20.34,20.34,0,0,0,7,2,90.45,90.45,0,0,0,12.08.62,12,12,0,0,0,8-3c3.27-2.71,6.16-5.79,9.36-8.54,2.42-2.09,5.22-3.71,7.83-5.58a9.84,9.84,0,0,0,2-1.86c1.86-2.39,3.64-4.85,5.8-7.76.39,1.87,1.11,3.27.86,4.47a11.91,11.91,0,0,1-3.65,6.79,6.25,6.25,0,0,0-2.12,3.88,8.1,8.1,0,0,1-1.81,3.69C823.12,96,821,98.2,820,101.26c-.3,1-.52,2-.79,3s-.25,2.07-.83,2.64c-2.18,2.11-1,4.2-.1,6.18a51.07,51.07,0,0,0,3.13,5.14,4,4,0,0,0,.39.59c3.61,3.81,4.86,6.18,6,11.33.22,1,.32,2.1.64,3.1a32.91,32.91,0,0,0,1.4,3.18,12.13,12.13,0,0,0-1.93.27c-.5.16-1.21.44-1.32.82a2.26,2.26,0,0,0,.46,1.57c.23.38.84.92,1.08.83,1.75-.63,2.54.66,3.55,1.59,2.19,2,4.89,2.12,7.61,1.85a5.09,5.09,0,0,0,2.5-1.21c2.34-2,4.56-4.06,6.89-6a3.06,3.06,0,0,1,1.81-.61c1.87,0,3.75.17,5.69.28a3.15,3.15,0,0,1-2.5,1.69,19.12,19.12,0,0,0-5.79,1.48c-1.72.92-3.85,1.82-4.27,4.23a9,9,0,0,1-.5,1.68,3.65,3.65,0,0,1-3.77,2.61,87.45,87.45,0,0,0-8.84.69,6,6,0,0,0-3,.94,3.3,3.3,0,0,1-3.85.64c-1.39-.57-3.23.92-3.65,2.59a8.71,8.71,0,0,1-3.56,5.26c-1.57,1.12-2.49,3-4.89,2.26a27.12,27.12,0,0,0-3.89-.42c1.72-.71,3.28-.14,4-1.63.42-.9.62-1.66-.28-2.12-1.34-.69-2.8-1.16-4.2-1.72-.92,2.06-3.38.68-4.56,2a42.6,42.6,0,0,0-3,3.94,1.29,1.29,0,0,0,.35,1.87c.27.24.32.73.47,1.11-.34.09-.71.33-1,.25-4.34-1.12-8.75-.53-13.13-.63-1.74,0-3.34-.5-4.25-2.11a2.87,2.87,0,0,0-2.62-1.47,20.24,20.24,0,0,0-8.76,1.14,55.23,55.23,0,0,0-19.51,12.12c-2,2-4.2,3.87-6.42,5.67A69.4,69.4,0,0,0,727,200.41a35.77,35.77,0,0,0-2.16,6.33,2.54,2.54,0,0,0,.27,1.69c1.47,2.88.36,5.74-.06,8.57-.27,1.81-.64,3.67-2.3,5-.64.52-.71,1.71-1.11,2.56-.53,1.16-1.45,1.4-2.15.3-2.33-3.7-6.1-5.35-9.55-7.64-2.92-1.94-5.67-3.21-9.09-3.17a1.69,1.69,0,0,1-1-.25c-2.28-1.73-5.28-2.09-7.53-3.54-2.82-1.83-5.9-2.91-8.78-4.47-5.79-3.11-12-5.72-16.29-11-1.29-1.56-3.19-1.83-4.82-2-3.08-.29-5.33-1.79-7.48-3.72-2.76-2.47-5.71-4.57-9.46-5.35-2.4-.5-4.74-1.63-7.14-1.73a14.72,14.72,0,0,0-5.67,1c-4.71,1.82-9.44,3.73-13.51,6.88-2.7,2.09-5.64,3.81-8.53,5.63-2.63,1.66-4.59,4.41-6.82,6.71-.85.88-2.66.74-2.82-.42-.35-2.5-2.74-4-2.94-6.57a2.87,2.87,0,0,0-2.1-2.2,7.72,7.72,0,0,1-3.53-3.31c-2.89-4.3-5.21-5-9.2-3.93a5.51,5.51,0,0,1-3.43,0,6.48,6.48,0,0,0-7.42,1.86,33.78,33.78,0,0,0-7.19,13c-.55,1.74-.23,3.78-.2,5.69a2.68,2.68,0,0,0,2.56,2.57c3.08.36,5.1,2.27,7.17,4.23.69.65,1.48,1.2,2.21,1.8a6.45,6.45,0,0,0,6.85,1.38c1-.36,2.15-.26,3-.72,1.51-.78,2.61.12,3.42.9,1.11,1.08,1.77,2.62,2.73,3.87a8.36,8.36,0,0,0,2.25,2.19,9.8,9.8,0,0,1,4.08,4.33,6.61,6.61,0,0,0,5.33,3.7c2.82.43,5.25,1.12,6.53,4,.1.24.59.35.92.45.89.26.48.51,0,.72a4.53,4.53,0,0,1-1.65.55,3.1,3.1,0,0,0-2.88,1.77,5.58,5.58,0,0,1-4.43,2.56,3.61,3.61,0,0,1-2.32-.47c-2.91-2.09-6.3-2.55-9.68-3.07-.86-.13-1.5-.19-2-1.13-.86-1.81-2.56-2-4.3-1.73-1,.14-1.85.59-2,1.74-.43,4.17-3.85,5-6.92,6-2.22.76-3,1.25-3.11,3.6-.1,1.78,0,3.58-.06,5.37a2.37,2.37,0,0,1-2.25,2.62,41.29,41.29,0,0,0-5.69,1.9c-1.59.53-1.79,2.12-2.51,3.29-1.12,1.85-1,1.81-3,1a7.21,7.21,0,0,0-2.74-.46c-2.24,0-3.5-1.23-4.26-3.16a13.16,13.16,0,0,0-.67-2c-2.07-3.5-1.16-7-.12-10.53a10.47,10.47,0,0,1,1.37-2.05c.92-1.49,2.37-2.73,2.16-4.76-.1-1,.78-.38,1.09-.57.64-.41,1.5-1.16,1.51-1.78,0-3,1.64-5.89.39-9.09a19.57,19.57,0,0,0-1.58-3.83,39.87,39.87,0,0,0-3.08-4.72,5.2,5.2,0,0,0-3.25-1.81,4.35,4.35,0,0,1-4.31-3.06c-.84-2-2.13-3.34-4.37-3.48a1.46,1.46,0,0,1-1.59-1.49c-.09-.81-.32-1.6-.47-2.41a3.92,3.92,0,0,1,1-3.84,9.3,9.3,0,0,0,2.49-9.09c-.29-1.13-.06-2.39-.31-3.54-1-4.48,1.57-7.94,6.14-8.2a7.63,7.63,0,0,1,1.07,0c2.1.16,4.05,0,5.27-2.09a2.12,2.12,0,0,1,1.15-.78,4.92,4.92,0,0,0,3.45-3.66c.41-1.58,1.5-1.72,2.51-.33.8,1.11,1.35,2.08,3,1.86,1.25-.16,2.12-.49,2-1.89a3.25,3.25,0,0,1,1.77-3.55A2.83,2.83,0,0,0,570,168c1.31-3.16,4-4.85,6.81-6.34a8.27,8.27,0,0,0,1.25-.67,2.76,2.76,0,0,0,.51-3.76c-1.1-1.54-2.2-3.07-3.32-4.59a16.83,16.83,0,0,0-4.25-4.25c-2.45-1.6-2.76-2.81-1.85-5.7.18-.57.36-1.13.49-1.71.32-1.42.92-2.3,2.65-2.05s3.3-.36,3.61-2.48c2.41,1.62,5.32,2.81,7,4.95a8.29,8.29,0,0,0,4.86,2.9c1,.28,2.34.75,2.72,1.53,1.29,2.63,3.41,1.7,5.28,1.49a19.58,19.58,0,0,0,6.28-2.23c1.11-.54,1.7-.4,1.14.86A1.37,1.37,0,0,0,604,148c2.5,1.06,5,2,7.59,2.9a2.77,2.77,0,0,0,1.65-.35,59.88,59.88,0,0,0,5.49-2.44c.75-.41,1.23-1.34,1.83-2,1.46-1.7,3-3.34,4.37-5.12,2.34-3,2.35-6.33.81-9.72a5.17,5.17,0,0,0-.65-1.26c-1.93-2.18-2.39-4.46-.9-7.12.28-.52-.17-1.53-.43-2.25-.64-1.76-1.39-3.48-2-5.24a2,2,0,0,1-.05-1.41c1.22-2.63,2.09-5.53,5.41-6.48a52.61,52.61,0,0,0,5.93-2.17,9.37,9.37,0,0,0,4.91-5.76,21.58,21.58,0,0,0,.87-6.65c.12-3.69,0-7.39,0-11.08a1.87,1.87,0,0,0,0-.71c-1.61-3.78.71-6.76,2.63-9.27s2.35-5.09,3-7.8c.4-1.6.51-3.26.84-4.88,1.4-6.86-.44-13.37-2.58-19.71-1.54-4.57-3.88-8.86-5.86-13.28-.87-1.95-1.7-3.92-2.64-5.83-.62-1.27-.2-2.16.54-3.25a25.33,25.33,0,0,0,3-5.54c.44-1.23.06-2.77,0-4.16,0-.68-.23-1.35-.47-2.71,1.57,1.69,2.31,3.42,4.44,3.19,2.51-.27,4.93-.65,6.91-2.35a4.11,4.11,0,0,0,1.73-3A3.91,3.91,0,0,1,651.49.43c.69-.76,1.65-.45,2.26.46,2.36,3.52,4.74,7,8.67,9A8.18,8.18,0,0,1,665.23,12a127.9,127.9,0,0,0,14.52,15.54,25.64,25.64,0,0,1,7.1,10.27,2.46,2.46,0,0,0,.77,1.18c2.24,1.65,3.14,4.36,5,6.3,2.61,2.75,5.35,5.38,8.08,8,1.87,1.82,4.18,3.33,5.63,5.43,1.88,2.7,4.73,3.9,7.19,5.66,4.14,2.94,8.52,5.56,12.79,8.32.39.25,1,.48,1.1.81.45,2.4,2.64,2.84,4.25,3.93.78.53,1.88.92,2.25,1.66,1.06,2.11,3.1,2.08,4.77,2.08s2.9.78,4.3,1.26c.44.15.75.81,1,1.29,1,1.8,2,3.7,3.14,5.42,1,1.52,3,1.33,4.29.92,1.72-.53,3.19.09,4.76.16a2.16,2.16,0,0,1,1.46.7c.69.85,1.45.56,1.73,0,1.26-2.74,3.28-3.05,5.84-2.17a6,6,0,0,0,1.42.07c1,.09,1.11.76,1,1.53-.23,1-.56,2-.77,3.07-.33,1.65.61,2.51,2.24,2.21a4,4,0,0,0,3.65-3.72A2,2,0,0,1,774.68,89.82Z"/>
  
      <path class="Tohoku" d="M566.2,479.88a4.35,4.35,0,0,0,5.15.61c1.12-.53,2.91.58,3.59,1.87,1,1.91,1.45,2.4,3.2,1.75,2.5-.92,4.62.16,6.9.61,1.23.24,1.4.95,1.29,2.08-.33,3.48.6,4.56,4,4.61a11.87,11.87,0,0,0,3.14-.41c2.3-.59,2.26-.64,2.39-3a6,6,0,0,1,.41-2.37c.92-1.76,2.14-1.74,3.1,0a18.23,18.23,0,0,1,1.08,2.89c.35,1,.34,2.44,1,3,2.29,1.73,2,4,2.2,6.43.28,3.88.89,7.73,1.33,11.6a11.6,11.6,0,0,1,0,2.5c-.45,5.33-.61,10.69-2,15.91a24.23,24.23,0,0,0-.15,3.21c-.17,1.38-.52,2.75-.73,4.13a32.44,32.44,0,0,0-.62,4.87c0,1.32-.2,2.66-1.38,3-2.25.71-4,2.66-6.48,2.69a1.42,1.42,0,0,0-1.49,1.18c-.52,1.58-1.34,2.19-2.73,1.45-2.41-1.28-5.85-.59-7.31-3.74a1.28,1.28,0,0,0-1.24-.29,2.36,2.36,0,0,0-.85,1.33,2.29,2.29,0,0,0,.3,1.35c.59,1.19.63,2-1,2.31-.57.12-1,.86-1.52,1.34a14.21,14.21,0,0,1-2.21,2.18c-1.25.78-1.4-1.11-2.4-1.24-1.58-.21-2.67-.92-2.57-2.77,0-.28-.32-.82-.53-.83-1.57-.11-2.16-1.27-2.78-2.42-.11-.21-.31-.47-.5-.5-3-.56-2.6-2.81-2.58-4.93a4.44,4.44,0,0,0-.39-1.31c-3.08,1.38-1.89-2.91-3.91-2.94-1.81-3.38-5.44-3.44-8.47-4.54a11.78,11.78,0,0,0-4.51-.7c-2.66.13-5.61,0-6.55,3.55-.08.29-.7.55-1.1.62-4.28.81-7.74,3.35-11.48,5.29a13.11,13.11,0,0,1-3.14,1.64,6,6,0,0,0-4.36,2.59,3.34,3.34,0,0,1-3.85,1,6.31,6.31,0,0,0-1-.4c-1.37-.22-2.75-.4-4.12-.59,0-1.71.07-3.42.15-5.13,0-.8.51-1.76.21-2.37-.95-1.92-.75-3.8-.42-5.78s-.27-2.87-2.41-3.68c-1.8-.69-2.3-1.83-.92-3,1.72-1.49,1.85-3.52,2.4-5.38a3.27,3.27,0,0,0-.69-3.59c-1.17-1.17-.49-2.42,1.22-2.63,2.34-.29,4.69-.57,7.05-.74,1.08-.08,1.67-.31,1.93-1.55.4-1.86.54-1.72,2.49-1.5a39.79,39.79,0,0,0,5.35.13c1.26,0,1.56-.59,1.22-1.95-.49-1.93-1.07-3.83-1.5-5.77a1.64,1.64,0,0,1,.51-1.41c2.38-1,3.09-3.39,4.46-5.23a51.48,51.48,0,0,1,4.12-4.85c1-1.06,1.93-1.26,3.6-.49s4.07.44,6.11.25c.92-.08,1.45-.19,1.81.75a12.33,12.33,0,0,0,.8,1.58c.49.89,1,1.63,2.24,1s2.24-.18,3.38.34a7,7,0,0,0,3,.64c1.75-.06,3.49-.51,5.24-.62,1.58-.09,2.23-1.17,2.93-2.29s.73-1.75-.15-3.06-.46-3.36-.37-5.08A14.5,14.5,0,0,1,566.2,479.88Z"/>
      <path class="hokkaido" d="M410.54,616c.59-1,1.23-1.92,1.77-2.93.77-1.45,1.66-2,3.2-1.31,1.32.6,1.92.06,2.63-.82,1.53-1.9,3.12-3.75,4.64-5.66a11.19,11.19,0,0,0,1.72-2.64c.59-1.5,1-2.95-1.09-4-1.33-.66-1.52-2.1-.52-3.37a3.45,3.45,0,0,0,.72-3.58,2.75,2.75,0,0,1,.48-1.9c.54-.91,1.29-1.7,1.91-2.58,1.76-2.48,1.64-3.65-.57-5.82-1.35-1.32-1.46-1.62-.29-2.86a8.09,8.09,0,0,0,2.39-4.25,3.24,3.24,0,0,1,2-2.35,1.85,1.85,0,0,0,.45-1.45c-2.1-1.47-.16-1.95.67-2.23,1.52-.53,2.4-1.1,1.34-2.76,1.41-2.19.49-4.57.54-6.87,0-1.25.16-2.18,1.51-2.9,2.15-1.15,3.24-3.36,4.43-5.42.12-.2.35-.39.37-.6.08-.89-.8-1.9.79-2.52,1.19-.47,2,0,2.93.37s2.48-1.12,2.9.74a4.87,4.87,0,0,1-.39,2.95c-.52,1.12,0,1.46.8,1.93,1,.6,2,1.36,3.16.41.53-.43.8-1.16,1.3-1.64s1.09-.92,1.43-.8c3.09,1.15,5.57-2,8.61-1.2a3.17,3.17,0,0,0,.78-1.66c.06-1.14.33-1.76,1.62-1.79,1.48,0,1.78-1.23,2.16-2.44,1.13-3.64,6.15-4.42,9-3.84.35.07.7.58.87,1a4,4,0,0,1,.55,2c-.53,3.47,1.59,5.28,4.19,6.65,1.08.57,1.83.63,1.1,2.21-.39.85.48,2.2.55,3.34a2.1,2.1,0,0,1-1.84,2.56,38,38,0,0,0-5.43,1.5c-1.16.41-2.68.79-1.88,2.71.06.15-.36.74-.57.74-2.51,0-3.54,2.18-4.18,3.79-1.06,2.69-1.33,5.7-1.86,8.59-.22,1.19.36,1.9,1.46,2.52,3.14,1.74,5.06,2,8.32.71,2.2-.86,3.69.08,3.75,2.41a12.4,12.4,0,0,1-.05,2.86,3.83,3.83,0,0,1-1.12,2c-1.86,1.62-1.94,1.67-1.19,3.77.16.44.37.87.55,1.3.45,1.07.85,2.05-1,2.24-1.1.12-1.31.87-.67,1.8.2.29.55.57.58.88.09,1.28,2.58.35,2,2.36-.3,1,.41,2.4,0,3.38-.57,1.5.4,1.72,1.17,2.45a28.56,28.56,0,0,1,3.71,4.28c.49.69.66,1.62-1,1.76-.88.08-1.61,1.31-2.5,1.87s-1.86.83-1.93-.81a1.5,1.5,0,0,0-1.91-1.56c-1.89.29-4-1.28-5.71.62,0,0-.88-.64-.84-.72a1.55,1.55,0,0,0-.91-2.3,16.1,16.1,0,0,0-3.69-1.06c-.27-.05-.74.54-1,.92-.62,1-1.18,2.06-1.72,3.12-.75,1.45-1.56,2.56-3.49,1.63-.62-.29-1.33,0-1.66.91a32.65,32.65,0,0,1-1.55,3.21c-.76,1.43-1,2.67.86,3.48.18.08.24.75.15,1.08a1.46,1.46,0,0,1-.72.77c-1.77.84-1.55,2.13-.86,3.54a7.67,7.67,0,0,1,.07,6.16c-.44,1.33-2.48,1.14-2.22,2.92a20.14,20.14,0,0,1,.05,3.56,1.36,1.36,0,0,1-.4,1c-1.6,1.28-1.34,2.64-.2,4,.92,1.1.36,1.89-.64,2.18s-1.62,1.93-3.08,1.08c-.15-.09-.72.24-.88.51-1.17,2-3.36,2.48-5.06,3.67-1.52,1.06-3.23,1.68-4.58,3.2a4.21,4.21,0,0,1-5.39.75c-2-1.11-4.45-1.57-6.69.14-.54.41-2,.61-2.14.36-.6-1-2.05-1.66-1.05-3.33.63-1.07,0-2.76,1.74-3.43.34-.13.53-1.33.39-1.94-.26-1.13-1.13-2.32,1-2.44a2.76,2.76,0,0,0,0-1.43c-.5-1.09-.93-1.86.15-3.07.92-1-.06-3.55-1.25-4.7-.74-.71-1.79-1.51-1.88-2.36-.17-1.57-2.12-.81-2.16-1.95s.5-2,.55-3.06a2.13,2.13,0,0,0-.74-1.52,7.47,7.47,0,0,1-2.48-3.8,3.5,3.5,0,0,0-2-2.28C413.93,618.12,412.29,617,410.54,616Z"/>
      <path class="hokkaido" d="M544.74,459.51a18.38,18.38,0,0,1-2.65,3.11,7.75,7.75,0,0,1-5.7,1.54c-1.88-.21-2.84.49-2.85,2.27,0,2.2-.55,4.36-.37,6.56,0,.32.09.77-.08.95-2.42,2.55-1.69,6-2.46,9-.57,2.26,1.42,3.58,3.13,4.69.47.31,1.17.24,1.66.52.23.13.41.92.3,1-2.77,2-4.07,5.2-6.08,7.8a6.1,6.1,0,0,1-2.06,2,2.22,2.22,0,0,0-1.18,3.25c1.1,1.94.35,4.07,1.33,5.9l-6.82-.23a1.59,1.59,0,0,0-1.9,1.6c-.15,1.5-1,1.41-2.39,1.44-2.2,0-4.37.86-6.58,1.26-1.31.23-1.56,1.29-2.05,2.22a1.39,1.39,0,0,0,.82,2c.82.4,1.16,1,.86,1.67-.85,1.93-.92,4.13-2.5,5.82a3.5,3.5,0,0,0,1.07,5.38c2.34,1.4,2.56,1.57,1.93,3.47a6.27,6.27,0,0,0,0,3.41,26.22,26.22,0,0,1,.21,5.68c0,.38-.63,1-1.05,1.06s-1.46-.27-1.48-.49c-.16-2-1.94-2.65-3-3.9-1.15-1.42-1.51-1.43-2.58.18a5.72,5.72,0,0,1-4.89,2.93c-1.82.06-2,.4-2,2.17a5.34,5.34,0,0,0,.36,2.07c.43.94.12,1.22-.78,1.42a2.12,2.12,0,0,0-1.94,2.47,1.84,1.84,0,0,1-1.81,2.12c-.81,0-1.61.3-2.42.41s-1.06.46-.87,1.41a2.06,2.06,0,0,1-2.14,2.69c-1.19-.07-2.43-1.34-3.43.36-.16-.14-.47-.28-.48-.42,0-1.67-.06-3.33,0-5a2.13,2.13,0,0,0-1.33-2.18,14.82,14.82,0,0,1-3.64-3.16,4.69,4.69,0,0,1-.66-2.65c-.14-3.58-2-5-5.4-4.17-1.25.31-2.49.68-3.72,1.07a4.44,4.44,0,0,0-3,2.83c-.15.44-.27,1.11-.59,1.25-2,.88-3.65,2-3.74,4.44,0,.16-.42.47-.52.43-2.37-1.08-4.24,1.18-6.47,1a4,4,0,0,0-4.25,2,1,1,0,0,1-1.47.49c-.91-.43-.55-1-.56-1.66,0-1.1,1.35-2,.2-3.31-.94-1.05-2-1.07-3.21-1.16-.93-.08-1.82-.54-2.75-.61s-2.24-.24-2.93.25c-.53.38-.28,1.75-.52,2.64a10.54,10.54,0,0,1-4.72,6.39c-.35-1.72-.78-3.24-.94-4.79-.18-1.72-2.18-3-1.23-5,.08-.15-.52-.71-.89-.94-.68-.44-1.43-.77-2.66-1.41,2-.82,3.54-1.5,5.11-2.11,2.54-1,5.35-1.52,7.6-2.94,3.14-2,7-2.95,9.38-6.1a2.48,2.48,0,0,1,2.88-.89,7.69,7.69,0,0,0,7.26-1.55A83.66,83.66,0,0,0,466.4,523a14.88,14.88,0,0,1,5.83-4c2.88-.88,3.8-3.51,5-5.77a22.43,22.43,0,0,1,5.32-7,13.61,13.61,0,0,0,4.25-8.8c.81-7.33,5.45-10.91,11.67-13.27.22-.09.43-.22.65-.29,2.35-.71,3.29-3.45,6.25-3.68,2.17-.16,4.33-1.81,6.29-3.1a24.25,24.25,0,0,0,10.31-14.4,15,15,0,0,0,.1-4.64c-.3-5.29,2.23-9.56,4.82-13.84.44-.73.79-.5,1.39-.28,1.65.6,3.32,1.15,5,1.6a1.84,1.84,0,0,1,1.61,2c0,.95,0,1.9,0,2.85-.06,2.79.92,4.78,3.42,4.9C541.41,455.51,543,457.31,544.74,459.51Z"/>
      <path class="hokkaido" d="M360.88,650.59a8.68,8.68,0,0,1,.79-2.89c.64-1.06-.4-2.51,1-3.3.25-.14.29-.88.23-1.32a11.81,11.81,0,0,0-.68-3.39,14.65,14.65,0,0,1-1.67-5.46c0-.6-1.05-1.65-1.59-1.63-1.56,0-1.75-.84-1.93-2a10.19,10.19,0,0,0-1.91-2.82c-.59-.53-.86-1.08-.29-1.84a18.28,18.28,0,0,0,1.51-2.37,5.92,5.92,0,0,0,.82-2.23c.13-2.1.92-2.9,2.9-2.6a39,39,0,0,0,5.21.77,23.32,23.32,0,0,0,4.88-.68c2.87-.58,5.91,0,8.7-1.28.34-.16.89.17,1.35.25s.84.17.95,0a19.66,19.66,0,0,0,2.31-3.53c.27-.61-.14-1.53-.25-2.31a7.51,7.51,0,0,0-2.82-4.83c-1.77-1.47-1.93-4.19-.84-6.26a10.53,10.53,0,0,0,.84-3.32c.37-2.69,2.13-4.65,3.42-6.87,1.16-2,1.17-2-.66-3.6-.25-.23-.65-.7-.59-.79a10.16,10.16,0,0,1,2.35-2.94,5,5,0,0,1,3.29-.48c1.34.23,1.75,1.3,1.59,3-.12,1.29.4,1.86,1.4,1.35,2-1,3.88-2.32,4.67-4.59s2.71-4,4.45-5.68a1.39,1.39,0,0,1,1.3-.26c1.45,1.11,2.72.39,3.95-.3s2.14-.64,2.81.81a1.13,1.13,0,0,0,1.79.48,2.64,2.64,0,0,1,3.67.32c.48.45,1.49.9,1.94.68,2.85-1.38,4.31,1.54,6.56,2a6.79,6.79,0,0,1,2.56,1.7,2.49,2.49,0,0,1,.44,3.76,24.6,24.6,0,0,1-2.14,2.82c-1.06,1.14-1.79,2.19-.59,3.68.82,1-.32,1.41-.77,2-1.33,1.8-1.25,3.27.28,4.69.5.47,1.47,1,1.43,1.36-.14,1.14-.36,2.67-1.14,3.22-1.43,1-2.14,2.41-3.14,3.69a15.74,15.74,0,0,0-2.09,2.67c-.69,1.39-2-.65-3.12,0s-2.77.68-3.2,2.47c-.2.82-1,1.46-1.49,2.23-.85,1.47-.54,2.81,1,3,2,.28,3.21,1.8,5,2.39.74.25,1.26,1.3,1.76,2.07s.8,2.26,1.58,2.68c1.91,1,1.51,2,.52,3.35a1.4,1.4,0,0,0,.73,2.31c1.5.29,1.64,1.4,2.18,2.38a6.45,6.45,0,0,0,1.34,1.52c1.56,1.43,1.68,2.38.24,4.07-.78.92-.33,1.45.29,2.11.81.87.66,1.45-.6,1.6-.72.08-1.09.45-.75,1.19a14.57,14.57,0,0,1,.94,1.9,1.39,1.39,0,0,1-.23,1.24,68.87,68.87,0,0,1-7.72,5.84,1.39,1.39,0,0,1-1.84-.27c-1.15-1.48-3-1.73-4.39-2.74a2.88,2.88,0,0,0-3.91.24,21.87,21.87,0,0,1-2.06,1.32c-.43.29-.8.48-1.11-.14-.92-1.85-3-1.85-4.51-2.46-.72-.28-.93-.37-1.25-1.06a8.6,8.6,0,0,0-3.8-4.48,4.27,4.27,0,0,0-4-.13c-2.45,1.11-4.88,2.17-7.68,1.17-1.09-.38-1.73.44-2.21,1.35a32.6,32.6,0,0,1-3,5.55c-1.41,1.74-.47,3.8-1.34,5.54-.29.57.09,1.63-1,1.56a2.65,2.65,0,0,1-1.71-1c-1.26-1.69-2.36-3.49-3.55-5.23-.47-.68-1.15-1.06-1.62-.08-1,2-3.19,1.14-4.66,2-.14.09-.89-.57-1.1-1S360.82,651.92,360.88,650.59Z"/>
      <path class="hokkaido" d="M132.53,705.9c1.16-1.91-.11-3.87-1.13-5.81-.38-.74-.15-1.14.38-1.42,2.32-1.2,3.61-2.87,3.49-5.67a5.45,5.45,0,0,1,1.33-3.23c1-1.2-.12-2.62.52-3.51s2-1.18,2.92-1.87c.44-.33.63-1,1-1.47.52-.8.93-1.9,2.06-.44.18.22,1.26-.38,1.92-.38,1.23,0,2.65-1.33,3.72.43a2.32,2.32,0,0,0,1.14-.57c.85-1.18,1.89-.9,3-.69,2.53.45,5,.87,7.06-1.47a3.8,3.8,0,0,1,1.9-.71c.56-.13,1.32.08,1.71-.23.77-.61,2.32,0,2.44-1.6a2.22,2.22,0,0,0-2-2.53c-1.08-.3-1-.89-.34-1.5s1.12-1.21,1.67-1.19c2,.07,2.92-1.44,3.86-2.67,1.48-2,3.2-3.75,4.31-6,.42-.84,1.18-1.79,2.45-.46a3.08,3.08,0,0,0,3.89.39c.34-.18,1-.34,1.19-.17,1.3,1.51,2.77.82,4.24.47.56-.13,1.43-.33,1.68-.05,1.22,1.28,2.62.62,3.92.52a4.88,4.88,0,0,1,4.82,2.05c1.08,1.44,1.55,2.32.9,4.27a8.38,8.38,0,0,0,2.4,9.12,2.38,2.38,0,0,1,.84,3.06c-.81,2.13,0,4.21,1.1,6.07a2,2,0,0,1,.24,1.9,3.8,3.8,0,0,0,1.37,4.4c1.55,1.27,1.69,3.13,1.63,5,0,.54-.06,1.34-.4,1.56-2,1.27-2.76,3.26-3.46,5.34-.08.23-.54.58-.64.53-1.31-.69-3.35.07-3.77-2.46-.31-1.82-1.14-1.63-3-.51a27.78,27.78,0,0,1-5.78,2.51c-.89.3-1.59.37-2.23,1.3a4,4,0,0,1-4.49,1.76A7.53,7.53,0,0,0,174,711.3c-1.05.83-2.59,1-3.75,1.76-2,1.28-4,2.7-5.89,4.17-1.24,1-2.42,1.48-3.76.36-.76-.65-2,0-2.15-.19a11.82,11.82,0,0,1-2.47-3.66,11.22,11.22,0,0,0-3-4.33c-2.24-2.1-6.48-1.63-8.39.78a53.08,53.08,0,0,1-4,4.48,8.29,8.29,0,0,1-2.39,1.46,1.08,1.08,0,0,1-1.68-.69c-.32-.88-.71-1.74-1-2.64-.42-1.43-.66-2.95-2.22-3.68C132.05,708.5,133,707.21,132.53,705.9Z"/>
      <path class="hokkaido" d="M309.15,672.52c-.19.42-.66,1-.54,1.23.83,1.78.06,3.4-.29,5.08a4.09,4.09,0,0,0,.16,2c.17.54.78,1,.93,1.5.29,1,1.67,2,.26,3.07-.62.47-1.51.56-2.17,1-1,.68-1.49-.13-2.06-.66a1.81,1.81,0,0,0-2.22-.41c-1.74.7-3.61,1.07-5.38,1.71a3.66,3.66,0,0,0-2,1.32c-1.16,2.34-3.48,2.61-5.44,2.74a10.81,10.81,0,0,1-5.73-1.4c-3.44-2-6.55-4.52-10-6.55a10.28,10.28,0,0,0-4.73-1.17c-3.74-.13-7.5,0-11.25.13a5.38,5.38,0,0,0-2.5,1.05c-.55.36-.89,1.44-1.35,1.45a10.75,10.75,0,0,1-3-.65c-.09,0-.18-.32-.16-.48.31-2.34-1.27-3.75-2.77-5-1.21-1-1-1.92-.25-2.58,1.33-1.11,1.26-2,.38-3.32a3,3,0,0,1-.22-1.58,14.28,14.28,0,0,0,0-3.13c-.18-.76,0-1.23.53-1.39a2.6,2.6,0,0,0,2-2.14c.51-1.71,2.34-2.87,2.36-4.9,2.85-1.1,2.12-2.77.76-4.59-.18-.25-.32-.88-.2-1,.34-.26,1-.57,1.21-.42,1.73,1,2.91,0,4.1-1,1.37-1.11,2.34-2.36,1.39-4.3-.2-.41.16-1.06.1-1.58s-.13-1.56-.53-1.79a3,3,0,0,1-1.45-3,5.4,5.4,0,0,0-.55-1.61c-.75-2.08-1.53-4.15-2.23-6.25a14.58,14.58,0,0,1-.2-1.76c-.52-2.4-.53-2.4,1.51-3.3.22-.09.52-.13.64-.29,1.92-2.6,4.71-1.58,7-1.24a13.39,13.39,0,0,0,3.64,0c3-.36,6-.95,9,.2,1.06.4,1.51.93,1.06,1.74-.79,1.43.11,2.14.82,3.09s2.22,1.44,2.34,3c0,.3.86.6,1.37.76a1.73,1.73,0,0,0,1-.13c1.16-.44,2.29-1.93,3.48-.87.53.47,0,2,.09,3.12,0,.46.28.91.32,1.38.18,2.51-.67,3.19-3.11,2.55s-3.21-.19-3.35,2.44c0,.6.05,1.2,0,1.79a2.79,2.79,0,0,0,2,3.29c1.06.42,1.95,1.32,3,1.67,1.85.6,3.54,3.07,5.82.68.25-.26,1.15,0,1.68.19.13,0-.06.8.05,1.18a5.54,5.54,0,0,0,.65,1.37,11.37,11.37,0,0,1,1.08,1.68c.75,2,.87,2.23,2.65,1.65,1.2-.39,2.11-1,2.28,1,0,.27,1.16.79,1.43.62,1.44-.89,2.28.29,3.12.89a2.18,2.18,0,0,1-.12,3.75c-1.34.81-2.61,1.31-.93,3,.25.25.17.91.12,1.37-.21,2.33-.24,2.38,1.79,3.29a18.35,18.35,0,0,0,2.69.72Z"/>
      <path class="hokkaido" d="M456.41,628.65c.52,1.61,1.06,3.28,1.59,4.94a2.75,2.75,0,0,1,.17,1c-.19,1.51-.77,3.06-.56,4.51s.56,2.92-.5,4.32a2.11,2.11,0,0,0,0,1.64c.24.7,1,1,.68,2.16-.26.89,1.46,1.86,2.6,1.67.45-.07.85-.45,1.3-.55a1.61,1.61,0,0,1,2.19,1.22c.46,1.57.95,3.13,1.45,4.68a5.62,5.62,0,0,0,5.36,3.72c.85-.1,2.53-2,2.62-3.1a8.51,8.51,0,0,0,0-2.14c-.29-1.87-1.1-3.76.45-5.5.16-.18,0-.64,0-1a20.17,20.17,0,0,1,.22-3.4c.14-.61.8-1.1,1.23-1.65.45.46,1.06.84,1.32,1.38.43.92.92,1,1.86.76a1.44,1.44,0,0,1,1.93,1.13c.29,1.85,1.22,1.3,2.54,1.18,2.9-.27,5.6-1.8,8.6-1.28a6.83,6.83,0,0,1,4.73-1.11c.81,0,1.34.24,1.42,1.18.17,2.06.67,4-.91,6-1.29,1.61-.72,3.8.43,5.33,1.35,1.8,2.45,4.17,5.38,4-1.08,2.1-2.52,3.92-.32,5.91a1.31,1.31,0,0,1,.11,1.22c-.85,1.48.05,2.54.85,3.5,2,2.43,2.18,3.58,0,5.58a7.06,7.06,0,0,0-2.29,3.89c-.16.78-.49,1.9-1.06,2.15-2.23,1-2.59,3.27-3.89,4.87a26.41,26.41,0,0,1-4.77,4.62c-1.95,1.44-3.15.71-4-1.86a3.58,3.58,0,0,0-1.42-1.87c-1.18-.69-1.18-1.5-.45-2.31a4.65,4.65,0,0,0,.95-3.31c.1-2.57-.42-5.15.47-7.75.36-1.07-.43-2.48-.46-3.74-.07-2.55.17-2.66,2.72-3.11,1.24-.22,3-.42,3.49-1.24.83-1.36-.66-2.54-1.55-3.64a8.42,8.42,0,0,0-4.71-3,33.91,33.91,0,0,1-3.72-1.12,1.42,1.42,0,0,0-1.88.4,4.18,4.18,0,0,1-3.82,1.43,3.24,3.24,0,0,0-3.48,2.47c-.49,1.44-2,2.68-.8,4.42a13.16,13.16,0,0,1-2.29,2.51c-1.57,1-3.37,1.67-5,2.59-2.31,1.29-3.75,3.07-3.14,6a2.56,2.56,0,0,1-.53,1.87,28.7,28.7,0,0,1-3.58,3.73c-1.75,1.46-2.42,3.48-3.2,5.45-.68,1.71.57,2.72,1.62,4a9.6,9.6,0,0,1-1.86-.59c-4.42-2.48-9-4.13-14.21-3.74-.71.05-1.56-.19-2.12.11-3,1.61-5.91.3-8.88-.07-1.71-.21-1.79-2.54-3.6-2.4a3.38,3.38,0,0,1,.32-1.24c.77-1,.42-1.88.14-3s-.74-1.36-1.7-1.3a4.8,4.8,0,0,1-1.07,0c-.77-.1-1.8-.6-2.25-.28a4.61,4.61,0,0,0-1.82,2.52,2.69,2.69,0,0,0,1.42,3.17c.38.19.49.92.73,1.41-.32.11-.67.36-1,.32-.53-.09-1.43-.26-1.49-.55a32.88,32.88,0,0,1-.66-4.85c0-.54.54-1.13.49-1.67-.15-1.89,1-2.55,2.52-2.77a6.36,6.36,0,0,0,5.66-4.89,2.81,2.81,0,0,1,.91-1.48,4.16,4.16,0,0,0,2-4.21c-.08-1,1.19-2.44,2.22-3,2.38-1.38,2.52-4.09,4-6,.68-.84-.8-2.47.43-3.59.85-.78,2.07-.65,2.94-1.78a10.39,10.39,0,0,1,5.43-3.7c.45-.13,1.19-.17,1.29-.45.9-2.32,3.37-2.4,5-3.61,2.15-1.57,2.39-1.73,1.41-4.14-.4-1-1.08-1.77.64-2.31.4-.12.65-2,.32-2.86a3.31,3.31,0,0,1,.82-3.85C455.87,631.45,455.86,629.94,456.41,628.65Z"/>
      <g>
        <path class="Tohoku" d="M591.61,414.91c.63-1.36,1.36-2.71,1.88-4.13s.24-2-1.5-2.48c-1.27-.32-.62-.81-.53-1.42.16-1.23-.35-2.61,1.31-3.36,1.28-.57,1-1.48,0-2.15-.56-.38-1.41-.56-.46-1.42s.59-1.5-.27-2c-1.41-.83-2.8-1.64-3.43-3.28,0-.09-.26-.16-.25-.22a6.59,6.59,0,0,0-2.2-5.78c.48-1.26.6-3.08,1.51-3.65,1.84-1.16,2-3,2.24-4.55a6.38,6.38,0,0,1,2.19-3.85c2.42-2.21,3-4.59,1.6-7.57a2.55,2.55,0,0,1,.23-2.87c.34-.49.73-.94,1.05-1.45,1.15-1.81,1.2-2-.72-2.9-.89-.43-1.33-.8-1.3-1.78.05-1.46.38-1.67,1.88-1.08s2.42.13,2.42-1.29a14.93,14.93,0,0,0-.46-2.42c-.37-2.05-1.45-4.05-.35-6.23a2.19,2.19,0,0,0-.12-1.73c-.55-1.05.1-1.53.49-2.39a11.76,11.76,0,0,0,.76-5.09,3.54,3.54,0,0,1,1.14-2.42,10.32,10.32,0,0,1,2.44-1.83s.15.09.21.16c1.49,2,3.24.87,4.72.17s3-1,3.65-2.94c.31-.88,2.1-1.35,3.31-1.74a8.31,8.31,0,0,0,3.13-1.5,14.7,14.7,0,0,1,3.53-1.93c.23-.1.81.26,1,.55,1.13,1.44,2.21,1.49,3.61.27a11.07,11.07,0,0,1,2.56-1.15,2.22,2.22,0,0,1,2.78.33c1.79,1.5,4.14,1,4.72-1.3.74-2.87,3.26-2.34,5-3.28.21-.12.94.32,1.13.67,1.89,3.39,3.68,6.84,5.58,10.23a1.84,1.84,0,0,1-.18,2.22c-1.25,2-1.09,2.27,1.06,3.34a4.22,4.22,0,0,1,1.24.68,1.34,1.34,0,0,1,.09,1.07c-1.49.61-1.78,1.78-1.68,3.2s1,2.05,2,2.81a28,28,0,0,1,3.86,3.41,2.88,2.88,0,0,1,.39,2.59,3,3,0,0,0,.27,3.35c1.6,2.36,1.81,5.12,2,7.74a30.28,30.28,0,0,1-.9,7.34c-.19,1,0,1.37.9,1.36,1.81,0,2.11,1.31,2.2,2.61s.09,2.43,1.74,2.56c0,.48.07,1.2-.19,1.41a37.25,37.25,0,0,1-4.21,3c-1,.61-2,1-.91,2.39a2.21,2.21,0,0,1-.16,2.87,20.72,20.72,0,0,0-2.57,4.36,21.37,21.37,0,0,0-.78,4.84,2.38,2.38,0,0,0,.2,1.38c.52.89.51,1.41-.51,2-.27.15-.08,1.23,0,1.88,0,.26.26.5.41.75-2,.75-1.51,2.46-1.55,4a3.73,3.73,0,0,1-1.2,3.06c-.83.79-1,1.13-2.33,1a4.68,4.68,0,0,0-4.4,2.3c-.61,1.06-.87.73-1.65,0a3.05,3.05,0,0,0-2.7-.21,7.43,7.43,0,0,1-5.83.07c-1.17-.41-1.84.05-1.91,1.3,0,.71,0,1.43,0,2.14a6.49,6.49,0,0,1-1,3.67c-1,1.55-1.29,3.5-1.84,5.29-.22.74-.51,1-1.21.52a7.26,7.26,0,0,0-1.29-.61c-3.32-1.23-4.71-.79-6.95,2.27-.51.7-.85,1-1.65.37s-1.62-.92-2.41-1.42a2.49,2.49,0,0,1-1.26-2.91c.57-2.52-.43-3.6-3-3.35-.46,0-.93.42-1.35.34-1.83-.35-4,.45-5.29-1.7-3.34-.74-5.91-3.26-9.26-4C592,415.34,591.85,415.1,591.61,414.91Z"/>
        <path class="Tohoku" d="M602.29,328.7a3.4,3.4,0,0,0-2,3.66c.09,1.19,0,2.59-1.45,3.2-2,.83-2.14,2.64-2.35,4.4s.37,3.57-1.22,5c-.33.3-.24,1.13-.25,1.71,0,2.15-.12,4.31,0,6.45a40.87,40.87,0,0,0,.94,4.82,3.54,3.54,0,0,1-.85-.19c-1.33-.63-2.59-.72-3.45.66s-.13,3.08,1.43,4.12c.38.25.73.55,1.16.88l-1.11,1.52c-.64.87-1.76,1.73-1.78,2.61s1.21,1.69,1.64,2.65a4,4,0,0,1,.18,2.29c-.43,2.1-2.08,3.36-3.52,4.76-.39.39-1,.79-1.05,1.26a14.44,14.44,0,0,1-2.14,5.86,25.16,25.16,0,0,0-1.65,4.14c-.22.71.19.91.48,1.4.74,1.23,1.63,2.34,1.33,4.14-.25,1.48,1.41,2.48,2.52,3.48.51.46,1.53,1,1.46,1.35-.32,1.52,1.14,3,.15,4.4s-.83,3-.75,4.49a2,2,0,0,0,.75,1.46c1.72.76,1.1,1.73.84,3.14-.7,3.75-4,5.2-6.11,7.69-2,0-3.9,1.48-6,.28a18.08,18.08,0,0,0-1.95-.71c-1.34-.55-2.57-1.07-2.62-2.94a2.59,2.59,0,0,0-3-2.77,2.24,2.24,0,0,1-1.54-.68c-1-1.17-1.71-3.21-3.64-1-1.19-1.82-4,.38-5-2a1.38,1.38,0,0,0-1.23-.5c-1.87.41-3.08-1.06-4.63-1.54a2.74,2.74,0,0,1-1.28-1c-1.43-2-1.51-2-3.91-1.48a25.88,25.88,0,0,1-4.9.33c-.25,0-.78-.77-.72-.85,1.61-2.14.48-4.76,1.22-7.06.32-1,.51-1.78,1.67-1.95,1.38-.22,1.85-1.35,2.37-2.43,1.77-3.67,2.33-7.67,3.14-11.6,1-4.81.77-9.7.72-14.56a12.07,12.07,0,0,0-5.33-9.92,6,6,0,0,0-6.66-.22,15.81,15.81,0,0,1-4,1.14,1.06,1.06,0,0,1-.84-.51,36.85,36.85,0,0,1-1.73-3.78,20,20,0,0,1-.65-2.67c.78.28,1.59.53,2.35.86,2.81,1.25,5,.79,7.37-1.45,3.11-3,4.26-6.78,5.63-10.56.2-.56-.21-1.32-.22-2a4.31,4.31,0,0,1,.27-1.55c1.89.07,1.06-1.2,1.13-2.08.14-1.88.29-3.76.57-5.62.37-2.48-1.35-3.58-2.94-4.82-.24-.19-.55-.58-.49-.79s.48-.47.78-.54c.88-.22,2-.07,2.63-.58,1.24-1.08,2.14-1.17,3.39-.06a3.4,3.4,0,0,0,2.27.64c2.58-.13,5.2.63,7.76-.34.44-.17,1.1.34,1.63.29s1.75-.27,1.84-.63c.63-2.47,2.32-1.78,3.92-1.5a5.51,5.51,0,0,0,.71.07l-.13-.12c0,.35-.08.91.11,1,2,1.33,4.12,2.78,6.68,2.6,1.41-.1,2.81-1.28,3.91.65.12.22,1.32.19,1.64-.13,1.49-1.43,3.58-1.62,5.2-2.65,1.09-.69,2.59-.63,3.3-2.32.45-1.08,2.36-1.61,3.82-1.06A2.89,2.89,0,0,1,600.1,322c-.05.86-.05,1.56,1,2a2.32,2.32,0,0,1,1,1.65,19.93,19.93,0,0,1,.06,3.19Z"/>
        <path class="Tohoku" d="M573.65,320.93c-2.31-2.54-3.35-2.62-5.09,0-.69,1-1.18,1.14-2.21.72a2.3,2.3,0,0,0-1.75,0c-2.21,1.27-4.61-.37-6.84.54-.3.13-1-.4-1.36-.75-1.78-1.6-2.73-1.7-4.64-.36-.54.38-1,1-1.6,1.17-1.47.46-2.25-.13-2.31-1.66s0-3.1,0-4.65c-.07-2.31-.09-2.29-2.93-3.11-.27-.08-.66-.47-.64-.68,0-.42.23-1.1.51-1.18,2.24-.67,3.26-2.61,4.58-4.23a6,6,0,0,0,1.29-2.09c.32-1.28,1.39-1.52,2.29-2s1.67,0,2.44.68c1.08,1,2.19.19,3.27-.32,1.27-.59,2-2.48,3.87-1.67a14.25,14.25,0,0,0,2.5-2.92,33.84,33.84,0,0,0,2.85-17c0-.65-.58-1.26-.83-1.91-.09-.23-.11-.69,0-.78,1.74-1.23,1.6-3,1.59-4.83a1.53,1.53,0,0,1,0-.71c.25-.5.47-1.2.89-1.37s1.06.2,1.48.51a15,15,0,0,1,1.46,1.52c2.45,2.5,3.42,2.58,5.9.38.71-.63,1.32-1.67,2.38-1a30.79,30.79,0,0,1,3.22,2.73c.07.05.08.22,0,.32-1.47,4.56.46,8.88,1,13.29a30.73,30.73,0,0,0,.92,4.85,4.93,4.93,0,0,0,3.68,3.51,4.62,4.62,0,0,0,5-1.76c1.31-1.66,2.59-3.07,1.64-5.37a2.29,2.29,0,0,1,.16-1.55,24.1,24.1,0,0,1,1.21-2.38c1.88.92,3.68,1.94,4.75,3.93.28.51,1.21.65,1.77,1.05,1.15.81,2.3,1.64,3.38,2.56,1.71,1.45,2.62,1.58,4.31.05a14.55,14.55,0,0,0,2.66-3.3,17.08,17.08,0,0,0,2.17-7.43,15.64,15.64,0,0,1,1.4-5,4.47,4.47,0,0,0,0-4.06,14.45,14.45,0,0,0-3.76-5.54c-1.11-.93-1.94-1-3,0-.34.33-.81.72-.85,1.12-.27,2.59-2.8,2.62-4.26,3.82a1.46,1.46,0,0,1-1.34.14c-1.72-1-3.07-.49-4.56.59a6.2,6.2,0,0,1-3,.85,5.75,5.75,0,0,0-3.5,1.58,1.68,1.68,0,0,1-1.49.33,1.81,1.81,0,0,1-.77-1.44,43,43,0,0,1,1-5.53c.62-2.4,1.62-4.7,2.1-7.11a11,11,0,0,1,2.89-5.56,5.29,5.29,0,0,0,1.44-4.68,22.51,22.51,0,0,1,2,1.61,5.23,5.23,0,0,0,3.77,1.68,7.06,7.06,0,0,1,5.1,2.73,26.15,26.15,0,0,0,5.64,4.81,6.63,6.63,0,0,0,7.43-.08,14.52,14.52,0,0,1,1.86-1c.6-.28,1.24-.49,1.87-.72a15.76,15.76,0,0,1-.33,1.82c-1.47,5-2.94,9.94-2.75,15.26a87.87,87.87,0,0,1-.55,9.57c-.15,2,1.11,4.12-.07,6.16a.39.39,0,0,0,0,.35c1.81,2.66,1.32,5.87,2.13,8.77s1.63,5.66,2.39,8.51a5.3,5.3,0,0,0,3.9,3.76c2.32.52,3.6,2,5.16,3.41.72.62,1.48,1.21,2.61,2.12-1.46.53-2.34.8-3.18,1.15-1.08.45-2,.87-2.37,2.33-.42,1.75-1.67,2.23-3.16,1.35-2.65-1.57-4.86-.88-7,.9-.67.55-1.37.57-1.79-.22-.89-1.65-1.83-1.45-3.12-.41a25.84,25.84,0,0,1-3.57,2.19c-.69.38-1.5.56-2.19.95-1.59.89-4.11.51-4.4,3.19-1.65.82-3.29,1.68-5,2.42-.24.1-.93-.29-1.09-.61a5,5,0,0,1-.7-2.31,32.81,32.81,0,0,1,.69-4.16l-.12.12c.74-.06,1.49-.17,1.34-1.18a12.53,12.53,0,0,1-.47-2,3.51,3.51,0,0,0-1.54-3.21c-1-.76-1.13-2.43-1.77-3.63a1.67,1.67,0,0,0-1.16-.72,19.75,19.75,0,0,0-3.92,0c-.6.08-1.58.75-1.59,1.17,0,1.56-1.23,1.48-2.14,1.91-1.81.85-3.6,1.75-5.38,2.66-.55.27-.77.36-1.34-.26s-2.11-2-3-.91c-1.36,1.68-2.43.79-3.65.22s-2.68-1.36-4-2Z"/>
        <path class="Tohoku" d="M535.57,448.33a4.72,4.72,0,0,0,0-2.12c-.19-.55-.85-1.34-1.28-1.34-2.18.05-3.68-1.55-5.59-2.08a1.27,1.27,0,0,1-.77-2c1.48-2.8,2.51-5.8,5.33-7.84a17.61,17.61,0,0,0,7.14-11.42c.38-2.13,1.43-3.93,2-5.93s1.33-4.27,1.9-6.43c.53-2,1.25-2.7,3.25-2.18,1.57.41,2.83.81,4.19-.56.6-.6,1.65-.36,1.7.89s.75,1.47,1.79,1.8,1.86,1.35,2.89,1.79c.73.31,2.11-.16,2.41.27a3.16,3.16,0,0,0,2.65,1.47c.92.06,1.83.34,2.76.44a7.36,7.36,0,0,0,1.69,0c.34,0,.93-.35,1-.31,1.22,2.48,5.7,1.56,5.6,5.35,0,1.4,1.19,1.67,2,2.29s2.18.9,2.2,1.39c.08,2,2.47,2,2.83,3.41s.59,2.76,1.89,3.66c.17.11.21.67.09.9-.72,1.38-1.32,2.62-.52,4.32.45.95-.86,1.75-2.4,1.6-1.2-.11-1.92.52-1.66,1.62.19.79.72,1.5.91,2.3a6,6,0,0,1,.25,2.7c-.48,1.93-.14,3.48,1.51,4.58,1.09.73,1.08,1.4.17,2.2-.17.16-.38.28-.56.43-1.16.95,0,2.66-1.29,3.68-.94.73-2,1.5-1.93,3.12a4.25,4.25,0,0,1-1.47,2.61c-1.62,1.56-1.49,3.5-1.09,5.29a3.37,3.37,0,0,1-.54,2.89c-.8,1.16-2,2.24-2.3,3.53-.59,2.25-2.18,2.57-4,2.79a11.88,11.88,0,0,1-1.79,0c-1-.05-1.52.31-1.58,1.41-.2,3.82-.48,7.64-.7,11.46a5.22,5.22,0,0,0,.1,2.13c.4,1,.85,1.82-.14,2.83s-1.87,1.8-3.38,1.53a2.49,2.49,0,0,0-1.41,0c-2,.89-3.48.16-5.08-.94a3.07,3.07,0,0,0-2.26-.06c-1.4.43-2.26.13-2.78-1.29a6.1,6.1,0,0,0-1.24-2.06c-.31-.32-1.24-.54-1.49-.34-1.17,1-2.32.58-3.61.44s-2.5.71-3.46-.65c-2.5,1.31-3.51-2.07-5.78-1.87-.62.05-1.57-1.11-1.95-1.92-.3-.6,0-1.53.15-2.31.21-1.27.51-2.52.75-3.79s.16-2.35,1.49-3c.41-.2.87-1.17.71-1.49-1.08-2.15.72-4.34-.22-6.53-.39-.93.9-2.07,1.88-1.7,1.62.63,2.89.16,4.38-.5a10,10,0,0,0,4.48-4.38,2.14,2.14,0,0,0-.09-1.94,48.22,48.22,0,0,0-3.7-3.73c-.24-.23-.7-.53-.92-.44a2.87,2.87,0,0,1-3.65-1A6.2,6.2,0,0,1,535.57,448.33Z"/>
        <path class="hokkaido" d="M631,458.37c-2.45-1.25-4-2.64-4.3-5-.12-1.05-.6-1.24-1.54-1.49-2.21-.6-4.25-1.79-6.7-1.42a6.43,6.43,0,0,0-3.28,1,8.67,8.67,0,0,1-6.33,1.87c-1.57-.21-2.31.53-3,1.83-1,1.94-2.3,3.73-2.48,6.06-.05.75-.73,1.46-1.15,2.17a26.8,26.8,0,0,0-3.6,13.51c0,.95,0,1.9,0,2.86,0,1.77.35,3.66-2.35,3.95-.43,0-.92,1.23-1.08,2-.26,1.26.16,3-.54,3.73s-2.54.23-3.61.79c-1.31.69-2.09,0-2.88-.58a2.29,2.29,0,0,1-.65-1.77c.21-3.17-.13-3.46-2.93-4.48a12,12,0,0,0-6.78-.63,3.74,3.74,0,0,1-1.8-.46c.37-1.75-.42-2.33-2.07-2.46-1.23-.09-2.34-1.08-3.7-.12a2.87,2.87,0,0,1-2.06,0,3.51,3.51,0,0,1-2.27-4.75,1.57,1.57,0,0,1,1.13-.61c.58-.06,1.17.19,1.76.17,2.38,0,3.9-1.26,4.8-3.7a4.49,4.49,0,0,1,.94-1.89c2-1.67,2.2-3.77,1.54-6a2.19,2.19,0,0,1,.84-2.73c.58-.47.81-1.62,1.39-1.79,2.22-.66-.69-2.79,1.2-3.58a3.34,3.34,0,0,0,2.09-3.44,2.38,2.38,0,0,1,.71-1.43c1.35-1.5,1.58-2,.34-3.46s-1.81-2.9-1.2-4.79a2.77,2.77,0,0,0-.1-1.75c-.47-1.18-1.7-2.4,1-2.55.51,0,1.1-1.48,1.33-2.35s1.37-1.67-.06-2.46c-.14-.08-.07-.78.09-1.11.34-.75.85-1.42,1.2-2.16a1.07,1.07,0,0,0-.65-1.68c-.47-.19-1.16-.67-1.16-1a4,4,0,0,0-1.62-3c-.87-.79-.25-1.19.44-1.53.42-.21.93-.62,1.29-.52,2.85.76,4.27-1.5,5.92-2.93,2.09-1.8,3.51-2.18,5.89-.86,1.13.62,2.33,1.1,3.51,1.63a10.43,10.43,0,0,0,1.95.84c1.3.31,1.1,2.52,2.91,2.17a34.23,34.23,0,0,1,3.51-.38,4.35,4.35,0,0,1,3.28.64c-.25.46-.52.92-.77,1.39s-.61.91-.49,1.09c.7,1.06,1.34,2.5,2.37,2.93a7.53,7.53,0,0,1,3.4,2.15c.23.29,1.34.12,1.9-.15s.63-.94,1-1.38c2-2.33,4.39-2.58,6.66-.69.42.34.9,1.06,1.2,1a4.27,4.27,0,0,0,1.67-1.08c-.77-1.4,1.05-1.79,1.06-3a8,8,0,0,1,1.52-5.18c.6-.77.26-2.39.09-3.59-.15-1,.16-1.44,1-1.29a35.79,35.79,0,0,1,4.78,1.16,2,2,0,0,1,1,1.29c.28,1.08.25,2.23.55,3.3a2,2,0,0,1-1.23,2.81,39.47,39.47,0,0,0-4.44,2.92,2.2,2.2,0,0,0-1,3.06c.69,1.25.14,2.22-.15,3.37-.44,1.66-2.1,3.45.1,5.1a1.45,1.45,0,0,1-.33.63,4.16,4.16,0,0,0-1.33,3.87,2.8,2.8,0,0,1-1.53,2.88c-1.91,1.36-1.9,2.37.15,3.44a2.45,2.45,0,0,1,1.37,2.59c0,1.59-.43,3.31,1.68,4.23C630.81,455.66,630.73,457.13,631,458.37Z"/>
    
      </g>
      <path class="kyushu" d="M71.76,851.53c1.22.29,2.26.35,3-1.07a3.26,3.26,0,0,1,3.61-1.59,3.14,3.14,0,0,0,1.73-.29,2.07,2.07,0,0,0,.61-3.21c-.13-.19-.45-.29-.5-.48a2.83,2.83,0,0,0-2.06-2.13A19.2,19.2,0,0,0,80.25,841c1.37-1.52,1.39-2.73.33-4.79a5.61,5.61,0,0,1-.57-1.64,2.76,2.76,0,0,0-1.49-2.24c-2.32-1.22-2.13-3.43-1.82-5.54.14-.92.75-1.75.93-2.67.24-1.28.83-1.82,2.16-1.71,1.66.14,2.41-.79,2.37-2.38a3.13,3.13,0,0,1,2.07-3.38c.34-.13.59-.63.78-1s.2-1,.5-1.31c.93-1,2.19-1.77,2.88-2.9s.55-2.54,1.09-3.68A2.55,2.55,0,0,1,93.2,807c1.89,1.77,3.51,1.12,5.35.1,1.58-.88,3.13-.15,3.14,1.66,0,1,.24,1.85,1,1.94,1.09.13,2.11,1.52,3.29.33s2.39-.84,3.69-.69c3,.33,3.52.16,4.71-2.71.45-1.09,1-1.12,1.9-.91a24.68,24.68,0,0,0,2.41.54c1,.14,1.57.45,1,1.6a2.07,2.07,0,0,0-.21,1.37c.7,2.4-.49,3.87-2.42,4.86a3.34,3.34,0,0,0-2,3.06,2.78,2.78,0,0,1-2.14,2.82c-2,.67-2.42,3.73-1.19,6.07.2.39,1.68.72,0,1.06-2,.4-2.86,1.44-2.78,3.67a9.24,9.24,0,0,1-1.3,4.62c-1.79,3.15-2.5,6.59-3.42,10-.81,3-1.46,6.13-3,9-.91,1.72-.83,4-1.21,6-.46,2.42-1,4.84-1.4,7.27-.1.57-.26,1.47,0,1.74,2.68,2.42.3,5.14.51,7.69.07.85-.62,1.62-.17,2.69.23.56-.56,1.72-1.13,2.38-2,2.26-3.72,4.53-3,7.8-1.17,1.48,0,3.72-1.82,5.14a5.5,5.5,0,0,1-2.72,1.39c-1,.11-2.07.18-1.43-1.48.13-.32-.24-1-.59-1.3a17.16,17.16,0,0,0-2.72-1.51c-1.25-.59-1.53-1.08-.54-2.07,2.36-2.34,1.54-4.91.79-7.49-.43-1.46-1.2-2.14-3.07-2-1.59.09-3.27-.92-4.87-1.56-.33-.14-.58-.73-.69-1.16-.26-1-.8-2.2-.52-3.09.51-1.64-1.61-.93-1.36-1.72.49-1.57-.44-1.49-1.45-1.68a4.09,4.09,0,0,1-1.87-.88c-.68-.59-2.19-.24-2.11-1.55.07-1.08-.48-2.41.87-3.23a1.15,1.15,0,0,0,.14-1.11c-1.08-1.32-1.75-3.06-3.77-3.4a3.4,3.4,0,0,1-2.74-3c-.3-1.88-1.59-2.81-2.83-3.91-.38-.34-.93-.84-.9-1.23.06-.94.93-.87,1.65-.89a16.69,16.69,0,0,0,3.55-.16c1.23-.32,2.78.34,3.72-1.23C69.83,851.43,71,851.61,71.76,851.53Z"/>
      <path class="hokkaido" d="M229.33,702.47c-1.93-.88-3.85-1.87-6-.66a1.6,1.6,0,0,1-1.21-.4c0-2.23-2.53-1.79-3.35-3.27-.27-.49-2.3-.46-3.23,0-1.51.72-2.72,2.06-4.18,2.95a10.24,10.24,0,0,1-3.27,1.26,2.18,2.18,0,0,1-2.62-2.28c.14-2.51-.4-4.6-2.53-6.21a2.18,2.18,0,0,1-.64-2.52,3.6,3.6,0,0,0-.07-2.73c-1.63-2.23-1.51-4.62-.89-7a2.13,2.13,0,0,0-.71-2.49A7.7,7.7,0,0,1,198,670a3.56,3.56,0,0,0-.86-3.91c-1.26-1.34-.67-2.79,1.21-3.51.77-.29,1.56-.53,2.33-.82s1.79-.43,2.18-1-.2-1.48-.16-2.23a1.24,1.24,0,0,1,.78-.87c1.61-.32,3.24-.57,4.87-.77.92-.12,1.24-.46.89-1.39-.43-1.11-.5-2,1.1-2.34.58-.13,1.14-1.12,1.39-1.83a18.15,18.15,0,0,0,.22-2.48c.28-1.43,1-1.78,2.46-1.41a19.16,19.16,0,0,0,3.76.82,6.38,6.38,0,0,1,5.07,2.8c1.63,2.2,2.21,2.13,3.68-.24a4.2,4.2,0,0,1,1.14-1.08c.82-.6,1.73-1.07,2.51-1.72,1.32-1.1,1.21-1,2.91.41a5.63,5.63,0,0,0,2.88,1.18c1.44.18,3,.1,3.76,1.52a10.35,10.35,0,0,1,1.23,3.8c.1,1.16.47,1.92,1.53,1.88,1.76-.07,3.51-.68,5.25-.6a5.58,5.58,0,0,0,4.77-2,6.37,6.37,0,0,0,.89,1.92c1.18,1.17,1.44,1.92-.55,2.31-.33.07-.56.7-.79,1.1-.83,1.41-1.35,3.14-2.51,4.18-2.36,2.13-2.13,5.07-3,7.66a.76.76,0,0,0,0,.35c.38.91,1.35,2.23,1,2.64a4.49,4.49,0,0,0-1.11,2.87c0,1.19-.09,2.38,1.59,2.72,1.47.3,1.27,1.88,1.69,2.91.12.29-.45,1-.83,1.32-1.84,1.65-3.75,3.23-5.57,4.9a11.6,11.6,0,0,0-1.17,1.7c-1.26,1.66-2.5,3.43-4.92,3.28a2.74,2.74,0,0,0-3.1,1.79,2,2,0,0,1-1.05.92C231,697.83,230.5,700.36,229.33,702.47Z"/>
      <path class="hokkaido" d="M171.92,766c2.16,0,4.06-.13,5.94,0,2.49.2,3.87-.22,4.85-2.33.63-1.35,2.34-2.26,1.87-4.05-.41-1.57,1.7-2.6.81-4.25a1,1,0,0,1,.38-.89c2.63-1.08,2.95-3.76,4-5.86.91-1.74,1-2,3.18-2.53a2.12,2.12,0,0,0,1-.38c.71-.67,1.24-1.7,2.06-2s2.13.56,2.58.17c1.1-1,2.2-.32,3.27-.49a20.75,20.75,0,0,1,3.48-.46c1.64,0,3.06,0,3.78-1.89a1.12,1.12,0,0,1,1.73-.57c.43.21,1.11-.05,1.66-.16a4.53,4.53,0,0,1,3.54.6,11.28,11.28,0,0,0,8.13,1.74,1.56,1.56,0,0,1,1.77.57,7.89,7.89,0,0,0,1.54,1.41c1.63,1,2.6.91,4-.43.42-.39.38-1.58,1.46-.85.79.54,2.21-.17,2.48,1.48.33,2,1.73,3.88,1,6.13-.35,1,.54,1.33,1.22,1.13a5.41,5.41,0,0,1,3.74,0c1.35.52,1.44,1.42.73,2.11-1.41,1.35-.45,2,.22,3.25,1.12,2,2.51,3.23,4.81,3.33,1.3.06,1.3.89.9,1.71-.57,1.16-1.33,2.23-1.95,3.37-2,3.66-2.13,7.83-3.18,11.93a60.85,60.85,0,0,1-4.85-4.94c-.74-.93-2.08-1.55-2-3.17,0-.57-.84-1.45-1.49-1.72-1.68-.69-3.19-1.27-3.71-3.36-.16-.65-1.41-1.19-2.27-1.47a29.33,29.33,0,0,0-4.46-1c-1.23-.19-2.64.32-3.43-1.19-.11-.2-.64-.24-1-.25a16.9,16.9,0,0,0-9.22,2.1c-1.7,1-3.32,2-5,3a3.29,3.29,0,0,1-1.63.54c-2.45-.13-4,1.08-5.11,3.14-.21.38-1,.87-1.26.75-1.76-1-2.51.62-3.11,1.47-1.18,1.67-2.08,3.75-1.17,5.76,1.42,3.11-.68,4.82-2.23,6.81-.49.63-1.1,1.16-1.56,1.8-1.28,1.81-2.46,3.7-3.82,5.45-.35.45-1.24.57-1.9.66a3.19,3.19,0,0,0-2.76,2.43c-.29.9-.27,2-.84,2.67-1.12,1.24-1,2,.09,3.21s1,2-.47,2.75c-1,.51-1.84.87-1.71,2.25s-.06,2.56,1.48,3.32a5.5,5.5,0,0,1,1.77,2c.17.27,0,.8-.08,1.2a4.69,4.69,0,0,1-1.5-.45c-.35-.25-.46-.81-.71-1.21a4.55,4.55,0,0,0-6.92-1.38c-.6.47-1.23,1.4-1.75,1.34a9,9,0,0,1-2.84-1.25,22.13,22.13,0,0,1-2.07-1.18c-1-.67-2.54,1.57-2.68.17s1.22-3,2.29-4.17c.52-.57,1.76-.43,1.71-1.77a2.35,2.35,0,0,0-1.23-2.34c-1-.53-1-1.54-.92-2.51a18.27,18.27,0,0,0-2-10.36,1.76,1.76,0,0,1-.08-.66c.28,0,.7-.09.82.06,1,1.17,1.77.8,2.62-.16,1.08-1.22,2.25-2.35,3.3-3.59a2,2,0,0,0,.35-1.32c-.14-2,1.09-3,2.75-3.66a17.55,17.55,0,0,0,2.21-1.11c2.26-1.32,2.48-2.65.78-4.52C173,769.49,172.69,769,171.92,766Z"/>
      <path class="hokkaido" d="M565.07,558.88a4.6,4.6,0,0,1-1.14.48c-1.61,0-2.32,1.15-1.8,2.37,1.13,2.65.36,5.5,1.2,8.16a3.43,3.43,0,0,1-.64,2.23c-1,1.74-2.14,3.39-2.1,5.54,0,1-.69,1.23-1.45.79a4.51,4.51,0,0,0-5,.56c-1.3,1.06-2.5,1-3.81,1.24-2,.38-3.34,1.82-4.71,3.18a1.66,1.66,0,0,1-.82.55c-2.72.31-3.14.53-3.41,2.95a2.66,2.66,0,0,1-1.65,2.44,29.71,29.71,0,0,0-3.4,1.89,1.76,1.76,0,0,1-2.52-.37,7.76,7.76,0,0,1-1.63-1.88,2.61,2.61,0,0,0-2.75-1.74,12.46,12.46,0,0,1-2.68-.73,6.11,6.11,0,0,0-1.94-.2,3.85,3.85,0,0,1-4.19-2.23,9.71,9.71,0,0,0-1.4-2c-1.71-1.79-1.79-1.93-.51-3.87.57-.87,1.39-1.57,2-2.42.3-.43.66-1.21.48-1.52-1-1.76.15-2.88,1-4.11a8.54,8.54,0,0,0,1.18-1.75c.54-1.51-.07-2.38-1.72-2.65-1.4-.24-2.8-.45-4.18-.73-1.64-.33-2-.85-1.46-2.42.32-1,.77-2,1.15-3,.21-.54.66-1.18.53-1.64-.58-1.9.31-3.24,1.35-4.65s1-1.61-.81-2.55c-1.37-.71-1.07-1.63-.41-2.18,2.27-1.89,4-4.35,7-5.44a33.54,33.54,0,0,0,6.82-3.73c2.61-1.72,5.65-2.32,8.4-3.65.47-.23,1.2-.54,1.25-.89.34-2.17,2.08-2.42,3.67-2.76a10.31,10.31,0,0,1,4.78.09c1.94.52,4.08.7,5.75,1.68a19.46,19.46,0,0,1,4.94,4.48c.56.67.58,1.72,1.79,1.83.2,0,.48.51.52.81.28,2.1.49,4.2.75,6.3.2,1.63.45,3.25.65,4.88.05.46.19,1.07,0,1.4C562.85,555.66,563.82,557.27,565.07,558.88Z"/>
      <path class="hokkaido" d="M503.63,538.92c1.21,1.64,3.56,2.39,3.53,4.9,1.4.68,2.76,1.46,4.21,2,1.09.41,2.32.43,3.45.76,2.13.63,2.12.67,1.38,2.86-.21.64-.73,1.32.28,1.76,1.37.59,1.15,1.41.57,2.53s-1.94,2.3-.47,3.79c.15.16-.16.85-.36,1.23s-.71,1-1,1.48c-1.46,2.93-.42,5.28,2.75,6.12.9.24,1.88.17,2.8.35a8,8,0,0,1,1.56.63c-.27.46-.43,1.06-.83,1.35-1.58,1.13-1.06,3.25-2.26,4.54.84,1.94-.77,3-1.57,4.37-1.64,2.72-1.67,3,.3,5.2.51.58.79,1.36,1.28,2,.73.9,1.64,1.67,2.32,2.6,1,1.34,1.95,0,2.91.11a41,41,0,0,1,5.54.91c.63.17,1.14,1.17,1.47,1.89.12.26-.62,1.21-.64,1.2-2.36-1.19-4.61.26-6.87.44-1.17.09-1.92.19-2.79-.6s-1.93-1.39-2.79-2.19c-1.1-1-2.13-1.54-3.38-.27-.19.19-.68.34-.85.23-1.79-1.14-4.12-.38-5.85-1.73a4.58,4.58,0,0,0-1.62-.68c-2.52-.66-2.59-.68-3.82,1.69-1,2-2.5,3.7-2.8,6a1.8,1.8,0,0,1-2,1.57c-1.38,0-2.87,0-3.57,1.72-.13.32-1.1.24-1.61.48a10.15,10.15,0,0,0-3.05,1.7c-1.25,1.28-2.46,2.13-4.35,1.86-1.27-.18-1.32,1.06-1.78,1.85-.55.95-1.15,1-2.31.44-2.6-1.27-2.07-3.45-1.87-5.43.12-1.1.12-2.06-.84-2.44-2-.79-1.48-1-.1-2.16.8-.64.8-2.45-.3-3.81-1.27-1.58-1-2.12.6-3.63.33-.31.8-.72.79-1.08,0-2,.43-3.92.12-5.93-.22-1.45-.88-2.22-2.27-2.18s-2.54.41-3.82.46c-1.46,0-3,1.14-4.39-.22-.65-.61-2-.79-2.22-1.43a8.11,8.11,0,0,1-.15-3.86,22.62,22.62,0,0,1,1.58-5c.65-1.47,1.44-2.94,3.35-3.28.92-.16,2.3-1,1.69-1.78-1.06-1.32-.26-1.68.58-1.76a21.23,21.23,0,0,0,9.37-3.4c.26-.17.82.09,1.22.19,2.51.59,3.95-.3,4.32-2.78.11-.74,0-1.24,1.14-1.07.67.1,1.46-.92,2.22-1,1.9-.1,2.63-.65,1.77-2.61-.14-.34.84-1.6,1-1.56,2.84,1.12,1.59-1.18,1.72-2.13.07-.51-.42-1.08-.54-1.65-.15-.77,0-1.39,1-1.53.57-.09,1.1-.56,1.66-.59C501.29,542.28,502.53,540.78,503.63,538.92Z"/>
      <path class="kyushu" d="M47.54,819.26c2.28-1.64,4.65-3.34,7-5,.28-.21.78-.6.73-.7-1-2.36,1-5.14-1-7.36-.23-.25-.35-.62-.58-.87-.83-.93-2.64-.28-3-2.26-.2-1-1.91-1.6-2.86-2.46a5.82,5.82,0,0,1-1.48-1.78c-1.13-2.52-1.07-2.56,1.73-2.91,2.13-.26,2.15-.26,1.91-2.6-.08-.76-.12-1.38.78-1.72a2.26,2.26,0,0,0,1.09-.88,3.55,3.55,0,0,1,4.09-1.92c1.33.25,1.79-.61,2.33-1.63a1.9,1.9,0,0,1,3.15-.74,23.37,23.37,0,0,0,7,3.83c1,2,3.62,1.76,4.89,3.55a1.57,1.57,0,0,0,2.84-.46c.63-1.82,1.89-3.77-.18-5.58a3.32,3.32,0,0,1-.66-1.25c-.41-1-.41-1.59.9-2.11,4.13-1.62,4.87-.05,7.14,2.56.2,3,2.64,4.87,3.6,7.51a10.53,10.53,0,0,1,1,3.31,13,13,0,0,0,.78,4.83c.52,1.19,1.86,2,2.89,3.08-2.63,0-3.85,1.74-4.27,4.18a4.14,4.14,0,0,1-1.61,2.55,35.14,35.14,0,0,0-4.18,5,2.8,2.8,0,0,0-.33,1.58c-.06,2,0,2-2.45,2.13a2,2,0,0,0-1.22.55c-2.75,3-2.72,8.34,0,11.58a9.67,9.67,0,0,1,1.1,2.12,8.3,8.3,0,0,0,.55,1.25c.37.54,1.32,1.18,1.21,1.46a6.12,6.12,0,0,1-1.63,2.16c-1.79,1.57-1.86,2.1-.32,4.12a17.48,17.48,0,0,1,1.54,2.37,1,1,0,0,1-1,1.42,4.27,4.27,0,0,1-.7-.12c-2.8-.6-2.88-.65-4.41,1.83-.66,1.06-1.16,1.38-2.21.66-.9-.62-1.64-.39-2.55.25-2.86,2-6.14,1.55-9.1.6-1.7-.55-3-2.35-4.44-3.65-.54-.5-1-1.19-1.64-.27C52.79,849,51,849,49.5,849.47c-1,.3-1.92.22-2.81,1.12s-2.21.44-3-.66a7.13,7.13,0,0,1-1.14-1.77,1.84,1.84,0,0,1,.12-1.51,19.08,19.08,0,0,1,2-2.07A15.07,15.07,0,0,0,48,839.3c.89-2.35,1.82-4.92,4-6.51,2-1.47,1-3.51,1.15-5.3.08-.7-.87-1.67-.63-2.15a5.56,5.56,0,0,1,2.3-2.53,2.3,2.3,0,0,0,1.5-2.79c-.21-1.58-.52-1.78-2.34-1.49q-3,.47-5.94.88A1,1,0,0,1,47.54,819.26Z"/>
      <path class="hokkaido" d="M543.72,585.13a5.07,5.07,0,0,0,1.5.65c.36,0,1-.27,1.06-.49.39-2.63,2.76-2.82,4.53-3.63a53.88,53.88,0,0,1,6-2.16,4.86,4.86,0,0,1,1.9,0c2.23.21,3.11-.16,3.26-2.22a6.82,6.82,0,0,1,2.23-4.65,2.09,2.09,0,0,0,.39-1.55c-.31-2.93-.56-5.87-1.14-8.75-.21-1.06-.08-1.48.79-1.82.33-.12.67-.22,1-.31,1.28-.31,1.6-1.25.81-2.1-1.14-1.21-1-2.55-1.06-4,0-1.16-.33-2.32-.43-3.49a36,36,0,0,1-.17-3.89c0-.72,1.22-1.19,1.58-.62.89,1.38,2.57,2.2,3.19,3.46,1,1.93,2.42,2.72,4.08,3.64,2.59,1.43,2.52,1.48,4.67-.54,1-.95,2.2-1.71,3.28-2.58.35-.28.93-.66.9-1-.11-1.65.63-1.34,1.84-1.2,2.63.31,4.83,1.69,7.28,2.43.49.15,1,.52.3,1.26-2.33,2.27-2.65,5.45-3.48,8.37a20,20,0,0,1-1.32,3.6,89.14,89.14,0,0,0-4.31,10,7.63,7.63,0,0,0-.14,4.9c1,2.44-.21,4.29-1.36,5.76s-1.22,2.84-1.09,4.72c.6,8.2,4.33,15.1,8.28,22,1.3,2.26,2.58,4.51,3.83,6.79.13.22,0,.6,0,.91a4.28,4.28,0,0,1-1-.11,1.08,1.08,0,0,1-.54-.45c-1.49-2.4-3-4.8-6.09-5.35-1.09-2.4-3.34-3.58-5.28-5.11-1.08-.85-1.81-1.07-2.53.23-1,1.79-2.86,1.76-4.51,2.17-.8.19-1.9.06-2.36.55-2.81,3-7,1.59-10.18,3.18a.69.69,0,0,1-.66-.13c-2.65-2.5-6.42-2.76-9.34-4.71-.19-.12-.55-.13-.62-.3-.82-1.69-2.47-2.55-3.75-3.78a36,36,0,0,1-2.47-3c-.83-1-1.84-1.73-2.11-3.19-.16-.9-1.07-1.66-2.06-.38a.94.94,0,0,1-1.71-.22c-.69-1.49-1.68-3.11-1.6-4.62.09-1.7,2.34-1.64,3.62-2.23,2.2-1,3.9-2.14,4.07-4.8C542.83,586,543.38,585.58,543.72,585.13Z"/>
      <path class="hokkaido" d="M196.43,650.61c-2.07.79-4.19,1.47-6.22,2.39-1.7.78-1.64,1-.33,2.71.65.82,1.33,1.65-.25,2.41a3.44,3.44,0,0,0-1.45,1.87c-.31.84.06,2.3-1.12,2.32-1.63,0-3.28,1.33-4.95-.06-.83-.69-1.79-1.67-2.94-.06-.27.38-1.79.19-2.56-.15-2.32-1-2.75-1-4.35,1s-3.14,4.11-4.7,6.18c-.28.36-.58,1.09-.8,1.06-3-.32-3.68,2.63-6,4l4.27,2.26c-.14.15-.21.28-.3.31A28.11,28.11,0,0,0,157,680a3.79,3.79,0,0,1-4.66-.29c-.7-.57-1.36-.61-1.83.09-.81,1.22-1.83,1-3,.77a5.43,5.43,0,0,0-2.81.11,2.31,2.31,0,0,1-2.53-.46c-1-.7-1.86-.34-2,1-.22,1.91-1.57,2.81-3,3.67a10.88,10.88,0,0,0-2.09,1.32c-.31.31-.49,1.29-.28,1.48.9.82.76,1.54.25,2.49-.7,1.31-1.44,2.5-1,4.3.3,1.33-1.14,2.44-2.56,3a2.3,2.3,0,0,0-1.61,2.75c.12.56,1,.76-.05,1.47a8.66,8.66,0,0,0-2.16,2.71,1.94,1.94,0,0,0-.17,1.63c.89,1.46.11,2.4-.7,3.5-.56.76-.86,1.38-1.9.69s-2.06.21-2.94.65c-1.44.71-3,.87-4,.11a3.88,3.88,0,0,1-1-4.14c.31-.95,1.6-2.06.56-2.84-.74-.54-2.24-.34-3.3-.08s-1.24-.19-1.33-1c0-.35.12-.87-.06-1-2-1.88-.37-3.88.44-5.13,1-1.53.52-2.63.26-3.93-.11-.57-.52-1.09-.6-1.65-.14-1-.19-1.93,1.3-1.94a8.43,8.43,0,0,0,7.85-4.43c1.2-2,3.73-3.17,5.32-5,1.88-2.16,4.31-3.65,5.93-6.23,1.49-2.38,4.28-4,6.59-5.81.86-.68,1.58-1.68,2.94-1.64a2.28,2.28,0,0,0,1.58-.75c1.73-2,3.37-4.13,5-6.23a15.42,15.42,0,0,1,1.44-2,29.61,29.61,0,0,1,8.76-5.87,6.25,6.25,0,0,0,4.15-7.49,4.87,4.87,0,0,0-.35-1.71c-.69-1.11-.28-1.48.82-1.53s1.92,0,2.87-.06,1.74-.23,1.33-1.5c-.05-.13,0-.45.14-.48,2.91-.79,5.46-2.74,8.75-2.38,2,.22,4.35-1.15,6.93-3.34,1.42-1.2,2.37-1.2,3.65,0,.58.55.66.95.13,1.77a4.52,4.52,0,0,0,1.71,6.41c.4.18,1.12.35,1.35.14,1.43-1.25,2.73-.09,4,.15,2.13.4,2.92,1.67,1.69,3.4C195.43,646.72,196.17,648.66,196.43,650.61Z"/>
      <path class="kyushu" d="M113.82,762.15c-.34,1.49-.57,3-1,4.46-.36,1.07-.85,2.06-2.37,2.2-.71.07-1.3,1.15-2,1.68-1.26.94-2.32,2.29-4.31,1.25a2,2,0,0,0-2.87,1.23c-.55,1.33.39,5.07,1.49,5.92a4.93,4.93,0,0,0,6.07.26,2.91,2.91,0,0,1,3.46-.47,14.82,14.82,0,0,0,6.81,1.5c1.81,0,2,.55,1.06,2.13-.18.3-.47.55-.64.85a14.33,14.33,0,0,0-1.84,3.41c-.43,1.73,1.92,1.35,2.38,2.56a1.57,1.57,0,0,0,.79.71c2.8,1.31,3.18,3.25,1.82,5.91-.83,1.64.74,2.36,1.8,2.85s1.84.73,2.16,2,.88,2.18-.43,3.13a2.84,2.84,0,0,0-.81,1.54,14.51,14.51,0,0,0-.19,2.2c-1.12-.13-2.59.14-3.28-.47-1.6-1.43-3.61-1-5.35-1.71s-2.3-.08-3,1.82c-.78,2.25-.78,2.24-3.27,2.3-1.76,0-3.51-.2-5.24.61-.92.43-1.87-.08-2.07-1.31a3.75,3.75,0,0,0-.36-1.35c-1.14-1.86-2.3-2.2-4.41-1.39a22.55,22.55,0,0,0-2.29.88c-.78.4-1.16.38-1.66-.48a5.31,5.31,0,0,0-2.06-1.9c-2.68-1.37-3.28-3.63-2.78-6.28a3,3,0,0,0-.47-2.52,28.42,28.42,0,0,1-3.77-6.94,8.81,8.81,0,0,0-2.72-4.41c-1.85-1.57-3.75-2.93-6.24-1-.51.4-1.77-.65-1.91.72s-1.16,2.72.29,3.94a3.1,3.1,0,0,1,1,2.88c-.19,1.93-.57,2.1-2.39,1-.5-.29-1.2-.25-1.64-.59a28.32,28.32,0,0,1-2.6-2.42c-1-1.08.25-2,.3-3,.08-1.41,1.13-3-1-3.76.85-1-1.85-2.35.29-3.25,0-1.28.29-2.71-.18-3.8a2.57,2.57,0,0,1,.62-3.14,3.15,3.15,0,0,0,.94-1.76c.06-2.85,2.11-4.35,4-5.86a4.27,4.27,0,0,1,3.92-.8,14.52,14.52,0,0,0,3.91.17c3.39,0,4.42-1.36,3.75-4.86-.32-1.64-.07-1.9,1.43-1.41a4.24,4.24,0,0,1,1.31.53c1.84,1.53,4.15.93,6.22,1.39a4,4,0,0,0,4.34-1.67c1.11-1.45,2.86-2.28,3.86-4,.88-1.52,5.57-1.41,7.08.11C112,756,114.25,758.42,113.82,762.15Z"/>
      <path class="kyushu" d="M30.48,896.06c4.49,2.63,3.55,1.81,7.13-.59a5.27,5.27,0,0,0,1.71-2.79,20.16,20.16,0,0,0,1.26-9.07,7.41,7.41,0,0,0-1.11-3.26c-1.69-2.64-3.23-5.42-6.4-6.78-1-.45-1-1.94-.38-3.09.37-.69.71-.77,1.39-.49a3.4,3.4,0,0,0,1.23,0,13.47,13.47,0,0,0-.84-1.24c-.33-.41-1.08-.62-.5-1.36,2.09-2.65.48-5.29-.34-7.73a2.77,2.77,0,0,1-.09-2.47c.69-1.27.91-2.45-.12-3.62-.42-.49-.77-1-.05-1.43a5,5,0,0,1,2.15-.79c.49,0,1,.54,1.52.86a2.08,2.08,0,0,0,3-.29c1.57-1.54,1.63-1.4,4-.19a3.12,3.12,0,0,0,3.36.2,32.09,32.09,0,0,1,3.93-1.44c1.17-.5,2.4-1.83,3.38-1.64,1.17.24,2.12,1.68,3.12,2.65.81.79,2.32,1.24,1.41,3-.15.27.54,1.21,1,1.55,1.66,1.14,3.17,2.19,3.4,4.54a3,3,0,0,0,2.79,2.77c2.42.39,3.08,1.75,2.64,4.13-.76,4.06-.56,4.43,3.2,5.77.52.19,1.07.29,1.61.43-1.21,2,2,1.45,1.81,3.21a7.66,7.66,0,0,0,1.11,4c.4.8,1,2.66,2.53.78.08-.11.8.1,1,.35.89.89,1.69,1.5,3.13.89.78-.33,2,1.5,2,2.78,0,.44-.6,1-.46,1.29.86,1.73-.35,2.56-1.2,3.77-.62.9-.67,1.73-2.11,1.18-.57-.22-1.58.34-2.22.79a11.33,11.33,0,0,0-4.29,6.38c-.3,1,.09,1.17.9,1.4,1.46.41,2.88,1,4.57,1.57a11.53,11.53,0,0,0-1.5,1.36,1.67,1.67,0,0,0-.31,1.19c.49,2.32.51,2.49-1.62,2.88A2.46,2.46,0,0,0,75,909.27c-1.5,4.06-4.65,6.05-8.81,7-1.88.42-3.51,1.84-5.33,2.65-.44.19-1.05,1.28-1.68.21-.44-.72-.65-1.4.23-2.13,1.6-1.32,3.51-2.47,3.68-4.9,0-.68.17-1.35.25-2,.06-.52-.07-1.18.2-1.54,1.12-1.49,1.19-3.2,1.54-4.94.85-4.27-1.37-7.38-3.83-10.07a4.07,4.07,0,0,1-1-4.4c.19-.71.53-1.59,1.69-1.51,1.45.09,2.06-1,2.56-2.11.6-1.38.7-2.9,1.71-4.2.76-1-.12-2.85-1.54-3.56a34.43,34.43,0,0,0-5.57-2.27c-2.27-.68-4,.41-4.68,3-.44,1.85-.63,3.71-2.16,5,.16,2.42-1.75,4-2.43,6.07a9,9,0,0,0-.59,4.47,43.35,43.35,0,0,0,2.91,8.36,5.68,5.68,0,0,0,3.09,2.78c1.53.46,1.41,1.06,1,2.1s-.49,2.43-1.19,2.81c-1.23.66-2.82.68-4.26.94-.75.13-.48-.4-.59-.84-.93-3.47-1.53-3.85-5.11-4.16-2-.17-3.91-.57-5.85-.88a11.29,11.29,0,0,0-1.7-.32c-.77,0-1.86.55-2.23.21s-.28-1.54-.56-2.29c-.66-1.71-.8-3.69-2.88-4.62C31.25,897.89,30.94,896.79,30.48,896.06Z"/>
      <path class="hokkaido" d="M98.93,731.21c-.8-.76-1.47-1.44-2.19-2.06-1-.86-1.95-.57-2.36.7a7.49,7.49,0,0,0-.07,1.07c-.38,2.41-2.24,3.41-4.17,4.34-1.13.54-1.51-.56-1.88-1.11-1-1.44-1.62-1.53-2.35.14-.12.25-.57.36-.87.53,0-.34-.09-.68-.13-1a2.15,2.15,0,0,0-.08-.68,19.88,19.88,0,0,0-5-4,3.81,3.81,0,0,0-5,1.86c-1.17,2-1.17,2-3.31,3,0-.88-.1-1.7-.11-2.53,0-2,.43-4.1-1.88-5.31-.34-.18-.4-.83-.63-1.24-.34-.62-.27-.92.42-1.36,3.26-2.08,3.79-4.75,1.71-8-1.81-2.83-1.32-4.35,1.86-5.62,1.31-.53,2.67-1,4-1.49a1.68,1.68,0,0,0,.87-.87c.69-2.07,2.56-2.82,3.76-1.09,1.91,2.75,4.14,2,6.55,1.55a4,4,0,0,1,1.39-.22c2.81.46,4.77-1.77,7.27-2.28a1,1,0,0,0,.56-.43c1.06-1.54,2.58-3,3-4.68a3.3,3.3,0,0,1,1.9-2.47c1.44-.86,3-2,3-4.12,0-.35.67-1,1.06-1,1.48-.11,1.91-.68,1.25-2,0,0,.6-.34.92-.53.39,1,1,1.24,1.91.62a1.12,1.12,0,0,1,1.05.32c1.89,3.13,1.8,4.42-.57,7.48-.48.62-.83,1.13-.29,1.87a1.58,1.58,0,0,1,.26.66c.34,3,2,4.29,5,3.76.15,0,.36.25.58.41,0,1.26-1.58,1.9-1.09,3.54,1.2,3.94,4.56,4.57,7.21,3.54,1.18-.46,2.12-1.65,3.14.1a4.34,4.34,0,0,0,1-.68,22.84,22.84,0,0,0,2.14-2.78,4,4,0,0,0,.45-1.86c0-.78-.36-1.65-.11-2.31s1.13-2,1.65-1.95c1.42.11.64,1.47.75,2.3a17.37,17.37,0,0,1,0,2.5,2.53,2.53,0,0,0,1.1,2.4,6.31,6.31,0,0,1,2.45,4.82c.1,1.64.57,2.69,2.38,3,.68.1,1.2,1,1.89,1.3,1.08.52.72,1.16.12,1.57-.82.56-1.79.9-.47,1.91-1.45,2.44,0,4.74.3,7.1.19,1.4-1.58,3.88-3.25,4.19-1.47.28-1.73.92-1.67,2.14a5.17,5.17,0,0,1-.14,1.76c-.05.17-.7.22-1.08.21a.73.73,0,0,1-.51-.46c-.42-1.56-.87-2.86-2.62-1-.2.21-1.16,0-1.52-.27-3-2.54-6.51-4.29-9.43-7-1.65-1.5-3.89-2.89-6.66-1.83a15.84,15.84,0,0,1-4.86.77c-1.17.06-1.61.8-2.24,1.5s-1.54,1-2.33,0c-1.45-1.88-2.54-1.76-3.63.36C99.19,730.52,99.1,730.81,98.93,731.21Z"/>
      <path class="hokkaido" d="M333.53,736.45c1.19-1.6,2.5-3,4.57-3.45a1.83,1.83,0,0,0,1.13-.77c1.06-2,2.47-2.75,4.66-1.65.63.32,1.08-.2,1.16-.92.36-3.25,1.21-6.47.46-9.81a4.72,4.72,0,0,1,.6-2.62,2.91,2.91,0,0,0-.25-3.32c-.37-.45-.75-.79.05-1.34.35-.24.42-1.28.22-1.81-.4-1.08-1.1-2-1.6-3.09-.73-1.53-.48-2.37,1-3a7.75,7.75,0,0,1,2.39-.53,4.23,4.23,0,0,0,3.55-2.45c.91-1.68.29-3.24-1.49-4.06-1-.45-1.85-1.93-2.64-1.84a15,15,0,0,1-3.4-.32c-1-.1-1.07-.87-1-1.58a5,5,0,0,1,.47-1.32c1.17-3.17,1-6.12-1.18-8.89-1-1.25-.82-1.81.68-2.33a3.16,3.16,0,0,0,2.33-2.38c.17-.64.93-1.09,1.21-1.72a1.42,1.42,0,0,1,2.29-.77c3.92,2.53,6.91.08,10-1.76.61-2.2,3-3.61,2.86-6.11a11,11,0,0,1,.89-3.73,49.36,49.36,0,0,0,1.19-7.08c0-.35-.41-.8-.71-1.14-1.2-1.38-1.23-1.41.44-2.09a23.1,23.1,0,0,1,3.34-1.05,1.37,1.37,0,0,1,1.13.36c1.06,1.26,2,2.62,3,3.88a4.57,4.57,0,0,0,1.57,1.31,2.75,2.75,0,0,1,2,2.49c.11,1,1.11,1.92,1.66,2.91.37.66.5,1.21-.44,1.7a5.56,5.56,0,0,0-2.07,1.9c-.6,1-1.52,2.39-1.2,3.16,1.27,3-.57,5-2,7.09-.51.8-1.11,1.54-1.65,2.33-2,2.94-3.49,6-1.3,9.5a1.22,1.22,0,0,1,.26.65c-.48,2.73,1.28,3.13,3.34,3.42a3.73,3.73,0,0,1,2.1,1.14,16.51,16.51,0,0,0,7.8,4.74c2.16.68,4,2.38,6,3.72.67.46.36,1.74-.45,2.38-.53.43-1.1.82-1.61,1.28-1,.86-1.59,1.75-.36,2.94.25.24.2.8.29,1.21a7.61,7.61,0,0,0-1.25-.1c-2.4.14-4.42-1.13-6.5-1.95-1.56-.61-2.24,0-3,.93-.34.42-.29,1.13-.57,1.63-.57,1-1,1.62-2.68,1.15-1.51-.42-3.63.7-5.25,1.56-2.27,1.21-4.33,2.57-6.92,3.27-3.94,1.07-5.74,4.66-7.48,8-.52,1,.36,1.71.71,2.5.77,1.79.81,2.2-.76,3.12s-2.71,1.8-2.72,3.78c0,.36-.75.8-1.23,1.07-3.59,2-5.29,5.27-6.53,8.94-.19.56-.4,1.11-.63,1.66-.48,1.13-2.38,1.89-3.07,1a65.41,65.41,0,0,1-4.57-5.72,3.86,3.86,0,0,1,.91-4.89c.28-.22.23-.87.33-1.32Z"/>
      <path class="hokkaido" d="M389.27,686.41c-.86-.36-1.3-.51-1.72-.71-3.27-1.59-3.3-1.6-2.3-5,.55-1.9,1-3.68-1.48-4.59-.27-.1-.65-.52-.61-.72.35-2-1.16-4.18,1.1-5.89.64-.48.33-2.18,1-2.7.9-.75,1.63-1.34,1.43-2.55-.13-.77-.39-2.17-.6-2.18a7.74,7.74,0,0,0-3.34.63c-.65.31-.95,1.3-1.44,2s-1.42.83-1.55-.11c-.33-2.29-2.16-3.29-3.53-4.71-.44-.45-1-1.17-.94-1.63.6-2.58.33-5.4,2.24-7.66a17.42,17.42,0,0,0,2-3.72c.48-.95,1-1.63,2.2-1a2.62,2.62,0,0,0,3-.33c1.63-1.23,4.05-.37,5.51-2.11.12-.14.82,0,1,.14,1.12,1.42,3.33,1.73,3.69,4,.16,1,1.28,1.87,2,2.79,2.08-.8,3.1.78,4.5,1.78.69.5,2,.36,3,.17a6.2,6.2,0,0,0,2.11-1.27,2.06,2.06,0,0,1,2.88.21c.69.61,1.58,1,2.31,1.55,2.24,1.74,4.35,2.13,6.41-.32a4.69,4.69,0,0,1,1.82-1c.16-.07.63.26.76.5.65,1.21,1.18,2.48,1.87,3.67a1.37,1.37,0,0,0,1.14.38c.92-.14,2.08-.16,2.69-.72,2.73-2.5,5.11.12,7.6.46.4.06,1.07,2,.75,2.7-1,2.19-1.9,4.54-3.85,6.19-.45.38-1.08.86-1.13,1.35-.3,3.07-3,4.94-3.82,7.7-.55,1.75-2.31,2.18-3.49,3.24-.32.28-.9.25-1.34.43a6.49,6.49,0,0,0-4.1,7.92c.7,3.13.5,3.1-2.63,3.91a118.81,118.81,0,0,0-13.51,4.22c-1.89.73-3.71,0-5.46.67-.15,0-.59-.24-.58-.29a11,11,0,0,1,.74-2.27,1.2,1.2,0,0,1,1-.49c3.48,1.62,5.55-1.11,8-2.56a6.46,6.46,0,0,0,1.62-1.27c.74-.83.9-.21,1.48.23a2.81,2.81,0,0,0,2.25-.07c.2-.08,0-1.22,0-1.88,0-.11-.17-.22-.15-.31.93-4.67-3.06-4.66-5.68-5.86-.38-.18-1.31.32-1.71.76-1.19,1.31-2.4,2.22-4.23,1.24-.1-.05-.24,0-.35,0-1.34-.25-2.81.67-4-.07s-.88-2.38-2.34-3c-.37-.15-.26-1.3-.58-1.88s-.93-1.38-1.33-1.34a2.06,2.06,0,0,0-1.43,1.32c-.65,3.07-2,6.26.89,9C389.15,685.4,389.12,685.68,389.27,686.41Z"/>
      <path class="hokkaido" d="M541.44,602.36c1.83,1.91,3.77,3.28,4.75,5.15a6.93,6.93,0,0,0,4.07,3.14c1.79.65,3.13,2.61,5.34,2.08.09,0,.21.1.32.14,1.49.5,1.91,3.56,4.3,1.85,1.4-1,3.27.23,4.61-1.07.22-.22.92-.15,1.28,0a2,2,0,0,0,2.56-.71c1.71-2.47,4.43-1.9,6.74-2.34.71-.14,1.54-.09,1.59-.73.16-1.8,1.07-1.56,2-.8,1.43,1.2,3.36,1.87,4.08,3.84a2.94,2.94,0,0,0,.7.81c1.28,1.32,3.9.69,4.49,3,.53,2.1,2.82,2.48,3.88,4,.92,1.3,2.82.32,3.44,1.86a26.9,26.9,0,0,0-3.6.32,9.26,9.26,0,0,1-3.69.33,5.68,5.68,0,0,0-3.68.91c-4.73,3.06-8.88,6.77-11.61,11.8a19.44,19.44,0,0,0-2.32,8.82,6.91,6.91,0,0,0,.18,2.13,14.08,14.08,0,0,1,.06,7.37c-.3.88-.46,1.59-1.67,2-1.45.45-2.2,2.26-3.94,2.58-1.95.36-3.6,1.74-5.9,1-1.46-.49-2.93.39-3.81,2a5.11,5.11,0,0,1-2.16,2.11,9.19,9.19,0,0,0-5.57,6.87,3.8,3.8,0,0,1-5.22,2.94c-.57-.27-.73-1.33-1.18-2-1.08-1.5-1.11-1.49.22-2,2.22-.78,2.6-2.15.89-3.68a2,2,0,0,1-.68-2.65,9,9,0,0,0-.15-5c-.44-1.43-.25-2.42.86-3.05,1.88-1.07,2.07-2.34,1-4.06-.61-1-1.14-2-1.68-3-.35-.67-.6-1.29.49-1.59a13.77,13.77,0,0,0,2.28-1c1.32-.65,2.17-1.68,1.49-3.16s.22-1.87,1.12-2a6.86,6.86,0,0,0,5.89-4.37,3.8,3.8,0,0,1,2.21-1.52c1.28-.43,2.42-1.3,2.19-2.42s-.13-3-2-3.4c-2.06-.43-3.14-2-4.14-3.64a3.05,3.05,0,0,0-2.22-1.47c-3.16-.69-3.92-2.07-3.72-5.45.11-1.94-.08-3.89,0-5.85.07-1.22-1.11-2.52-1.78-3.76s-1.5-2.41-2.06-3.7A9.54,9.54,0,0,1,541.44,602.36Z"/>
      <path class="hokkaido" d="M152.19,785.28c.35,0,.7-.09,1.05-.11,2.08-.14,2-.14,2.26-2.42a4.61,4.61,0,0,1,.54-2,1.66,1.66,0,0,0-.18-2.21,2,2,0,0,1-.72-2.84c.32-.74-.29-1.39-1.17-1.34-1.25.07-2.5.3-3.75.37-.15,0-.52-.71-.48-.74,1.35-1.18,1.58-2.29.08-3.59-.27-.24-.19-1.13,0-1.61,1.23-3.06,1.25-3-1.49-4.44-1.22-.62-1.28-.82-.11-1.57a11.62,11.62,0,0,0,4.05-3.89,7.51,7.51,0,0,1,4.64-3.65c4.25-1.22,6.6-4.36,8.53-8,.26-.48.53-1.31.31-1.64-1.54-2.26,1.08-4.21.37-6.38,0-.12.21-.49.37-.51,3-.45,2.6-3,3-5,.23-1.11.36-2,1.53-2.54,1.85-.91,3-2.78,5.5-3,1.56-.14,1.21-2.17,1.09-3.54,3.12,2.23,4.05,3.47,6.12,8.08a12.13,12.13,0,0,0,.92,1.88c1.8,2.64,3.4,3.13,6.38,2a7.82,7.82,0,0,0,2.53-1.27c2.63-2.42,6.13-1.31,9.09-2.37.51-.18,1.33.33,2,.63,2.34,1.1,4.27,1.09,6.19-1.53a6.09,6.09,0,0,1,.46-.55c.72-.73,1.2-1.89,2.6-1.26,1.13.51,2.32.59,2.41,2.46a9.58,9.58,0,0,1-.09,3.73c-.72,2.28-.61,2.3-3.25,2.4-.45,0-1,.45-1.32.28-1.57-.91-2.63,0-3.25,1.11a2.87,2.87,0,0,1-3.65,1.44c-2-.54-3.66.3-5.43.62-.82.15-1.45.47-2.32.06-1.34-.63-2.22-.25-2.55,1.38a1.19,1.19,0,0,1-1.89.9c-1.22-.72-1.73.07-2.22.93a53.73,53.73,0,0,1-3.72,6.34c-1.3,1.65-2.7,3.14-3.08,5.28a4.58,4.58,0,0,0-.24,2,2.15,2.15,0,0,1-.36,2.19c-2.46,3.67-4,4.41-8.68,3.39-.94-.21-1.71-.59-2.68,0s-1.59,1.18-.9,2.53c1.06,2.07,1.77,4.3,3.89,5.68a1.33,1.33,0,0,1,0,2.34,18.41,18.41,0,0,1-3.23,1.45,4.33,4.33,0,0,0-2.3,2.06c-.61,1.06.4,2.85-1.17,3.27s-1.29,1.85-2,2.68-1.22,1.06-2,.16a6,6,0,0,0-1.25-1.26c-.42-.27-1.12-.56-1.44-.38a2.43,2.43,0,0,0-.84,1.43c-.08.26.17.68.35,1a16.54,16.54,0,0,1,2,3.24c.34,1-.33,2.44.16,3.24.86,1.4.77,2.83.93,4.26a3.39,3.39,0,0,1-2.89,3.32c-.16,0-.49-.16-.49-.23.1-1.94-1.84-1.64-2.75-2.24a6.7,6.7,0,0,1-3.11-4.82c-.16-.92-.37-1.84-.54-2.76a1.77,1.77,0,0,1,.65-1.8c1-.92.68-1.66-.48-2a6.26,6.26,0,0,0-1.07-.12c-.34,0-.68-.13-1-.2Z"/>
      <path class="kyushu" d="M80.73,762.83c-.21-.05-.91-.17-1.59-.34-3.31-.86-5.94-.17-8,2.84-.92,1.34-2.23,2.26-2.11,4.19,0,.64-.77,1.4-1.29,2-1,1.25-1.58,2.4-.51,4,.37.56,0,1.79-.35,2.58s-1.6.86-1.15,1.92,1.11,2,1.65,3c.37.68,1,1.42,1,2.08-.25,2.66-1.06,3.06-3.68,2.07a16,16,0,0,1-1.56-.76,28.5,28.5,0,0,0-3.41-1.7c-1.65-.59-2.2-.37-2.54,1.3-.29,1.47-.66,2.28-2.24,1.6-1.34-.58-2.16-.19-3,1A22.14,22.14,0,0,1,49.45,791c-.44.49-1.08,1.31-.93,1.72.76,2.08-.6,1.73-1.73,1.68-.66,0-1.22-.24-.75-1.06.89-1.55-1.81-2.6-.55-4.18-.28-.19-.58-.36-.85-.56a8.19,8.19,0,0,1-2.6-4.73,5,5,0,0,1,3.12-4.67,5,5,0,0,0,2.71-2.26A3.31,3.31,0,0,1,49,775.58c3.2-1.64,2.34-4.57,2.32-7.2,0-1.24-1.61-2.07-2.83-1.6a5,5,0,0,0-1.56.82c-1.18,1.06-2.21,1.33-3.67.27s-3.28-1.42-4.62-2.51a4.7,4.7,0,0,0-4-1c-2.64.48-5.37-.64-7.95.56-.19.09-.57-.19-.86-.31.24-.25.44-.64.73-.73a14.44,14.44,0,0,1,1.75-.24c2.14-.39,3.45-2.82,2.22-4.61-1-1.41.88-1.26.8-2.18-.1-1.2,1.18-1.28,2-1.63.13-.06.62.53.85.88,1.75,2.6,2.44,3,5.53,2,1.51-.51,4.14,1.22,4.51-1.94.21-1.79,2.28-3.22,1-5.33-.07-.12.37-.66.67-.87a3.79,3.79,0,0,0,1.84-4c-.43-2.84,1.54-4.41,3.27-6.06.27-.26,1-.12,1.51-.05,2.51.31,4.74,0,6.11-2.49a1.58,1.58,0,0,1,2.1-.78,16.2,16.2,0,0,0,3.49.46c1.28.09,2.62-.09,3.38,1.35.15.26.58.39.9.54,1.6.74,3.28.1,3.52-1.63a3.57,3.57,0,0,1,1.8-2.85,1.48,1.48,0,0,1,1.3,0c.24.15.29.82.19,1.2-.62,2.5-1.31,5-2,7.46a1.46,1.46,0,0,0-.08.91c2,3.8,3.68,7.75,6.12,11.31.75,1.08,1.7,1.08,2.79,1.12.64,0,1.67.22,1.83.62a6.43,6.43,0,0,1,.58,3.34C84.33,762,82.83,762.87,80.73,762.83Z"/>
      <path class="hokkaido" d="M315.28,672.51c-1-.93-2.54-1.32-2.5-3.13,0-.4-.58-1-1-1.18a18.67,18.67,0,0,0-2.95-1.17c-1.71-.56-2.12-1.32-1.39-2.75,1.31-2.56.89-3.95-1.51-5.21-1.54-.8-3.3-1.08-4.62-2.43a2,2,0,0,0-2.85.17c-.74.69-1.24.41-1-.53a1.67,1.67,0,0,0-.48-1.88c-.33-.32-.86-.48-1.1-.84-1.72-2.67-1.76-2.86-4.59-2a2.7,2.7,0,0,1-2.55-.67,15.58,15.58,0,0,0-4.24-2.4c-1.09-.37-1.79-2.28-1.5-3.6a16.2,16.2,0,0,1,.75-2.09,17.94,17.94,0,0,0,1.87.92,3.35,3.35,0,0,0,4.24-3.23c-.18-2-.45-4-.69-6-.14-1.1-.79-1.43-1.76-1.07-1.45.54-2.87,1.13-4,1.58-.92-1.17-1.75-2.26-2.63-3.31a2.43,2.43,0,0,1,1.4-4.13c.35-.07.85.07,1-.12,2.19-2.22,5.6-2.55,7.67-4.65s4.88-1.58,7.07-2.9a21.35,21.35,0,0,1,2.63,2.09,4,4,0,0,1,1.08,2.18c0,.42-1,.81-1.36,1.36-1,1.79-2.7,3.45-1.44,5.85a5.63,5.63,0,0,1,.25,1.74c.38,2.31,3.28,3.78,5,2.24,1.35-1.22,3-1.7,4.37-2.65s1.86-.49,2.75.49a1.12,1.12,0,0,1,.32,1.44c-1.54,4.1-1.43,4.46,1.83,7.26.16.14.55.24.54.33-.37,3.29,2.52,2.4,4.08,3.09a23.92,23.92,0,0,0,4.07,1.1c.56.14,1.22.48,1.68.31.91-.34,1.8-.91,2.66-.16a17.28,17.28,0,0,1,2.81,3c.81,1.19,1.87,2.45.81,4.14a2.16,2.16,0,0,0,.06,1.74c1.19,2.71.59,5.36-.13,8-.62,2.26-.85,4.35,1,6.33a4.3,4.3,0,0,1,1,4,2.43,2.43,0,0,0,1.61,3c1,.14,2-.19,2.81,1,.6.86,2,1.08,2.89,1.82.35.3.12,1.22.25,1.84.08.33.42.59.54.92.36,1,1.21,2.43.88,2.8-1.05,1.14-1.74-.41-2.62-.84-.62-.31-1.39-.34-2-.65-1.09-.55-1.84-.35-2.24.8-.67,2-2.15,1.89-3.75,1.54a17.85,17.85,0,0,1-2.39-.62,2.72,2.72,0,0,1-1.79-3.51,2.27,2.27,0,0,0-.53-2.58c-2.22-2.34-2.95-5.85-5.92-7.62-.1-.06,0-.41-.08-.57-1.2-2.22-2.45-2.35-3.64-.36A12.52,12.52,0,0,0,315.28,672.51Z"/>
      <path class="hokkaido" d="M458.06,620c-.8-.84-2.13-1.59-2.2-2.45-.09-1,.91-2.12,1.41-3.2.24-.51.4-1,.6-1.59,2.23,1.43,2.28,1.47,3.67-.32a45,45,0,0,0,2.53-3.86,2.16,2.16,0,0,1,2.43-1c1.14.15,1.51.82,1.72,1.9.53,2.71.89,2.82,3.42,1.52,1.87-1,3.51-.62,5,1.07a3.32,3.32,0,0,0,4.81.47c2.12-1.68,2.83-1.73,4.56-.33a11.92,11.92,0,0,0,7.45,2.55c1.15,0,1.64.6,2,1.61a48.24,48.24,0,0,0,2.3,5.14,5.79,5.79,0,0,0,4.42,3.22c1.42.2,1.5.87,1.38,2.13s.5,2.83.37,4.2a4.88,4.88,0,0,1-3,4.41c-2,1-3.79,2.48-6,3.24a3.55,3.55,0,0,0-1.63,2.18,3.12,3.12,0,0,1-2.47,2.29c-2.76.58-5.56,1-8.35,1.48a1.48,1.48,0,0,1-.68,0c-.58-2.74-4.43-1.27-5.11-4-.28-1.18-1.41-1.06-2.29-.28-1.17,1-2.13,2.13-2,3.94.09,1.25-.49,2.54-.49,3.81a43.72,43.72,0,0,0,.42,5.61c.26,2-.74,2.86-2.81,2.63-1.89-.21-3.09-1.1-3.39-2.92-.24-1.44-1.45-2.42-1.27-4.2s-2.13-2.66-4-1.6c-1.34.76-1.73.31-1.87-.87a13,13,0,0,1-.2-4.76c.47-2-.25-4.33.73-6.43.16-.33-.19-.89-.29-1.35-.35-1.48-.61-3-1-4.43a11.37,11.37,0,0,0-1.43-3.17c-1.92-2.69-2-2.93.28-5.38C457.4,620.76,457.7,620.39,458.06,620Z"/>
      <path class="hokkaido" d="M339,749.41c-.49,1.89-.51,3.7-2.72,4.37-.64.2-1.1,1.79-1.18,2.78-.11,1.31-.92,2-1.52,3-1.51,2.49-4.61,2.54-6.25,4.64-1.85-.26-3.72-.46-5.55-.81-1.5-.28-3-.73-4.45-1.1a2.21,2.21,0,0,1-.35-.08c-2.72-1.29-5.78-2-8-4.22a3.43,3.43,0,0,1-1.06-2.09c0-1.64-.63-2.35-2.32-2.47-.79,0-.65-.92-.09-1.3s1.31-.48,1.89-.85a1.42,1.42,0,0,0,0-2.34c-2.46-1.1-4.25-3.17-6.87-4.18-1.94-.74-4.46-1.84-4.93-4.6a2.51,2.51,0,0,0-2.61-2c-2,.22-1.76-.75-1.52-1.94a18.38,18.38,0,0,0,.56-2,2.16,2.16,0,0,1,1.64-2c.7-.27,1.21-1,1.88-1.41s.86-1,.23-1.69-1.18-1.18-1.77-1.78c-1.45-1.47-1.29-2.55.51-3.49a.91.91,0,0,1,.33-.13c.92-.12,2.23,0,2.12-1.28a7.14,7.14,0,0,0-1.29-3.12,30.33,30.33,0,0,0-2.46-2.89c-.46-.54-.54-1.13.27-1.36,2.3-.68,4.44-2,6.68-2.49,1.59-.33,3.22-.66,4.85-1a15.56,15.56,0,0,0,5.09-1.36,1.83,1.83,0,0,1,1.38-.18c2,.88,3.56.16,5.06-1.15.31-.27.89-.24,1.35-.35,2.38-.58,2.23-.54,2.88,1.89.51,1.91.26,4.38,3,5.13.26.08.27,1.06.4,1.62a11.52,11.52,0,0,1-1.17.09c-1.8-.06-2.54.28-3.11,1.95-.75,2.21-2.84,3.28-4,5.13-1.32,2-1.37,2.68.65,4.3.41.33,1,.94.94,1.25-.25.91.13,1.16.81,1.63,1.57,1.08,1.33,1.1.64,3.06a7.37,7.37,0,0,0-.11,3.79c.38,1.83,1.28,2.2,2.75,1.12a3,3,0,0,1,3.28-.6,5.74,5.74,0,0,0,4.49,0c1.37-.48,1.89,0,2,1.54.06.71,0,1.43.05,2.14.08,1.11,4.51,6.52,5.59,6.77A12.67,12.67,0,0,0,339,749.41Z"/>
      <path class="hokkaido" d="M391.35,586a13,13,0,0,0-.68-2.34c-.74-1.48-1.86-2.43-3.67-2.1a3.75,3.75,0,0,1-.7.17c-2.63,0-2.62,0-3.37,2.51-.07.24-.33.42-.51.62-.23-.26-.6-.49-.66-.78a3.36,3.36,0,0,1,.08-1.37c.1-.45.51-.92.44-1.31-.27-1.34-1-2.67-.95-4s1.42-2.57.78-4,1.13-2.34.86-3.58-1-2.34-1.3-3.55a2.52,2.52,0,0,1,.28-1.71c.89-1.61,1.59-3.18.75-5a1.19,1.19,0,0,1,.41-1.08,2.92,2.92,0,0,0,1.72-2.92c-.18-2.59,1.19-4.69,1.63-7,.32-1.68,1.3-2.41,2.27-3.37.22-.23.71-.57.82-.5,1.21.83,1.92.27,2.62-.72.11-.16.68-.06,1,0,.08,0,.09.56,0,.8a9.48,9.48,0,0,1-1.44,3.15c-1.23,1.26-1.09,2.42-.05,3.37,1.77,1.62,3.23,3.75,6,4,.74.08,1.37.88,2.12,1.15a17,17,0,0,0,9,.26c3.21-.64,5.24-3.43,5.77-6.91a5.7,5.7,0,0,0,0-1.43,2.35,2.35,0,0,1,1.82-2.69c2.68-.88,5.36-1.77,8.08-2.54a2.58,2.58,0,0,1,1.64.42c1,.55,2.29,1,2.89,1.87s.44,2.25.71,3.38c.58,2.43,1.59,4.81,1.71,7.27.15,2.88.66,5.82-.24,8.71-.36,1.17-.6,2.27-1.89,2.79-.41.17-.7.62-1.05.93-1,.91,1.35,2.59-.93,3.41-1.19.43-1.07,2.21-1.53,3.39a12.21,12.21,0,0,1-2.85,3.86,1.54,1.54,0,0,1-2.24-.33c-1.12-1.22-2.27-1.92-4.08-1.26-.69.25-1.73-.31-2.55-.63-.39-.15-.61-.77-1-.9-1.38-.46-3.14,1.13-4.27-.79l-4.54.4c-.33,0-.75.19-1,0-2.26-1.38-3.57.08-4.83,1.58-1.57,1.86-3.87,3.1-4.3,6C394,584.18,392.46,584.94,391.35,586Z"/>
      <path class="hokkaido" d="M325.08,632.54a5.77,5.77,0,0,0,1.08.85c1,.46,2.46,1.48,3.12,1.13a5.79,5.79,0,0,0,2.77-3.24c.38-1.52,1.11-1.47,2.22-1.59a15.05,15.05,0,0,0,3.76-.83,2.89,2.89,0,0,0,1.05-1.53c-1.56-1.38.09-3.18-.68-4.63-.59-1.11.75-.85,1.06-1.33.4.32,1.05.59,1.13,1,.22,1,.06,2.14.29,3.17s.84,1.41,1.81.66c.45-.36,1.08-.57,1.37-1,1.66-2.51,1.33-7.32-.65-9.72a27.11,27.11,0,0,0-2.26-2.29c-.95-.89-1.74-1.66-1.29-3.27.21-.76-.61-1.94-1.21-2.74s-.94-1.62.07-2.4a6,6,0,0,0,2.22-3.91,9.6,9.6,0,0,1,2.62-4.51c1.54-1.69,3.47-3.28,3.73-5.86a1.81,1.81,0,0,1,.76-1.05,7.44,7.44,0,0,1,1.59-.81c1-.42,1.65-1.86,3.13-1s3.5,1.76,3.64,4c.12,2,.89,3.12,3.06,3a2.5,2.5,0,0,1,1.58.61c1.25,1.07,2.42,2.1,4,.46,1.7.4,3.7-.61,5.15,1,1.16,1.27,3,1.79,3.68,3.63.41,1.11,1.36.38,2.15.21,1.66-.37,2.11,0,1.92,1.42-.12.92-.82,2-.5,2.69a55.27,55.27,0,0,0,3.57,5.61c.37.56,1,1,1.18,1.61.19.82,1.13,2-.59,2.47a.73.73,0,0,0-.44.54c0,1.73-1.42,1.25-2.32,1.49-1.92.5-3.8,1.33-5.88.5a2.36,2.36,0,0,0-1.92.26c-2.13,1.58-4.52,1.15-6.86,1.06a18.68,18.68,0,0,1-3.48-.48c-2.88-.66-4.38.4-5,3.31a29.92,29.92,0,0,1-1.6,4.31c-1.55-.69-2.83-1.31-4.14-1.84-1.75-.72-2.69-.38-3.51,1.2a1.51,1.51,0,0,0,.05,1.9,9,9,0,0,1,1.25,2.88c.29,1,0,1.78-1.21,1.52-.92-.21-1.5-.2-1.84.82a2.81,2.81,0,0,1-2.64,2.05,2.49,2.49,0,0,0-2.3,1.36,1.59,1.59,0,0,1-2.45.54c-1.24-.79-1.82,0-2.2.9-.55,1.29-.88,2.68-1.36,4-.36,1-.61,2-2.2,1.26s-2.63.54-3.62,1.59a5.56,5.56,0,0,1-6.05,1.51,14.78,14.78,0,0,0-5.53-1.14c-.43,0-1.27-.6-1.24-.83.22-1.65-1.22-2.28-2-3.07-1.7-1.67-1.28-3.15-.16-5.22.91.91,0,2.75,1.62,2.77s3.13.56,4.05-1.33c.48-1,1-.83,1.29.18.54,2.18,2.47.72,3.58,1.4.91.56,1.54.09,2.2-.51s1-1.27.3-2.14a25.7,25.7,0,0,1-1.36-2.27Z"/>
      <path class="hokkaido" d="M360.81,640.92a1.73,1.73,0,0,0,0,.38c.22,1.25,1.17,2.25.13,3.84-.71,1.08-.24,2.9-1.19,4.31-.46.68.28,2-.73,2.81a1,1,0,0,0,.05.93c1.13,1,1.38,2.42,2.12,3.53,1.74,2.61,1.2,5.07.31,7.64-.15.44-.69.89-.61,1.23.62,2.87-1.24,4.92-2.41,7.11a7.27,7.27,0,0,1-3.16,2.63c-1.93,1-3.9,1.8-6-.1-.93-.82-2.63-.82-4-1.08-.89-.16-1.73.82-1.62,1.87.08.75.88,1.39.11,2.26a12.9,12.9,0,0,0-1.25,2c-.56-.49-1.08-1-1.68-1.46s-1.38-.82-2-1.26-1.33-.71-1.59-1.26c-.62-1.28-1.24-1.87-2.75-1.22a1,1,0,0,1-1.37-1.33c.84-1.71.22-2.78-.82-4.1-2-2.49-1.12-5.4-.56-8.09a7,7,0,0,0,0-4.47,5.33,5.33,0,0,1-.22-3.16c.69-2.76-.69-4.61-2.32-6.51-.55-.63-1.15-1.78-.92-2.39.33-.88,1.34-1.55,2.17-2.18.23-.17.82.14,1.25.22,1.95.35,2,.35,2.85-1.58a22,22,0,0,0,1.22-2.94c.4-1.45.93-2.12,2.5-1.19a1.63,1.63,0,0,0,2.37-.92,3.18,3.18,0,0,1,2.35-1.87,7,7,0,0,0,2.8-2c.42-.43.58-.35,1.06-.3s1.53-.05,1.78-.44a3.31,3.31,0,0,0,.38-2.25c-.3-1.37-.91-2.68-1.34-4-.18-.56.91-1.64,1.43-1.39,1.38.64,3,1.07,4,2.12a10.2,10.2,0,0,1,2.57,4.76c.3,1.7,1,2.6,2.46,2.85s1.85.92,1.41,2.41c-.18.63.37,1.56.77,2.25S361.93,639.85,360.81,640.92Z"/>
      <path class="hokkaido" d="M394.29,535.38c0,.7.13,1.4.11,2.1,0,1.66.41,3.65-.36,4.86-.59.93-2.73.89-4.18,1.26a5.77,5.77,0,0,0-4.79,4.91c-.43,2.29-1.38,4.47-1.47,6.87a2.62,2.62,0,0,1-1.2,2c-2,.81-1.59,1.94-.89,3.39a2.14,2.14,0,0,1,.05,1.83c-1.76,1.89-1.27,3.94-.49,5.92a3.51,3.51,0,0,1,.18,2.66,8,8,0,0,0-.37,3.49c.22,1.46-1.51,1.92-1.36,3,.12.93.91,1.76,1.28,2.68a2.17,2.17,0,0,1,0,1.4,5.3,5.3,0,0,0,2,6.5c.74.56.8,1,.21,1.7a25.14,25.14,0,0,0-1.81,2.64c-.65,1-1.69,1.68-1.47,3.42s-1.9,3.22-3.87,3.38a2.39,2.39,0,0,1-1.42-.68c-1-.8-1.95-1.69-2.94-2.53a7.3,7.3,0,0,0-7.72-1.24,1.29,1.29,0,0,1-1.82-.55,1.94,1.94,0,0,0-2.25-1.26,1.87,1.87,0,0,1-2.25-1.76,5.66,5.66,0,0,0-3-4.12c-.38-.24-.81-1.11-.67-1.35.71-1.19,1.38-2.81,2.49-3.27,3.27-1.38,5.22-4.06,7.3-6.6,3.28-4,6.52-8.06,9.51-12.28A44.74,44.74,0,0,0,380,549.44c.45-1.67-.24-3.67.29-5.29a5.11,5.11,0,0,0-.87-4.92,5.67,5.67,0,0,1-1.17-4.61,3.14,3.14,0,0,0-1.68-3.85c-1.29-.57-.77-1.83-.33-2.78.55-1.18,1.3-2.26,1.89-3.42.26-.51.68-1.27.48-1.63-1.5-2.76,1.14-3.49,2.38-4.77a10.83,10.83,0,0,1,3.35-2,2.65,2.65,0,0,1,2-.14c1.38.73,2.52.27,3.71-.35,2.8-1.48,6-2.29,8.19-4.84a3.33,3.33,0,0,1,1.54-.79c2-.65,4.05-1.25,6.07-1.86.23-.07.47-.27.67-.24,1,.18,2.5.09,2.95.72.63.86.51,2.28.6,3.46,0,.14-.72.5-1.08.47-3.58-.27-5.09,1.4-4.53,5.06.15,1,1.43,2.08.19,2.87a5.72,5.72,0,0,1-3.35.7,4.65,4.65,0,0,0-4.74,2.76c-.67,1.2-1.12,2.54-2.51,3.2-.57.27-1.11,1-1.61.93a3.68,3.68,0,0,1-1.78-1.11c-2.07-1.93-3.2-1.72-4,.71-.4,1.23-1.12,2.37-1.43,3.61-.24,1,.29,1.93-.66,3-.77.86,1.16,3.16,2.29,2.61,1.44-.69,1.9.17,2.7.81,1.74,1.38,2.68,1,3.54-1.21.16-.41.36-.81.54-1.21Z"/>
      <path class="hokkaido" d="M266.63,721c-.79.6-1.91.87-1.43,2.36a2.22,2.22,0,0,1-.78,1.88c-1.63,1.22-1.1,2.76-.7,4.16s.87,3.1,2.71,3.39c1.59.25,2,1.34,2.43,2.62.21.67,1,1.46.81,1.88-.29.64-1.2,1-1.82,1.49a7.27,7.27,0,0,0-1,1,1.24,1.24,0,0,0,.4,2.08,31.42,31.42,0,0,0,3.44,1.3,38.94,38.94,0,0,0-4.8,2,9.55,9.55,0,0,0-3.43,2.79c-1.64,2.62-4.16,3.81-6.79,4.73-1.39.49-2.84,1.56-2.8,2.36.14,2.71-2.25,2.84-3.54,3.81-2,1.51-5.79-.5-6.37-3.08-.06-.24.21-.56.33-.84a2.62,2.62,0,0,0-1.36-3.79,9.19,9.19,0,0,0-1.33-.48c-2.76-.6-2.64-.61-3.07-3.47a9.3,9.3,0,0,0-1.64-4.53c-.63-.74-2.37-.64-3.57-1.11A1.42,1.42,0,0,0,230.8,743a1.15,1.15,0,0,1-2.05.78c-2.24-2.47-5.16-2.42-8.08-2.69A17.86,17.86,0,0,1,217,740c-.63-.2-.63-.38-.13-.89,1.56-1.58,1.47-3.6,1-5.51a1.94,1.94,0,0,1,1-2.57c1.14-.75,1.83-2.41,3-2.83a30,30,0,0,0,4.23-2.05,4.21,4.21,0,0,1,4.95.37c1.9,1.57,3,1.59,4.52-.14a3.25,3.25,0,0,1,3-1.44,2.77,2.77,0,0,0,3.25-2.15c.29-1.29,1-1.22,2-1.48,3.67-1,7.18-.08,10.72.59,1.14.21,1.89.21,2.6-1,2.06-3.62,4.6-4,7.72-1.32C265.36,720.07,266,720.54,266.63,721Z"/>
      <path class="hokkaido" d="M544.82,612.88c-.27,1-.48,1.82-.67,2.62-.38,1.68-.38,1.69-2.15.94a8.43,8.43,0,0,0-5,.37,2.81,2.81,0,0,1-1.86.32c-1.8-.53-3.33-.91-4.68,1.08-.42.62-2.13,0-2.9,1a3.54,3.54,0,0,1-.45-1.07c-.09-1.37-.56-1.67-1.79-.91a11.79,11.79,0,0,1-2.62,1.06c-3.18,1.05-5.67.19-7.88-2.5a3.22,3.22,0,0,0-2-1.18,27.79,27.79,0,0,1-7.5-1.77c-2.07-.72-4.42-.64-6.24-2.15a22.73,22.73,0,0,0-4.23,2c-1.87,1.36-1.9,1.6-4,.42-1.47-.84-3.65-.42-4.43-2.46-2.9,0-1.65-2.94-2.86-4.2-.5-.53,1.59-3.43,2.46-3.25,2.06.41,3.08-.76,4.12-2.13a1.69,1.69,0,0,1,.82-.67c2.75-.64,5-2.42,7.59-3.38,2-.74,2.18-1.07,3-3.3a31.48,31.48,0,0,1,3-5.58c.53-.87,1.36-.61,2.21-.24a21.24,21.24,0,0,0,6.71,2c.45,0,1.07.45,1.32.27,2-1.44,3.31,0,4.59,1.15a6.79,6.79,0,0,0,7.56,1.22c1-.37,2.19-1.09,3.15.27.13.18.65.17,1,.13.9-.09,1.89-.52,2.63-.24.41.15.31,1.48.57,2.24a21.71,21.71,0,0,0,1.46,3.6c.28.51,1,.75,1.57,1.13,1.75,1.25,3.51,2.44,3.35,5-.1,1.76.9,3.1,2,4.43A30,30,0,0,1,544.82,612.88Z"/>
      <path class="hokkaido" d="M333.65,736.33c-1.79,0-2.9,2.19-4.9,1.5-1.39,1.16-2.84.37-4-.22-1.34-.68-2.24-.12-3.36.24-.52.16-.51,1.69-1.35.62-.46-.58-1.12-1.36-.39-2.24.16-.18.34-.34.48-.53,1-1.47.69-2.91-.15-4.32-.57-1-1.17-1.91-1.79-2.84s-1.81-1.79-1.66-2.44a10.44,10.44,0,0,1,2.11-3.4c.33-.46,1.15-.7,1.26-1.17.62-2.41,1.94-3.46,4.51-3.09.95.14,1.5-.74,1.12-1.72a6.07,6.07,0,0,0-1.45-2.73c-1.27-.93-2.2-1.81-1.92-3.47.22-1.26-.64-2.35.3-3.9,1.46-2.41.7-5.44.28-8.18-.16-1-.81-1.87-.07-3a2.06,2.06,0,0,0,.1-1.72c-1.33-2.85,0-5.2,1.16-7.65a10.43,10.43,0,0,0,.58-2.93c.55.89.94,2.35,1.82,2.76a19.28,19.28,0,0,0,5.76,1.5c.7.09,1.47-1,2.31-1.3s2.48-.85,2.86-.44c1.37,1.45,3.11,1.54,4.78,2,.37.11.55.86.82,1.32-.37.06-.73.14-1.1.17-.85.09-1.13.71-.45,1.07,1.49.8,1.2,1.44.42,2.66s-.33,2.47,1,3.29a5,5,0,0,0,1.93.86,8.35,8.35,0,0,1,4.25,2,2.23,2.23,0,0,1,1.11,2.22c0,1.09-.65,1.36-1.61,1.41a17,17,0,0,0-2.67.41,3.37,3.37,0,0,0-2.46,4.82c.45,1.09,1.57,2.43,1.25,3.2-.73,1.79.12,3,.64,4.41a3,3,0,0,1-.49,2.22c-.7,1.08-.51,2.08-.49,3.26a52.76,52.76,0,0,1-.69,7.4c0,.24-.81.67-1,.57-1.45-.76-2.21.18-3,1.08-1.18,1.33-2.3,2.52-4.3,2.87-1.58.27-1.75,2-1.69,3.51Z"/>
      <path class="hokkaido" d="M190.61,654c1.89-.64,3.66-1.28,5.46-1.83,1.24-.37,2.06-.61,1.59-2.37s-.71-3.49.68-5.1c.37-.43-.08-1.52,0-2.3.11-2.4.31-2.58,2.56-2.68a6,6,0,0,0,1.42,0,3.88,3.88,0,0,0,1.67-.91,9.54,9.54,0,0,1,10-3.21,32,32,0,0,0,10.5,1.26c2.11-.14,4.21-.53,6.32-.77a48.08,48.08,0,0,1,6-.59,31.89,31.89,0,0,0,9.37-1.57c1.3-.39,2.76-.7,3.62-2.07.25-.4,1-.56,1.48-.76,2.92-1.12,3-1.09,3.8,1.82a31.48,31.48,0,0,1,1.06,4.44c.2,1.52-.12,3.19,1.79,3.89a.43.43,0,0,1,.2.29c.24,2.79,2,5.16,2.26,7.93.14,1.37-2.83,3.68-4.18,2.95-2.08-1.13-3,.15-4.26,1.17a5.2,5.2,0,0,1-2.13,1.11c-2.28.43-4.59.69-6.85,1a20.69,20.69,0,0,1-.88-3.65c-.13-2.13-1.36-2.81-3.2-3.07a11.58,11.58,0,0,1-2.71-.74,3.69,3.69,0,0,1-1.52-1.15c-1.43-1.91-3.05-2.29-4.46-.49a11.05,11.05,0,0,1-2.87,2.3,15,15,0,0,0-2.39,2.65c-2.05-4.68-6.8-4.34-10.8-5.41-1.74-.47-2.28.06-2.91,1.77-.36,1-.56,2-.89,3.05-.13.43-.29,1-.61,1.2-1.21.56-3.11.54-1.85,2.75,0,.06-.39.49-.66.6-1.26.49-2.32,1.28-4,.76s-2.3.24-1.69,2.1c.18.57.42,1.11.71,1.87l-5.15,1a2.14,2.14,0,0,0-.67.18c-2.76,1.52-3.71,1.86-5.31,1.88-2.13,0-3-1.37-2-3.24a2.32,2.32,0,0,1,.44-.55c.69-.61,1.92-1.15,2-1.81C191.68,656.6,191,655.45,190.61,654Z"/>
      <path class="kyushu" d="M33.18,797.21a13.41,13.41,0,0,1-10.4-4.69c-.46-.5-.82-1.21-1.39-1.5-1.48-.76-2.14-1.3-1-3.18.91-1.49-.74-3.24-2.62-3.47-1-.12-2-.57-3.07-.68A1.36,1.36,0,0,1,13.33,782c.3-1.77-.51-2.92-1.71-4-.67-.62-1.42-1.27-.69-2.44.5-.82.52-1,1.24-.09s1.76.38,2.39-.51c1.5-2.12,1.41-4.54-.66-6.77-1.07-1.15-.94-2-.17-2.95a26.49,26.49,0,0,1,3.55-3.39c.28-.23,1.14,0,1.54.24s.78,1,.64,1.29c-1.11,1.93.72,2.91,1.6,3.39a4.43,4.43,0,0,0,3.94,0,5.78,5.78,0,0,1,3.26-.9c2-.13,4,.09,6-.14,3.39-.38,6.26,1.73,9,3.49,1.8,1.14,1.94,1.25,3.55,0,.28-.22.48-.62.79-.71A5,5,0,0,1,50,768.1c.32.07.44,1.2.56,1.86.29,1.68-.09,3.16-1.91,3.59-1.32.32-1,1.53-1.63,2.16s-1.54,1-2.18,1.58c-1.07,1-2,2.16-3,3.22a2.28,2.28,0,0,0-.65,2.74,1.2,1.2,0,0,1-1,1.83c-.89.13-1.47.58-2.27-.57-1.3-1.88-2.11-1.89-3.74-.46s-2.84,2.82-4.85,3.49a1.82,1.82,0,0,0-.58,1.69C30.06,791.87,31.59,794.42,33.18,797.21Z"/>
      <path class="hokkaido" d="M494.39,642.45a3.92,3.92,0,0,1,2.76-3.62,35.44,35.44,0,0,0,5.9-3.39,3.93,3.93,0,0,0,1.13-1.67c.95-2,1.59-4.15.74-6.43a1.14,1.14,0,0,1,.29-.94c.11-.11.68,0,.84.18,1.12,1.31,3.3,1.3,3.93,3.25a1.33,1.33,0,0,0,1.18.48c1.41-.92,2.7.11,4,.12a4.64,4.64,0,0,1,4.13,2.31,28.87,28.87,0,0,0,2.66,3.32c.27.31.92.76,1,.67a2.39,2.39,0,0,0,1-1.29c.19-1,.09-2.13.21-3.19a8.41,8.41,0,0,1,.5-2.4c.65-1.52,1.13-1.46,2.73-1.09,3.74.85,5.8,3.6,7.87,6.64a16.68,16.68,0,0,0-3,1.46,4.07,4.07,0,0,0-1.51,2.19c-.07.33,1.1,1,1.71,1.43.25.2.52.37.78.56-.32.25-.66.48-1,.74s-.9.55-.92.85c-.14,1.9-.06,3.79-.23,5.71-.2,2.2,1.93,3,3.77,3.57.43.14.84.32,1.25.48a14.63,14.63,0,0,1-.93,1.39c-.13.15-.45.13-.65.24-1.78,1-3.13,2.18-2.92,4.58a9.37,9.37,0,0,1-.74-2.63c0-2.47-2.09-3.92-2.69-6.08a1.72,1.72,0,0,0-1.05-.89c-4.32-1.45-8.69-2.31-13.18-.79-2.55.86-5.16,1.46-7.35,3.33-1.34,1.14-2,2.13-1.91,3.84.06,1.21.5,3-1.35,3.12-1.47.14-3.33.34-3.86-1.92-.11-.48-.84-.79-1.12-1.27-1-1.74-2-3.27-.16-5.38s.47-5-.1-7.47c-.06-.27-.79-.58-1.19-.55A15.32,15.32,0,0,0,494.39,642.45Z"/>
      <path class="hokkaido" d="M11.92,820.28a12.49,12.49,0,0,1,2-4.37c.38-.57.64-1.22,1.05-1.77.74-1,.39-1.65-.41-2.44-1-1-1.84-2.15-2.76-3.23s-.9-3.24-3.18-2.2a15.61,15.61,0,0,1-2.33-2.57c-.91-1.62-1.54-3.4-2.29-5.11-.14-.32-.49-.85-.42-.91,2.25-1.9.69-5.32,3-7.23,1.15,1.89,1.86,4.26,4.55,4.88.84.19,1.48,3.84,1,4.77-.27.52-.85.94-.93,1.47-.13.86-.41,1.87.9,2.36.62.23,1.09.9,1.63,1.36,1,.86,1.6.78,2.62-.29,1.57-1.65,3.27-3,2.83-5.62-.05-.3.25-.66.38-1,.69-1.74,1.94-3.64-.23-5.11-1.48-1-2.42-2.9-4.87-2.52-1.87.28-2.09-.27-2-2.64,0-.87.09-1.76-.87-2.11-1.72-.63-3.48-1.18-5.25-1.69a11.79,11.79,0,0,1-5.87-3.56A2.06,2.06,0,0,1,.09,779a5.56,5.56,0,0,0,.51-5c-.47-1.32.26-1.93,1.77-1.4,1.14.4,2.49-.48,3.54.82.32.39,1.74,0,2.63-.19,1.33-.23,1.8.07,1.42,1.33a4.67,4.67,0,0,0,1,4.64,3.15,3.15,0,0,1,.9,1.75c-.12,2.85,1.64,4,4,4.6.68.18,1.4.2,2.09.34,1.45.3,1.63.71.77,2.18-.64,1.11-.59,2.42.37,2.85,1.93.86,2.87,2.65,4.31,3.94a12.77,12.77,0,0,0,7,3.2,4.76,4.76,0,0,1,1.39.24c.52.27,1.06.73.31,1.34s-1.84,1.42-2.76,2.13a1.54,1.54,0,0,0-.59,2.11c.81,2,2.12,2.71,4.34,1.82.87-.35,1.61-1,2.46-1.45,2.13-1.09,3.78-.3,5,1.66,2.08,3.23.93,6.29-.17,9.32-.25.7-1.69,1.17-2.66,1.36s-1.8.25-2.34,1.6c-.82,2-1.6,2-3.5.8-.4-.26-.81-.52-1.18-.81-1.05-.85-1.06-1.32-.07-2.19.72-.62,1.49-1.18,2.15-1.86,1.73-1.75,1.81-3.44.29-5.32-.21-.27-.53-.63-.81-.64-2.34-.09-4.9-1-6.92.61A5.23,5.23,0,0,1,20.75,810a1.59,1.59,0,0,0-1.35.52,21.41,21.41,0,0,0-1.81,3.77A5.31,5.31,0,0,1,15,817.42C13.93,818,13.17,819.07,11.92,820.28Z"/>
      <path class="hokkaido" d="M309.25,672.66c-.27-.47-.48-1.29-.83-1.35-2.82-.53-2.79-2.51-2.51-4.74.4,1.17,1,2,2.35,1.81a3.07,3.07,0,0,1,3.72,2.5,3.06,3.06,0,0,0,.4,1c1.74,2.34,3.05,2.28,4.83-.18.51-.72,1.07-1.72,1.33.15a1.22,1.22,0,0,0,.57.8c3.13,1.67,3.15,5.67,5.76,7.75.16.12,0,1.07-.24,1.22-2.3,1.4-1.42,4.41-3.13,6.07.57,2.3-1.56,4.53-.18,6.85-1.77,2.22,1,4,.59,6.14-.1.56.21,1.19.13,1.76a16.28,16.28,0,0,1-.74,3.42c-.53,1.46-2,.9-3.08,1.24-1.67.54-3.38,2-4.88,1.78-1.8-.27-3.13.6-4.68.65-3,.1-5.5,1.79-8.47,1.87-1.18,0-2.31,1-3.51,1.39a15.71,15.71,0,0,1-3,.59c-.21,0-.51-.35-.68-.6,0-.08.17-.44.34-.53a6.74,6.74,0,0,1,2.48-1.22c2.59-.13,3.76-2.27,5.57-3.49,3.53-2.38,5.6-6,8.23-9.17,2-2.43,3.33-5.34,2-8.87-.52-1.35-1.3-3-.31-4.75.4-.73-.2-2.44-.88-3.26-1.29-1.55-1.15-2.91-.44-4.57s1-3.18-.76-4.37Z"/>
      <path class="hokkaido" d="M537,633.86c-1.12-.75-2.19-1.1-2.64-1.83-1.86-3-5.14-3.58-8-4.91-.9-.42-1.15,0-1.65.64a9.77,9.77,0,0,0-2.09,6.69,21.54,21.54,0,0,1-1.54-1.65,9.51,9.51,0,0,0-8.34-3.91c-.94,0-2.14.29-2.52-.8-.57-1.62-1.93-1.85-3.21-2.41-2.14-.94-4.24-2-6.32-3.07a6.58,6.58,0,0,1-3.06-4.15,29.48,29.48,0,0,0-1.26-3.64c-.72-1.53-.77-1.91.55-2.21,1-.23,2.2-1.22,3.15.19,3.81.65,7.25,2.9,11.28,2.58,1.27-.1,2.32.12,2.8,1.6.18.52,1,.87,1.48,1.24.17.11.47,0,.7.08,1.26.16,1.26,2.77,3.38,1.53,1-.6,2.52-.43,3.8-.59.33,0,.77-.19,1,0,1.09.81,2.18,1.93,3.58,1,1.15-.78,3,.09,3.63-1.68a15.37,15.37,0,0,1,3.78,0c1.25.32,2.12.56,3.16-.56.79-.83,4.38.15,4.93,1.21.7,1.36,1.2,2.82,1.83,4.21s-1.11,1-1.14,1.84c-.05,1.1-.37,1.1-1.48.92-4.58-.75-5.47.07-5.77,4.77C536.92,631.75,537,632.58,537,633.86Z"/>
      <path class="hokkaido" d="M214.17,717c1.83.55,3.76,1.32,4.72-.33,1.66-2.87,4.43-3.79,7.14-5,.75-.33,1.75-.74,2-1.38,1.15-2.77,3-1.43,4.72-1a20.69,20.69,0,0,0,3.07.64c2,.19,4.06-.72,6,.61.53.36,1.75-.33,2.66-.5,1.39-.27,1.85.19,2,1.9,0,.41.07,1,.32,1.17a29.16,29.16,0,0,0,5.82,3.16,6.89,6.89,0,0,1,3.22,2.58,1.39,1.39,0,0,1,0,1.3,1.31,1.31,0,0,1-1.22.34c-3.65-1.6-7.42-.37-11.12-.43a3.59,3.59,0,0,0-2.85,1.68c-.53,1.63-1.43,1.88-2.83,1.93a4.38,4.38,0,0,0-3.21,1.65c-1.38,1.49-1.94,1.29-3.5-.2-.44-.42-1.16-1-1.63-.87a49.93,49.93,0,0,0-5.39,1.48c-2.25.71-4.28,1.61-5.62,3.83-.61,1-1.88.24-2.9-.2s-.92-1.13-.81-2a56.14,56.14,0,0,0,.67-6.69C215.52,719.61,214.77,718.54,214.17,717Z"/>
      <path class="hokkaido" d="M457.26,489.14c2.14-1.35,4-2.65,3.48-5.68-.09-.54.76-1.35,1.31-1.89,2-1.91,1.89-3.44-.24-4.75a1.83,1.83,0,0,0-2.56.25c-.41.42-.85.81-1.62,1.55.44-3.25.5-6.05,2.3-8.58s3.34-5.14,5.91-6.92c1.72-1.2,3.42-2.32,3.65-4.7,0-.44.79-.83,1.26-1.19a.7.7,0,0,1,.63,0,.73.73,0,0,1,.29.58c-.84,3.15-.8,6.55-2.94,9.32a7.22,7.22,0,0,0-1.17,2.94c-.56,2.68,1.16,4.2,3.88,3.57,1-.22,2-.35,3-.52-.34,1-.62,1.92-1,2.85-.77,1.85-1.56,3.7-2.41,5.51a4.09,4.09,0,0,1-1.12,1.36c-1.85,1.48-3.74,2.91-5.62,4.35-.09.07-.17.19-.28.22Z"/>
      <path class="hokkaido" d="M270.47,715.34a5.2,5.2,0,0,1-1.05-1.44c-.14-.41.24-1.44.47-1.46,3.13-.33,3.58-3.18,4.78-5.17s1.77-4.07,4-5.21c.62-.33.86-1.37,1.34-2s.83-1.26,1.41-1.47a7.64,7.64,0,0,0,3.83-3.54c.23-.39.93-.49,1.42-.72,0,.54.33,1.23.1,1.6a71.77,71.77,0,0,1-4.42,6.7c-2.2,2.82-2.52,5.6-.68,8.72.57,1,1.07,2,1.6,3-1.05.47-2.13.9-3.14,1.44-1.24.65-2.39,1.49-3.65,2.09a12.83,12.83,0,0,1-3,.9c-.71.14-1.54-1.26-1.24-1.95C272.81,715.46,272.81,715.46,270.47,715.34Z"/>
    </g>
    <path class="hokkaido" d="M60.26,942.19c-.69,3.34-2.11,4.66-4.69,6.18-1.15.68-2.71,2.74-4.23,2.74-3.55,0-5.71-2.6-7.14-5.62-.55-1.16-1.77-1.93-1.77-3.3s2.24-2.69,2.89-3.93c1.5-2.83,2.6-5.11,6-5,1.13,0,2.43,1.05,3.16.58,2.06-1.32,3.36,3.14,5.06,4.87A3.37,3.37,0,0,1,60.26,942.19Z"/>
    <g>
      <path class="hokkaido" d="M756.47,632.54a37.62,37.62,0,0,1-1.83,4.44c-1.55,2.72-3.32,5.31-4.93,8a5.38,5.38,0,0,1-4.62,2.58c-1.44,0-2.84,0-3.57,1a8.39,8.39,0,0,0-1.42,4c-.44,4-1.14,4.59-5.2,3.81-1.66-.31-2.92-.33-3.21,1.88-.07.55-1.16,1.24-1.87,1.39-2.23.44-1.55,2.74-2.68,3.87s-3.41.36-3.49,2.91c0,1.38-1.45,1.53-2.72,1a13.24,13.24,0,0,0-1.88-.59c-2.38-.68-3.59-.36-4.63,1.47-.94,1.65-.91,3.16,1.06,4.15.43.22,1,.64,1,1,.32,2.59,1.3,4.63,3.84,5.8.38.18.25,1.48.36,2.27-.72,0-1.44.11-2.16.14-.14,0-.29-.16-.43-.24-4.84-2.32-4.81-2.31-7,2.7-.86,1.94-1.93,3.79-2.88,5.7a11.17,11.17,0,0,0-1.22,2.69c-.48,2.34.81,3.39,3.29,2.82.32-.08.65-.3.94-.25a3.57,3.57,0,0,1,1.28.56,1.4,1.4,0,0,1-.34.87c-3.37,2.93-6.68,5.94-10.2,8.68-1.72,1.34-3.05.58-3.25-1.75-.27-3.08-.43-6.14-1.81-9-.2-.39-.14-1.36,0-1.41,3-1,2.4-4.82,5.17-6.17,4-2,4.86-5.49,3.57-9.62a7.56,7.56,0,0,0-.27-1c-1-2.24-2.09-4.47-3.13-6.7,2.36-.57,4.9-.77,7-1.82s4.17-2.55,5.11-4.43a6,6,0,0,1,3.47-3.12c2-.82,4-1.47,6-2.31a4.09,4.09,0,0,0,2.85-3.7c.09-1.88-1.06-2.65-2.51-3.26a14.65,14.65,0,0,0-3.51-1.45c-2.46-.35-3.85-2.12-2.7-4.17.8-1.42.83-2.21-.46-3.36s-.2-1.72,1-1.88c.82-.11,1.81.25,2.46-.1,3.08-1.65,4.45.39,5.83,2.5.72,1.09,1.41,2.21,2,3.35,1.58,2.79,1.68,2.82,4.26,1.32,1.28-.74,2.61-1.42,3.88-2.18.54-.32,1.48-.91,1.42-1.17-.94-3.74,3.83-4.26,4-7.29,3.93-2.53,5.77-6.44,7.06-10.71.14-.48.22-1,.37-1.44.45-1.34,1.27-1.34,2.24-.55C754.82,626,756.59,628.65,756.47,632.54Z"/>
      <path class="hokkaido" d="M852.84,492.21a16.66,16.66,0,0,1-2.33.68,6.5,6.5,0,0,1-6.66-3.91,15.81,15.81,0,0,0-1.15-3.18c-2-3.15-2.05-3.1,1.72-3.91.3-.06.8-.55.76-.65-.41-1-.68-2.28-1.45-2.77-1.2-.77-2.77-.93-4.13-1.48a1.41,1.41,0,0,1-.58-1.23c.06-.31.66-.62,1.07-.76s1,0,1.48-.15c1.56-.53,1.92-1.47,1-3.22-.44-.87-.82-1.4.47-1.66a25.73,25.73,0,0,1,4.34-.89c3.14-.05,5.44-1.05,6.49-4.27.19-.57,1.43-1.39,1.78-1.22,3.66,1.75,5.69-2,8.63-2.5.91-.17,1.7-1,2.6-1.16,2.19-.29,4-.64,4.24-3.47.08-1,.7-2.8,2.72-1.94a1.72,1.72,0,0,0,1.28-.32c1-.62,1.84-1.33,2.76-2a14.44,14.44,0,0,0,1.59,2.73,3.15,3.15,0,0,0,2.07.9c.4,0,1.1-.74,1.21-1.25.31-1.4.36-2.86.56-4.29a8.41,8.41,0,0,1,.54-2.25,1.74,1.74,0,0,1,1.16-.67c.19-.05.62.28.73.53.9,2.1,1.64,4.27,2.66,6.31.92,1.84.21,2.83-1.41,3.46a16.53,16.53,0,0,1-4.65,1.51c-1.93.13-2.76,1-3.79,2.54a57.93,57.93,0,0,1-6.39,7.54,6,6,0,0,1-3.11,1.33c-3,.55-4.13,3-5.47,5.24-1,1.58.76,1.93,1.46,2.66,1,1,.78,1.69-.39,2.25-.73.35-2.07.55-2.15,1-.67,4.13-3.62,2.65-6,2.59-1.34,0-1.23.59-.68,1.44.18.28.26.61.43.9.61,1.05,2.33,1.73,1.23,3.35a7.62,7.62,0,0,1-2,2.15,8.21,8.21,0,0,1-2.49.64C852.93,492.59,852.89,492.4,852.84,492.21Z"/>
      <path class="hokkaido" d="M381.81,896.5c-.43.79-.88,1.67-1.39,2.52-.9,1.53-1.88,3-2.76,4.56-.76,1.35-1.57,1.53-3.2,1.14-2.92-.7-5.65-2.16-8.79-2.12-1.14,0-2.24-.49-3.17.54s-1.68.65-2.49-.13-1.53-1.73-.64-3c1.58-2.23,3.17-4.46,4.67-6.75a22.85,22.85,0,0,0,2.58-4.62c.56-1.57,1.33-1.38,2-.44,1.72,2.53,4.1,2.94,6.91,2.81,3.09-.15,4.44,2.44,6.09,4.45C381.76,895.68,381.73,896.08,381.81,896.5Z"/>
      <path class="hokkaido" d="M819.65,514c2.33.14,3.23.84,3.28,3.41.06,2.85.8,4.88,3.32,6.68,3,2.14,3,3.74,1.18,7.21a22.86,22.86,0,0,1-3.42,5.36c-1.77,1.83-3.32,1.41-4.82-.75a10.06,10.06,0,0,0-1.33-2.07c-1.75-1.44-2.51-2.92-1.13-5.08a4.25,4.25,0,0,0-.06-4.21c-1.28-2.75-.61-5.43-.08-8.23C817,514.27,818,513.83,819.65,514Z"/>
      <path class="hokkaido" d="M400.46,895.45a9.37,9.37,0,0,1-2.45-1.87c-.76-1-.23-2.18.78-3.05.61-.53,1.65-1.47,1.51-1.81a6.5,6.5,0,0,0-2.12-2.64,8.81,8.81,0,0,0-2.76-.83c-.31-.09-.6-.25-.9-.37a6.55,6.55,0,0,1,.69-1c.71-.69,1.48-1.32,2.19-2a2.73,2.73,0,0,1,3.59-.39c2.8,1.52,4.58.93,6.3-1.51a91.76,91.76,0,0,0,7.37-11.61,3,3,0,0,1,2-1.57c.7-.07,1.25,2.61.74,3.42-1.82,2.91-3.71,5.78-5.48,8.72s-3.89,5.79-2.08,9.62a5.31,5.31,0,0,1-.05,3.43,3.38,3.38,0,0,1-1.77,2.14A76.19,76.19,0,0,1,400.46,895.45Z"/>
      <path class="hokkaido" d="M499.79,849.22a20.35,20.35,0,0,1-2.47,0c-2.84-.35-3.32-1.29-2.37-3.85a74.85,74.85,0,0,0,2.61-8.23,6.55,6.55,0,0,0-1.17-5.66,16.31,16.31,0,0,1-1.91-2.85,6.84,6.84,0,0,1-.3-2.16,7.56,7.56,0,0,1,1.6.83c2,1.76,4,3.78,4.24,6.52.47,5.76,4.67,8.32,8.76,11.1,1.28.87,3.34.74,3.67,2.84l-4.33.59-8.31,1.09Z"/>
      <path class="hokkaido" d="M788,573.06c-1.48,0-4.32-3.34-4-5a1.64,1.64,0,0,1,.89-1,8.58,8.58,0,0,1,3.26-.9,14.9,14.9,0,0,0,10.48-3.43c.24-.19.76,0,1.16,0,0,.31.08.74-.08.9-2.77,2.81-5.49,5.65-8.41,8.3C790.5,572.64,789.14,572.69,788,573.06Z"/>
      <path class="hokkaido" d="M912.54,464.37c.28,3.8-2.77,5.36-4.77,7.44-1,1.08-3.89.55-5-.71a1.63,1.63,0,0,1,.15-1.6c.81-.78,1.89-1.27,2.76-2,1.47-1.26,2.83-2.67,4.32-3.92a7.54,7.54,0,0,1,1.94-.84Z"/>
      <path class="hokkaido" d="M487.92,834a18.09,18.09,0,0,1,3.87,3.22c.46.61-.17,2.55-.89,3.38-.45.52-2.23.5-3,0a9.31,9.31,0,0,1-3-3.18C484.09,836,485.51,834,487.92,834Z"/>
    </g>
  </a>
  </g>
</svg>
