<?xml version="1.0" encoding="utf-8"?>
<!-- Generator: Adobe Illustrator 22.0.0, SVG Export Plug-In . SVG Version: 6.00 Build 0)  -->
<svg version="1.1" id="Layer_1" xmlns="http://www.w3.org/2000/svg" xmlns:xlink="http://www.w3.org/1999/xlink" x="0px" y="0px"
	 viewBox="0 0 109.1 107.9" style="enable-background:new 0 0 109.1 107.9;" xml:space="preserve">
<g>
	<g>
		<path d="M54.1,105.8c-0.5,0-1.1,0-1.6,0c-1.3-0.1-2.7-0.1-4-0.3c-1.5-0.2-3-0.4-4.5-0.6c-1.5-0.3-3-0.7-4.5-1.1
			c-2.1-0.6-4.1-1.3-6.1-2.1c-1.7-0.7-3.3-1.6-5-2.4c-1.3-0.7-2.5-1.4-3.7-2.2c-1.2-0.8-2.4-1.6-3.5-2.5c-1.3-1.1-2.6-2.2-3.9-3.4
			c-0.9-0.8-1.7-1.6-2.5-2.4c-1.8-2-3.5-4.1-5-6.4c-1.4-2.2-2.7-4.4-3.8-6.8c-0.8-1.8-1.6-3.7-2.2-5.6c-0.5-1.5-0.8-3-1.2-4.5
			c-0.3-1-0.5-1.9-0.7-2.9c-0.1-0.6-0.2-1.2-0.2-1.9c-0.1-1.1-0.2-2.1-0.3-3.2c0-0.4-0.1-0.9-0.1-1.3c0-1.6,0-3.3,0-4.9
			c0-1.3,0.2-2.5,0.3-3.7c0.4-3.8,1.3-7.5,2.6-11.1c1.5-4.1,3.4-8,5.9-11.6c1.2-1.7,2.4-3.4,3.8-5c0.7-0.7,1.3-1.5,2-2.2
			c1.2-1.3,2.4-2.4,3.8-3.5c1.3-1.1,2.7-2.2,4.1-3.2c2-1.4,4-2.6,6.1-3.6c2-1,4.1-1.9,6.2-2.7c2.5-0.9,5-1.6,7.6-2.1
			c1.3-0.2,2.6-0.4,3.9-0.6c1.1-0.1,2.2-0.2,3.3-0.3c1.2-0.1,2.4-0.1,3.6-0.1c1.1,0,2.2,0,3.4,0.1c1.2,0.1,2.4,0.3,3.6,0.4
			c1.2,0.2,2.4,0.3,3.5,0.5C66,2.7,66.9,3,67.8,3.2c1.5,0.5,3.1,0.9,4.6,1.4c1.5,0.5,2.9,1.2,4.3,1.8c0.9,0.4,1.7,0.8,2.5,1.2
			c1.7,0.9,3.4,1.9,5,3.1c1.2,0.9,2.4,1.7,3.6,2.7c0.6,0.5,1.2,1,1.8,1.6c1,0.9,2,1.8,2.9,2.7c1.1,1.2,2.2,2.4,3.2,3.7
			c0.9,1.1,1.8,2.2,2.5,3.4c0.8,1.2,1.5,2.5,2.2,3.7c0.6,1,1.1,2,1.6,3c1,2,1.8,4.1,2.5,6.3c0.4,1.4,0.8,2.7,1.1,4.1
			c0.3,1.3,0.5,2.6,0.7,3.9c0.2,1.2,0.3,2.5,0.4,3.7c0.1,0.8,0.1,1.7,0.1,2.5c0,0.8,0.1,1.5,0.1,2.3c0,1.1,0,2.2-0.1,3.3
			c-0.2,1.7-0.4,3.5-0.7,5.2c-0.3,2.1-0.8,4.1-1.5,6.1c-0.6,1.8-1.3,3.7-2,5.5c-0.6,1.5-1.4,3-2.2,4.4c-0.9,1.6-1.9,3.2-3,4.7
			c-0.9,1.3-1.9,2.6-2.9,3.8c-1.3,1.5-2.6,2.9-4,4.2c-1.3,1.3-2.8,2.4-4.3,3.6c-1.9,1.5-3.9,2.8-6.1,4c-2.6,1.5-5.3,2.7-8.1,3.7
			c-2.4,0.9-4.8,1.6-7.3,2c-1.3,0.2-2.5,0.4-3.8,0.6c-0.9,0.1-1.9,0.2-2.8,0.3C56.9,105.8,55.5,105.8,54.1,105.8
			C54.1,105.9,54.1,105.8,54.1,105.8z M56.7,102.1c1.2-0.1,2-0.2,2.8-0.3c1.6-0.2,3.2-0.4,4.8-0.7c3.9-0.8,7.6-2,11.1-3.7
			c1.5-0.7,3-1.5,4.4-2.4c2.1-1.2,4-2.6,5.8-4.1c0.9-0.7,1.7-1.4,2.5-2.2c1-1,2.1-2,3-3.1c0.7-0.8,1.4-1.7,2.1-2.5
			c0.7-0.8,1.3-1.7,1.9-2.5c0.9-1.4,1.7-2.8,2.5-4.2c1.6-3,2.9-6.2,3.8-9.4c0.7-2.5,1.2-5,1.5-7.5c0.2-1.4,0.2-2.8,0.3-4.1
			c0.1-2.5,0-5-0.4-7.5c-0.2-1.5-0.4-2.9-0.7-4.4c-0.6-3-1.6-5.9-2.8-8.7c-0.4-0.9-0.8-1.7-1.2-2.6c-0.3-0.6-0.7-1.1-0.9-1.8
			c0-0.1-0.1-0.1-0.1-0.2c-0.5-0.8-1-1.5-1.5-2.3c-0.8-1.2-1.6-2.5-2.5-3.6c-1.1-1.4-2.3-2.7-3.5-4c-1.3-1.3-2.6-2.6-4.1-3.8
			c-1.9-1.6-4-3-6.1-4.3c-2.2-1.3-4.4-2.4-6.8-3.3c-0.2-0.1-0.5-0.1-0.7-0.2c-0.2-0.1-0.5-0.2-0.7-0.3c-1.1-0.4-2.2-0.8-3.3-1.1
			c-1.7-0.4-3.4-0.8-5.1-1.2c-1.2-0.2-2.4-0.4-3.6-0.5c-1.3-0.1-2.6-0.3-3.9-0.3c-2.2,0-4.4,0-6.6,0.3c-1.3,0.2-2.5,0.3-3.8,0.5
			c-1.9,0.4-3.8,0.9-5.7,1.4c-2.6,0.7-5.1,1.8-7.5,3c-0.9,0.4-1.7,0.9-2.6,1.4c-1,0.6-1.9,1.2-2.9,1.8c-0.6,0.4-1.2,0.8-1.8,1.3
			c-0.3,0.2-0.5,0.5-0.8,0.7c-0.4,0.3-0.8,0.5-1.2,0.8c-0.7,0.6-1.3,1.2-2,1.8c-0.5,0.4-1,0.8-1.5,1.3c-0.7,0.7-1.4,1.5-2.1,2.2
			c-0.7,0.8-1.4,1.7-2.1,2.5c-0.1,0.1-0.1,0.3-0.2,0.4c-0.1,0.1-0.3,0.2-0.4,0.4c-0.5,0.7-1.1,1.5-1.6,2.2c-0.7,1.2-1.5,2.4-2.2,3.6
			c-1.4,2.6-2.6,5.3-3.5,8.1c-0.7,2-1.2,4.1-1.5,6.2c-0.2,1.5-0.5,3.1-0.6,4.6C5,51.3,5,52.8,5,54.3c0,0.9,0.1,1.8,0.1,2.6
			c0,0.6,0.1,1.3,0.1,1.9c0.1,0.9,0.2,1.9,0.3,2.8c0,0.3,0.2,0.5,0.3,0.8c0.4,2.3,1,4.6,1.8,6.8c0.6,1.6,1.2,3.2,2,4.8
			c0.9,1.8,1.9,3.6,2.9,5.3c1.3,2.1,2.7,4.1,4.4,5.9c1.4,1.5,2.9,3,4.4,4.4c1.2,1.1,2.5,2.1,3.8,3.1c1,0.7,2,1.4,3.1,2.1
			c0.8,0.5,1.7,1,2.6,1.5c1.4,0.8,3,1.5,4.5,2.1c0.9,0.4,1.9,0.7,2.9,1c1.9,0.7,3.9,1.2,6,1.6c1.6,0.3,3.2,0.5,4.8,0.7
			c1.2,0.1,2.5,0.2,3.7,0.3C54.1,102.2,55.6,102.1,56.7,102.1z"/>
		<path d="M18.4,22.4c0.1,0,0.2-0.1,0.3-0.1c0.7-0.7,1.3-1.5,2-2.2c0.5-0.5,1.1-1,1.7-1.5c0.9-0.7,1.7-1.5,2.6-2.2
			c0.7-0.5,1.4-1,2.1-1.5c0.8-0.5,1.6-1.1,2.4-1.6c0.8-0.5,1.6-0.9,2.5-1.4c0.9-0.5,1.8-1,2.7-1.4c1.8-0.7,3.5-1.4,5.3-2
			c2-0.6,4.1-1.1,6.2-1.5c1.5-0.3,3-0.4,4.5-0.5c1.3-0.1,2.5-0.1,3.8-0.1c0.8,0,1.6,0.1,2.5,0.1c0.6,0,1.3,0,1.9,0.1
			c0.7,0.1,1.4,0.2,2,0.3c1.1,0.2,2.2,0.4,3.3,0.6c2.1,0.4,4.2,1,6.2,1.8c0.8,0.3,1.6,0.6,2.4,0.9c0.2,0.1,0.4,0,0.6,0.1
			c0,0,0,0.1,0,0.1c0.1,0,0.2,0,0.3,0c0.1,0,0.2,0,0.2,0c0,0.4,0.4,0.4,0.6,0.5c2,1,3.9,2,5.8,3.3c1.3,0.9,2.6,1.8,3.8,2.8
			c0.8,0.6,1.6,1.3,2.3,2c0.6,0.6,1.2,1.2,1.8,1.8c2.3,2.3,4.3,4.9,6,7.6c0.7,1.2,1.4,2.3,2,3.5c1.7,3.3,3,6.7,3.8,10.2
			c0.4,1.5,0.7,3.1,0.9,4.6c0.2,1.3,0.3,2.6,0.4,3.9c0.1,1.7,0.1,3.3,0.1,5c0,1.5-0.2,2.9-0.4,4.3c-0.3,2.5-0.9,4.9-1.6,7.2
			C98.9,69.6,98,71.8,97,74c-0.9,1.9-2,3.7-3.1,5.5c-0.9,1.5-2,2.8-3,4.2c-0.6,0.8-1.4,1.5-2,2.3c-0.6,0.7-1.3,1.3-2,2
			c-1,0.9-2.1,1.8-3.1,2.7c-1.6,1.3-3.3,2.4-5,3.5c-2.1,1.3-4.3,2.4-6.7,3.3c-2.6,1.1-5.3,1.9-8,2.4c-1.4,0.3-2.8,0.5-4.2,0.7
			c-2.3,0.3-4.6,0.4-6.8,0.3c-1.3,0-2.5-0.1-3.8-0.3c-1.7-0.2-3.3-0.4-5-0.8c-3-0.6-5.8-1.5-8.6-2.7c-1.1-0.5-2.3-1-3.4-1.6
			c-1.8-0.9-3.6-2-5.2-3.1c-1.5-1-2.9-2.1-4.2-3.3c-1.3-1.2-2.5-2.4-3.7-3.7c-1.2-1.3-2.4-2.7-3.4-4.2c-1.2-1.6-2.2-3.3-3.2-5.1
			c-0.8-1.4-1.4-2.8-2-4.3c-1.1-2.6-1.9-5.3-2.5-8c-0.2-0.9-0.4-1.8-0.5-2.7c-0.2-1.2-0.3-2.4-0.4-3.7c-0.1-1.2-0.2-2.5-0.2-3.7
			c0-1.4,0.1-2.9,0.2-4.3c0.2-1.6,0.3-3.2,0.7-4.8C8,42.8,8.5,41.1,9,39.4c0.4-1.4,1-2.8,1.5-4.1c0.5-1.1,1-2.2,1.5-3.3
			c1-2.1,2.3-4,3.6-5.9c0.2-0.3,0.3-0.6,0.5-0.8c0.1-0.1,0.3-0.2,0.3-0.3c0.6-0.7,1.2-1.4,1.7-2.1C18.3,22.7,18.4,22.5,18.4,22.4z
			 M87.5,86.4c2.4-2.5,4.6-5.2,6.4-8.1c-0.5-0.4-1-0.7-1.4-1.2c-0.6-0.6-1.4-1.1-2.2-1.6c-2.5-1.8-5-3.5-7.5-5.3
			c-3.1-2.2-6.3-4.4-9.4-6.6c-1.6-1.1-3.3-2.3-5-3.4c-0.8-0.6-1.6-1.2-2.5-1.8c-0.2-0.1-0.4-0.2-0.6-0.3c-0.4-0.1-0.7-0.1-1.1-0.1
			c-0.8,0-1.7-0.1-2.5-0.1c-0.4,0-0.8-0.1-1.3-0.1c-0.6,0-1.1-0.1-1.8-0.1c0.1,0.3,0.1,0.5,0.2,0.7c0.7,2.1,1.5,4.2,2.2,6.3
			c0.1,0.3,0.3,0.5,0.5,0.7c0.7,0.6,1.4,1.2,2.1,1.8c1,0.9,2.1,1.7,3.1,2.5c1.3,1,2.6,2.1,3.9,3.1c1,0.8,2.1,1.7,3.1,2.5
			c1.2,0.9,2.3,1.9,3.5,2.8c1.3,1,2.6,2.1,3.9,3.1c1.8,1.3,3.4,2.9,5.3,4.1C86.8,85.7,87.2,86.1,87.5,86.4z M77.3,13.1
			c-0.5,0.6-1,1.1-1.5,1.7c-2.3,3.2-4.6,6.4-6.9,9.6c-1.5,2.1-3,4.2-4.5,6.3c-0.7,1-1.5,2.1-2.3,3.1c-1.2,1.7-2.4,3.3-3.6,5
			c-0.3,0.4-0.5,0.7-0.5,1.2c0,0.3,0,0.5,0,0.8c-0.1,1.2-0.2,2.4-0.3,3.6c-0.1,1-0.1,2-0.2,3.1c0,0.2,0,0.5,0,0.7
			c2-0.7,3.9-1.4,5.8-2.1c0.2-0.1,0.3-0.2,0.4-0.3c0.6-0.7,1.2-1.4,1.8-2.1c1-1.2,2.1-2.5,3.1-3.7c1.2-1.5,2.5-3,3.7-4.6
			c1-1.2,2.1-2.5,3.1-3.7c1-1.2,2-2.5,3-3.7c1-1.2,2.1-2.5,3.1-3.7c1.1-1.4,2.3-2.6,3.2-4.1c0.2-0.4,0.6-0.8,0.9-1.1
			C83.1,16.8,80.3,14.8,77.3,13.1z M62.1,99.7c0-0.6-0.1-1.1-0.1-1.6c0-0.7,0-1.4-0.1-2.2c-0.1-0.9-0.2-1.8-0.3-2.7
			c-0.1-0.9-0.1-1.8-0.2-2.6c-0.1-0.9-0.2-1.9-0.3-2.8c-0.1-0.6-0.1-1.2-0.1-1.8c-0.1-1-0.2-1.9-0.3-2.9c-0.1-0.6-0.1-1.1-0.1-1.7
			c-0.1-1-0.2-1.9-0.3-2.9c-0.1-0.6-0.1-1.1-0.2-1.7c-0.1-1-0.2-1.9-0.3-2.9c-0.1-0.6-0.1-1.1-0.2-1.7c-0.1-0.9-0.2-1.8-0.3-2.7
			c-0.1-0.6-0.1-1.2-0.2-1.9c0-0.3-0.1-0.6-0.2-0.9c-0.2-0.3-0.5-0.6-0.7-0.9c-0.9-1.1-1.8-2.2-2.7-3.3c-0.5-0.7-1.1-1.3-1.6-2
			c0,0-0.1,0-0.1,0.1c-1.1,2-2.1,4.1-3.2,6.1c-0.1,0.2-0.1,0.4-0.1,0.6c0,0.6,0.1,1.3,0.2,1.9c0.1,0.6,0.1,1.1,0.2,1.7
			c0.1,0.9,0.2,1.7,0.3,2.6c0.1,0.5,0.1,1.1,0.2,1.6c0.1,0.8,0.2,1.7,0.3,2.5c0.1,0.8,0.1,1.6,0.2,2.5c0.1,0.9,0.2,1.8,0.3,2.7
			c0.1,0.5,0.1,1.1,0.2,1.6c0.1,0.8,0.2,1.7,0.3,2.5c0.1,0.8,0.1,1.6,0.2,2.4c0.1,0.9,0.2,1.8,0.3,2.7c0.1,0.5,0.1,1.1,0.2,1.6
			c0.1,0.8,0.2,1.7,0.3,2.5c0.1,0.6,0.1,1.2,0.2,1.8c0,0.3,0.2,0.6,0.2,1c0.1,0.3,0,0.7,0.1,1.1c0,0.1,0.2,0.3,0.2,0.3
			c1.1,0,2.1,0,3.2-0.1c0.9-0.1,1.7-0.2,2.6-0.3C60.8,99.9,61.5,99.8,62.1,99.7z M17.7,24.2c-0.8,1.1-1.6,2.1-2.3,3.2
			c-0.7,1.1-1.4,2.1-2,3.2c-0.1,0.1-0.1,0.3,0,0.4c0.6,0.4,1.2,0.9,1.8,1.3c2.1,1.5,4.2,2.8,6.3,4.3c2,1.3,4,2.7,6,4
			c2.2,1.5,4.4,3,6.6,4.4c1.8,1.2,3.5,2.4,5.3,3.5c0.3,0.2,0.5,0.4,0.8,0.4c0.6,0.1,1.2,0.1,1.8,0.1c1.7,0,3.3,0.1,5,0.1
			c0.2,0,0.5,0,0.8,0c-0.1-0.2-0.2-0.3-0.2-0.4c-0.7-1.6-1.3-3.2-2-4.8c-0.2-0.4-0.3-0.8-0.6-1.1c-0.7-0.6-1.6-1.1-2.4-1.7
			c-2.2-1.5-4.3-3-6.5-4.5c-1-0.7-2.1-1.4-3.1-2.1c-0.8-0.6-1.7-1.2-2.5-1.8c-0.5-0.4-1.1-0.8-1.6-1.1c-1.5-1.1-3.1-2.2-4.6-3.2
			c-1.6-1-3-2.2-4.7-3.1C18.8,25.1,18.3,24.6,17.7,24.2z M52.1,46.5c0-0.1,0.1-0.1,0.1-0.1c0.9-2.1,1.9-4.3,2.8-6.4
			c0.1-0.2,0.1-0.4,0.1-0.6c-0.2-1.1-0.4-2.2-0.6-3.3c-0.2-1.2-0.4-2.5-0.7-3.7c-0.2-1.2-0.5-2.5-0.7-3.7c-0.2-1.2-0.5-2.5-0.7-3.7
			c-0.2-1.1-0.4-2.2-0.6-3.3c-0.2-1.2-0.4-2.5-0.7-3.7c-0.2-1-0.4-1.9-0.5-2.9c-0.2-1.1-0.4-2.3-0.6-3.4c-0.2-1-0.2-2-0.7-2.9
			c-0.2-0.4-0.2-0.8-0.2-1.3c0-0.2-0.1-0.3-0.3-0.2c-0.9,0.1-1.8,0.2-2.6,0.4c-1.5,0.3-2.9,0.6-4.4,0.9c-0.1,0-0.2,0.1-0.2,0.2
			c0.1,0.7,0.2,1.3,0.2,2c0,0.8,0.3,1.7,0.4,2.5c0.3,1.6,0.6,3.1,0.8,4.7c0.3,2,0.7,4,1,5.9c0.3,1.7,0.6,3.4,0.9,5
			c0.3,2,0.7,3.9,1,5.9c0.3,2,0.7,4.1,1.1,6.1c0,0.3,0.1,0.6,0.2,0.7c0.4,0.5,0.9,1,1.3,1.5c0.7,0.7,1.3,1.4,2,2.1
			C51.2,45.6,51.7,46.1,52.1,46.5z M101,50.9c-0.1-1-0.2-1.9-0.3-2.8c-0.2-1.4-0.4-2.7-0.6-4c0-0.2-0.1-0.3-0.3-0.2
			c-0.7,0.1-1.3,0.3-2,0.1c-0.1,0-0.1,0-0.2,0c-0.3,0-0.6,0.1-0.8,0.1c-0.8,0.1-1.6,0.2-2.4,0.3c-0.8,0.1-1.6,0.2-2.3,0.3
			c-0.8,0.1-1.6,0.2-2.4,0.3c-1,0.1-1.9,0.3-2.9,0.4c-1,0.1-1.9,0.2-2.9,0.4c-1,0.1-1.9,0.3-2.9,0.4c-1,0.1-1.9,0.2-2.9,0.4
			c-1.1,0.2-2.3,0.3-3.4,0.5c-1.3,0.2-2.6,0.3-4,0.5c-1.6,0.2-3.1,0.4-4.7,0.6c-0.2,0-0.4,0.1-0.6,0.2c-0.8,0.6-1.6,1.3-2.4,2
			c-1,0.8-2,1.6-3,2.5c0.1,0.1,0.2,0.1,0.3,0.2c1.9,0.8,3.7,1.6,5.6,2.5c0.6,0.3,1.2,0.3,1.8,0.2c0.9-0.1,1.9-0.3,2.8-0.4
			c0.8-0.1,1.5-0.2,2.3-0.3c0.9-0.1,1.9-0.3,2.8-0.4c0.8-0.1,1.5-0.2,2.3-0.3c0.8-0.1,1.6-0.2,2.4-0.3c0.9-0.1,1.8-0.2,2.7-0.4
			c0.9-0.1,1.9-0.3,2.8-0.4c0.8-0.1,1.5-0.2,2.3-0.3c0.9-0.1,1.9-0.3,2.8-0.4c0.8-0.1,1.6-0.2,2.4-0.3c0.9-0.1,1.9-0.2,2.8-0.4
			c0.8-0.1,1.5-0.2,2.3-0.3c0.5-0.1,1-0.2,1.5-0.3C100.1,51,100.5,50.9,101,50.9z M8.2,63.1c0.1,0,0.1,0,0.2,0c0.5,0,1-0.1,1.6-0.1
			c0.2,0,0.4,0.1,0.5,0.1c0.7-0.1,1.5-0.2,2.2-0.3c0.7-0.1,1.4-0.1,2.1-0.2c0.7-0.1,1.4-0.2,2.2-0.3c0.7-0.1,1.4-0.1,2.1-0.2
			c0.9-0.1,1.9-0.2,2.8-0.3c0.7-0.1,1.4-0.2,2.1-0.2c0.7-0.1,1.4-0.2,2.1-0.3c0.7-0.1,1.4-0.1,2.1-0.2c0.7-0.1,1.5-0.2,2.2-0.3
			c0.7-0.1,1.4-0.2,2.1-0.3c0.7-0.1,1.4-0.2,2.1-0.2c0.6-0.1,1.2-0.1,1.8-0.2c0.8-0.1,1.7-0.2,2.5-0.3c0.4-0.1,0.9,0,1.3-0.3
			c1.7-1.4,3.5-2.7,5.2-4.1c0.3-0.2,0.6-0.5,0.9-0.7c-0.1,0-0.1-0.1-0.2-0.1c-2.4-1-4.7-2-7.1-2.9c-0.2-0.1-0.4-0.1-0.6-0.1
			c-0.8,0.1-1.7,0.3-2.5,0.4C35,52,34,52.1,33,52.3c-1,0.2-2,0.3-2.9,0.5c-1.1,0.2-2.3,0.4-3.4,0.5c-1,0.2-2,0.3-3,0.4
			c-1.4,0.2-2.8,0.5-4.2,0.7c-1.1,0.2-2.3,0.3-3.4,0.5c-1.1,0.2-2.3,0.4-3.4,0.6c-1.3,0.2-2.6,0.3-3.8,0.7c-0.4,0.2-0.9,0.2-1.4,0.3
			C7.5,58.7,7.8,60.9,8.2,63.1z M26.4,91.2c0.2-0.3,0.4-0.5,0.6-0.7c0.2-0.2,0.5-0.4,0.7-0.7c0.8-0.9,1.5-1.8,2.2-2.7
			c1-1.2,1.9-2.3,2.9-3.5c1.2-1.4,2.4-2.9,3.6-4.3c1.2-1.5,2.4-2.9,3.6-4.4c1.1-1.3,2.2-2.6,3.2-3.9c1.4-1.7,2.8-3.4,4.2-5.1
			c0.1-0.1,0.1-0.3,0.1-0.4c0.1-0.6,0.1-1.3,0.2-1.9c0.1-1,0.3-2,0.4-3c0-0.3,0-0.5,0.1-0.8c-0.1,0-0.1,0-0.2,0
			c-2.3,0.7-4.5,1.4-6.8,2.1c-0.2,0.1-0.3,0.2-0.5,0.3c-0.4,0.4-0.7,0.9-1.1,1.3c-1.1,1.2-2.1,2.5-3.2,3.7c-1.2,1.4-2.4,2.8-3.6,4.2
			c-1.1,1.2-2.1,2.5-3.2,3.7c-1.2,1.4-2.4,2.8-3.6,4.2c-1.5,1.8-3.2,3.5-4.5,5.4c-0.4,0.5-0.8,1-1.2,1.5
			C21.4,87.2,25.5,90.8,26.4,91.2z M59.9,7.3c-3.4-0.4-6.7-0.4-10.2-0.2c1.7,10.6,3.8,21.1,5.7,31.7c0.1-0.1,0.2-0.3,0.2-0.4
			c0.8-1.7,1.5-3.5,2.3-5.2c0.2-0.4,0.4-0.7,0.4-1.1c0.1-0.6,0.1-1.2,0.2-1.9c0.1-1.4,0.2-2.8,0.3-4.2c0.1-1.1,0.1-2.2,0.2-3.2
			c0.1-1.4,0.2-2.8,0.3-4.3c0.1-1.3,0.1-2.6,0.2-3.8c0-0.4,0.1-0.8,0.1-1.2c0.1-1.3,0.2-2.6,0.3-3.8c0-0.5,0-1,0-1.4
			C59.8,8,59.9,7.7,59.9,7.3z M53.5,100.3c0-0.9-0.1-1.8-0.1-2.7c-0.1-0.8-0.1-1.6-0.2-2.4c-0.1-0.9-0.2-1.7-0.3-2.6
			c-0.1-0.8-0.2-1.6-0.2-2.4c-0.1-0.9-0.2-1.7-0.3-2.6c-0.1-0.6-0.1-1.1-0.2-1.7c-0.1-0.9-0.2-1.7-0.3-2.6c-0.1-0.6-0.1-1.1-0.1-1.7
			c-0.1-0.9-0.2-1.7-0.3-2.6c-0.1-0.5-0.1-1.1-0.2-1.6c-0.1-0.8-0.2-1.7-0.3-2.5c-0.1-0.8-0.1-1.7-0.2-2.5c-0.1-1.1-0.2-2.3-0.3-3.4
			c0-0.5-0.1-0.9-0.2-1.4c-0.1,0.2-0.2,0.3-0.3,0.5c-0.9,1.8-1.9,3.7-2.8,5.5C47.2,73.7,47,74,47,74.3c-0.1,0.8-0.3,1.7-0.4,2.5
			c-0.2,1.2-0.3,2.4-0.4,3.6c-0.2,1.4-0.4,2.7-0.6,4.1c-0.2,1.2-0.3,2.4-0.4,3.6c-0.2,1.6-0.4,3.1-0.6,4.7c-0.2,1.4-0.3,2.8-0.5,4.1
			c0,0.2,0,0.5,0,0.7c0,0.6-0.1,1.1-0.2,1.7C47.1,99.9,50.3,100.3,53.5,100.3z M47.6,66.6C47.6,66.5,47.6,66.5,47.6,66.6
			c-0.2,0-0.2,0.1-0.3,0.2c-0.6,0.7-1.2,1.4-1.8,2.2c-1,1.2-1.9,2.3-2.9,3.5c-1.1,1.3-2.2,2.6-3.3,3.9c-1,1.2-2,2.4-3,3.6
			c-0.8,1-1.7,2-2.5,3.1c-0.9,1-1.7,2.1-2.6,3.1c-0.8,0.9-1.5,1.8-2.3,2.7c-0.5,0.6-0.9,1.2-1.4,1.8c-0.2,0.3-0.5,0.6-0.7,0.9
			c2.5,1.9,5.3,3.3,8.1,4.6c0.4-0.6,0.8-1.2,1.2-1.9c0.3-0.5,0.5-1.1,0.8-1.6c0.1-0.2,0.2-0.5,0.3-0.7c0.2-0.3,0.4-0.5,0.5-0.8
			c1.3-2.5,2.7-5.1,4-7.7c1.3-2.5,2.6-5.1,4-7.6c0.7-1.3,1.2-2.6,1.3-4.1c0-0.8,0.2-1.5,0.3-2.3C47.4,68.6,47.5,67.6,47.6,66.6z
			 M46.9,40.9C46.9,40.9,47,40.9,46.9,40.9c0-0.7-0.2-1.3-0.3-2c-0.2-1.2-0.4-2.3-0.6-3.5c-0.2-1.4-0.5-2.8-0.7-4.2
			c-0.2-1.4-0.5-2.9-0.7-4.3c-0.2-1.4-0.5-2.8-0.8-4.2c-0.2-1.2-0.4-2.3-0.6-3.5c-0.2-1.4-0.5-2.9-0.8-4.3c-0.2-1.3-0.4-2.6-0.7-3.9
			c-0.1-0.4-0.2-0.9-0.4-1.3c-0.1-0.3-0.1-0.6-0.2-1c-3.1,0.9-5.9,2-8.7,3.5c0.2,0.8,0.7,1.5,0.8,2.3c0.1,0.4,0.3,0.8,0.5,1.2
			c1.9,4.6,3.9,9.2,5.8,13.8c0.8,1.8,1.5,3.6,2.3,5.4c0.2,0.5,0.4,1,0.7,1.4c0.7,0.8,1.4,1.6,2.2,2.4C45.5,39.4,46.2,40.2,46.9,40.9
			z M99.8,43.2c0-0.1,0-0.1,0-0.2c-0.5-1.7-1-3.4-1.5-5.1c-0.3-1-0.8-2-1.2-3c0-0.1-0.2-0.2-0.3-0.2c-0.6,0.2-1.3,0.3-1.9,0.5
			c-1,0.3-2,0.7-2.9,1c-3.2,1.1-6.3,2.3-9.5,3.4c-3.8,1.4-7.6,2.7-11.4,4.1c-0.3,0.1-0.5,0.2-0.8,0.4c-1.1,0.8-2.1,1.7-3.1,2.6
			c-0.4,0.3-0.7,0.6-1.1,0.9c0,0,0,0.1,0,0.1C77.4,46.2,88.6,44.9,99.8,43.2z M101,51.4c-11.3,1.4-22.5,3.1-33.7,4.6
			c0.1,0.1,0.2,0.2,0.4,0.2c1.2,0.5,2.3,1.1,3.5,1.6c0.5,0.2,0.9,0.5,1.4,0.6c0.7,0.1,1.4,0.1,2.1,0.2c0.8,0.1,1.5,0.1,2.3,0.2
			c1.2,0.1,2.4,0.2,3.6,0.3c0.8,0.1,1.6,0.1,2.4,0.2c1.2,0.1,2.3,0.2,3.5,0.3c0.8,0.1,1.6,0.1,2.4,0.2c1.2,0.1,2.5,0.2,3.7,0.3
			c0.8,0.1,1.5,0.1,2.3,0.2c1.2,0.1,2.3,0.2,3.5,0.3c0.6,0,1.2,0,1.9,0c0.5,0,0.5,0,0.6-0.5c0.1-1.1,0.3-2.1,0.3-3.2
			c0.1-1.4,0.1-2.9,0.1-4.3C101,52,101,51.8,101,51.4z M71.8,96.9c-0.2-0.8-0.3-1.5-0.6-2.3c-1.1-3.1-2.2-6.2-3.3-9.3
			c-1.5-4.3-3-8.7-4.6-13c-0.1-0.3-0.2-0.6-0.4-0.8c-0.7-1-1.5-1.9-2.3-2.8c-0.3-0.4-0.7-0.8-1-1.2c0.1,1,0.2,2,0.3,3
			c0.1,0.6,0.1,1.1,0.2,1.7c0.1,0.9,0.2,1.8,0.3,2.8c0.1,0.6,0.1,1.2,0.2,1.8c0.1,0.9,0.2,1.9,0.3,2.8c0.1,0.6,0.1,1.2,0.2,1.8
			c0.1,0.9,0.2,1.9,0.3,2.8c0.1,0.6,0.1,1.2,0.2,1.8c0.1,0.9,0.2,1.8,0.3,2.7c0.1,0.9,0.1,1.8,0.2,2.7c0.1,1.3,0.2,2.5,0.4,3.8
			c0.1,1.1,0.1,2.2,0.4,3.3c0.1,0.4,0.1,0.8,0.1,1.2C63.7,99.6,70.4,97.6,71.8,96.9z M86.2,19.4c-7.5,8.8-14.5,17.7-21.8,26.5
			c0.1,0,0.1,0,0.2,0c1.3-0.5,2.6-0.9,3.8-1.4c1.2-0.4,2.3-0.9,3.2-1.7c1.1-1,2.3-2,3.5-3c1.3-1.1,2.6-2.1,3.9-3.2
			c1.2-1,2.4-2,3.6-3c1-0.8,2-1.7,3-2.5c1.1-0.9,2.1-1.8,3.2-2.7c0.5-0.4,1-0.8,1.5-1.3c0.4-0.4,0.7-0.7,1.1-1.1
			c0.2-0.2,0.2-0.3,0-0.4c-1.1-1.3-2.2-2.6-3.3-4C87.6,20.9,86.9,20.2,86.2,19.4z M18.1,23.7c0.7,0.6,1.2,1.2,1.9,1.6
			c1.6,1.2,3.3,2.3,5,3.5c2.4,1.6,4.8,3.3,7.1,4.9c1.5,1,3,2.1,4.5,3.1c2.2,1.5,4.4,3,6.6,4.6c0.5,0.3,1,0.7,1.5,1.1
			c0-0.1,0-0.1,0-0.2c-0.7-1.7-1.4-3.3-2.1-5c-0.2-0.4-0.3-0.8-0.6-1.2c-1.4-1.5-2.8-3-4.2-4.5c-0.3-0.3-0.7-0.7-1-1
			c-1.1-1.2-2.2-2.5-3.4-3.7c-0.7-0.8-1.5-1.6-2.2-2.4c-1.4-1.6-2.9-3.1-4.3-4.7c-0.5-0.5-1.1-1-1.6-1.6c-0.2-0.2-0.4-0.4-0.6-0.6
			c-0.1-0.1-0.3-0.1-0.3,0c-0.7,0.6-1.4,1.1-2.1,1.8C20.9,20.8,19.5,22.3,18.1,23.7z M66.5,58.3C66.5,58.3,66.5,58.4,66.5,58.3
			c0.7,0.6,1.5,1.1,2.2,1.7c1.7,1.2,3.4,2.4,5.1,3.6c3.7,2.6,7.3,5.1,11,7.7c1.6,1.1,3.2,2.3,4.8,3.4c1.3,0.9,2.6,1.9,4,2.7
			c0.2,0.1,0.4,0.3,0.6,0.4c0.4-0.8,0.9-1.5,1.2-2.2c0.8-1.6,1.5-3.3,2.3-5c0-0.1,0-0.3-0.1-0.3c-0.6-0.3-1.2-0.7-1.8-1
			c-1.2-0.5-2.3-1-3.5-1.6c-2.9-1.3-5.8-2.6-8.6-3.9c-3.2-1.4-6.5-2.9-9.7-4.3c-0.8-0.4-1.6-0.9-2.6-0.8c-0.3,0-0.6,0-0.8,0
			C69.3,58.5,67.9,58.4,66.5,58.3z M61.5,65.9c0.5,1.5,1,3,1.5,4.4c0.2,0.4,0.3,1,0.5,1.3c0.9,1.2,1.8,2.3,2.8,3.5
			c1.1,1.3,2.2,2.7,3.3,4c1,1.2,1.9,2.4,2.9,3.6c0.9,1.1,1.8,2.2,2.7,3.3c1,1.2,1.9,2.4,2.9,3.6c0.4,0.5,0.9,1,1.4,1.5
			c0.3,0.4,0.6,0.8,1,1.2c0.9-0.4,5.8-4.4,6.7-5.5C78.7,79.7,70.1,73,61.5,65.9z M58.3,38.7C58.3,38.7,58.4,38.7,58.3,38.7
			c0.1,0,0.1,0,0.2-0.1c0.8-1.1,1.6-2.3,2.4-3.4c0.5-0.7,1.1-1.4,1.6-2.2c0.5-0.7,1-1.5,1.5-2.2c0.6-0.9,1.2-1.7,1.8-2.6
			c1.7-2.4,3.4-4.7,5.1-7.1c1.6-2.3,3.5-4.6,4.9-7c0.3-0.5,0.6-0.9,0.9-1.3c-2.5-1.4-5.2-2.5-7.9-3.4c-0.4,0.7-0.7,1.3-1,1.9
			c-1.5,3.4-3,6.8-4.5,10.3c-1.4,3.3-2.9,6.6-4.3,9.9c-0.2,0.4-0.4,0.9-0.4,1.3c-0.1,0.9-0.1,1.8-0.2,2.7c0,0.5-0.1,1-0.1,1.4
			C58.3,37.5,58.3,38.1,58.3,38.7z M13,31.4c-0.1,0.1-0.1,0.2-0.2,0.3c-0.5,1.1-1.1,2.2-1.6,3.3c-0.5,1.2-0.9,2.4-1.4,3.6
			c0,0.1,0,0.3,0.1,0.3c0.7,0.3,1.3,0.7,2,1c3.4,1.4,6.9,2.9,10.3,4.3c3.3,1.4,6.6,2.7,9.9,4.1c0.6,0.2,1.1,0.5,1.8,0.5
			c1.1,0,2.1,0.1,3.2,0.1c0.7,0,1.4,0,2.2,0c-0.1-0.1-0.2-0.2-0.3-0.2c-3.7-2.5-7.5-5-11.2-7.5c-2.9-1.9-5.8-3.9-8.7-5.8
			c-1.5-1-2.9-2.1-4.6-2.9C13.9,32.2,13.5,31.8,13,31.4z M40.6,62.2c-1.9,0.6-3.8,1.2-5.8,1.8c-0.1,0-0.1,0.1-0.2,0.1
			c-1,0.8-1.9,1.5-2.9,2.3c-0.9,0.7-1.7,1.3-2.6,2c-1.4,1.1-2.7,2.1-4.1,3.2c-1.7,1.3-3.4,2.6-5.1,4c-1.4,1.1-2.9,2.1-4.1,3.4
			c-0.2,0.2-0.5,0.4-0.7,0.6c1.5,2.3,3.2,4.4,5.1,6.3C27.2,78.1,33.8,70.1,40.6,62.2z M10.6,70.9c0.7-0.2,1.4-0.3,2-0.4
			c1.5-0.4,2.9-0.9,4.4-1.3c5.8-1.8,11.5-3.6,17.3-5.3c0.2-0.1,0.3-0.1,0.5-0.2c1.1-0.8,2.1-1.6,3.2-2.5c0.4-0.3,0.8-0.7,1.3-1.1
			c-0.6,0.1-1.2,0.2-1.7,0.2c-1,0.1-2,0.2-2.9,0.3c-1.1,0.1-2.2,0.3-3.3,0.4c-0.7,0.1-1.3,0.2-2,0.2c-0.9,0.1-1.9,0.2-2.8,0.3
			c-0.7,0.1-1.4,0.2-2.1,0.2c-0.9,0.1-1.8,0.2-2.8,0.3c-0.7,0.1-1.4,0.2-2.1,0.2c-0.9,0.1-1.8,0.2-2.8,0.3c-0.7,0.1-1.4,0.2-2.1,0.2
			C13.9,63,13,63.1,12,63.2c-0.5,0.1-1.1,0.1-1.6,0.2c-0.3,0.1-0.7,0.1-1,0.2c-0.3,0.1-0.7,0.1-1,0.2C8.9,66.2,9.7,68.6,10.6,70.9z
			 M38.1,51.2c-0.1-0.1-0.2-0.1-0.2-0.1c-1.4-0.6-2.8-1.2-4.2-1.8c-0.1-0.1-0.3-0.1-0.5-0.1c-1.2-0.1-2.5-0.1-3.7-0.1
			c-1.8-0.1-3.6-0.1-5.4-0.1c-1.4,0-2.8-0.1-4.2-0.1c-0.3,0-0.6,0-0.9,0c-0.9,0-1.8-0.1-2.7-0.1c-1.7-0.1-3.4-0.1-5.1-0.1
			c-1.1,0-2.3,0-3.4,0.1c0,0-0.1,0-0.2,0.1c-0.1,2.4-0.1,4.8-0.2,7.2C17.6,54.5,27.8,52.7,38.1,51.2z M100.5,61
			c-0.7-0.1-1.3-0.3-1.9-0.3c-0.6-0.1-1.1-0.1-1.7-0.1c-0.7-0.1-1.3-0.1-2-0.1c-1.3-0.1-2.7-0.2-4-0.3c-1-0.1-1.9-0.1-2.9-0.2
			c-1.3-0.1-2.6-0.2-4-0.3c-1.3-0.1-2.6-0.2-3.9-0.3c-1.2-0.1-2.3-0.1-3.5-0.2c-0.4,0-0.9-0.1-1.3-0.1c-0.6,0-1.1-0.1-1.7-0.1
			c0.8,0.4,1.7,0.8,2.5,1.2c2.2,1,4.3,1.9,6.5,2.9c2.4,1.1,4.7,2.1,7.1,3.2c1.3,0.6,2.5,1.2,3.8,1.7c1.3,0.6,2.6,1.1,3.9,1.6
			c0.3,0.1,0.5,0.2,0.8,0.3C99.2,66.9,100,64,100.5,61z M96.7,34.2c-1.3-2.7-2.8-5.4-4.6-7.9c-2.3,1.9-4.6,3.7-6.9,5.6
			c-2.3,1.9-4.6,3.8-6.9,5.7c-2.3,1.9-4.6,3.8-6.9,5.7c0.1,0,0.1,0,0.1,0c3.3-1.2,6.5-2.3,9.8-3.5c2.7-1,5.3-1.9,8-2.8
			c1-0.3,1.9-0.7,2.9-1.1c0.5-0.2,0.9-0.3,1.4-0.5C94.6,35,95.7,34.6,96.7,34.2z M64,72.7c0,0-0.1,0-0.1,0.1
			c0.1,0.4,0.3,0.8,0.4,1.2c2,5.6,3.9,11.3,5.9,16.9c0.5,1.5,1,3.1,1.7,4.5c0.2,0.4,0.3,0.8,0.4,1.1c1.2-0.3,6.8-3.3,7.6-4.1
			C74.8,85.8,69.3,79.4,64,72.7z M32.2,48.8c0,0,0-0.1,0-0.1c-0.1,0-0.2-0.1-0.2-0.1c-0.6-0.2-1.1-0.5-1.7-0.7c-2.4-1-4.8-2-7.2-3
			c-2.3-0.9-4.6-1.9-6.9-2.8c-1.7-0.7-3.3-1.5-5.1-2c-0.5-0.1-1-0.4-1.6-0.7C8.6,42.2,8,45.1,7.6,48c0.2,0,0.5,0,0.7,0.1
			c0.8,0.1,1.6,0.1,2.4,0.2c1.1,0.1,2.1,0.1,3.2,0.1c0.9,0,1.8,0,2.7,0c0.6,0,1.3,0.1,1.9,0.1c0.9,0,1.9,0.1,2.8,0.1
			c2,0,3.9,0.1,5.9,0.1c1.3,0,2.6,0,3.9,0.1C31.5,48.8,31.8,48.8,32.2,48.8z M25,17.1c0.4,0.5,0.8,1.1,1.2,1.6
			c0.3,0.3,0.6,0.6,0.9,1c0.9,1,1.8,1.9,2.7,2.9c1.3,1.4,2.7,2.9,4,4.3c1.1,1.2,2.2,2.3,3.3,3.5c0.7,0.8,1.4,1.6,2.2,2.4
			c0.6,0.7,1.3,1.4,1.9,2.1c0.2,0.2,0.3,0.3,0.5,0.5c0,0,0.1,0,0.1-0.1c0-0.1-0.1-0.3-0.1-0.4c-0.5-1.2-1-2.4-1.5-3.6
			c-0.8-1.8-1.5-3.7-2.3-5.5c-0.7-1.6-1.4-3.3-2.1-4.9c-0.7-1.6-1.4-3.2-2.1-4.8c-0.3-0.7-0.7-1.4-1-2.2c-0.2-0.4-0.4-0.9-0.6-1.3
			C29.5,13.8,27.1,15.4,25,17.1z M14.8,79c2.3-1.4,4.3-3.2,6.4-4.8c2.1-1.6,4.2-3.3,6.3-4.9c2.1-1.6,4.1-3.2,6.2-4.8
			c0,0,0-0.1-0.1-0.1c-0.1,0-0.2,0-0.2,0c-1.1,0.4-2.3,0.7-3.4,1.1c-0.8,0.2-1.6,0.5-2.3,0.7c-4,1.2-8,2.4-11.9,3.7
			c-1.1,0.4-2.3,0.6-3.4,1.2c-0.4,0.2-0.9,0.3-1.4,0.5C11.9,74.2,13.2,76.6,14.8,79z M46.5,75.3c-0.1,0.1-0.1,0.2-0.2,0.3
			c-0.8,1.5-1.6,3-2.3,4.4c-2.2,4.3-4.4,8.5-6.6,12.8c-0.4,0.8-0.8,1.6-1.1,2.5c-0.2,0.4-0.4,0.8-0.6,1.2c1.3,0.7,5.8,2.2,7.8,2.6
			C44.6,91.2,45.4,83.2,46.5,75.3z M58.8,31C58.8,31,58.8,31,58.8,31c0.2-0.1,0.2-0.3,0.3-0.4c0.7-1.7,1.5-3.4,2.2-5.1
			c1.4-3.3,2.9-6.5,4.2-9.8c0.8-1.8,1.7-3.5,2.2-5.3c0.1-0.4,0.3-0.8,0.5-1.2c-0.8-0.5-6.8-1.8-7.7-1.7c-0.1,0.6-0.3,1.2-0.3,1.8
			c-0.1,1.4-0.2,2.8-0.3,4.2c-0.1,1.4-0.2,2.9-0.3,4.3c-0.1,1.8-0.2,3.6-0.4,5.3c-0.1,1.3-0.1,2.6-0.2,3.8c0,0.4-0.1,0.8-0.1,1.2
			C58.9,29.1,58.9,30.1,58.8,31z M53.2,48.4c-2.8,0-5,2.2-5.1,5c0,2.8,2.2,5.1,5,5.1c2.8,0,5.1-2.2,5.1-5
			C58.3,50.7,56,48.4,53.2,48.4z M58.2,57.8c-0.3,0-0.6-0.1-0.9-0.1c-0.1,0-0.3,0.1-0.4,0.1c-0.6,0.4-1.2,0.7-1.8,1.1
			c-0.1,0.1-0.2,0.2-0.3,0.3c-0.1,0.2-0.2,0.4-0.3,0.7c1.5,1.2,2.9,2.4,4.5,3.6c-0.1-1-0.2-2-0.3-2.9C58.5,59.6,58.6,58.6,58.2,57.8
			z M50,63.6c-0.1,0.1-0.1,0.1-0.2,0.2c-0.5,0.6-1,1.2-1.5,1.9c-0.1,0.2-0.3,0.4-0.3,0.6c-0.1,0.6-0.2,1.1-0.2,1.7
			c-0.2,1.7-0.5,3.4-0.7,5.1c0.1-0.1,0.1-0.1,0.2-0.2c0.9-1.8,1.9-3.6,2.8-5.5c0.1-0.2,0.2-0.5,0.2-0.8c-0.1-0.3,0-0.6-0.1-0.9
			C50.2,65,50.1,64.3,50,63.6z M56.8,48.6c-0.3-1.8-0.7-3.7-1-5.6c-1,1.5-2,2.8-3,4.2c0.1,0.1,0.2,0.2,0.2,0.3
			c0.2,0.3,0.6,0.5,1,0.6c0.6,0.1,1.2,0.3,1.8,0.6C56.1,48.8,56.4,48.9,56.8,48.6z M42.7,50.8c1.5,1,2.8,1.9,4.2,2.8
			c0.1,0.1,0.3,0.1,0.4,0.1c0.1-0.1,0.3-0.3,0.3-0.5c0.2-0.6,0.2-1.3,0.5-1.9c0.1-0.4,0.1-0.7,0-1C47.9,50,47.8,50,47.5,50
			c-1.2,0.2-2.4,0.4-3.5,0.6C43.6,50.6,43.2,50.7,42.7,50.8z M47.3,55c-1.1,1.3-2.3,2.7-3.5,4.1c0.3,0,0.5-0.1,0.7-0.1
			c1.1-0.1,2.2-0.2,3.3-0.4c0.8-0.1,0.8-0.1,0.9-0.8c0.1-0.4,0.1-0.8-0.2-1.2c-0.2-0.3-0.4-0.6-0.5-1C47.9,55.3,47.7,55.1,47.3,55z
			 M58.3,33.6C58.3,33.5,58.2,33.5,58.3,33.6c-0.1,0.1-0.2,0.2-0.2,0.3c-0.8,1.7-1.5,3.5-2.3,5.2c-0.1,0.3-0.2,0.6-0.1,1
			c0.1,0.6,0.2,1.3,0.4,2c0.1-0.1,0.2-0.2,0.2-0.3c0.5-0.7,1-1.4,1.5-2.1c0.1-0.2,0.2-0.4,0.2-0.6c0.1-0.8,0.1-1.6,0.2-2.4
			C58.1,35.6,58.2,34.6,58.3,33.6z M47.6,44.4c-0.1-0.8-0.2-1.5-0.4-2.2c-0.1-0.3-0.1-0.6-0.4-0.9c-0.8-0.8-1.5-1.6-2.2-2.4
			c-0.5-0.6-1-1.1-1.6-1.6c0,0.1,0,0.2,0,0.2c0.7,1.7,1.4,3.4,2.2,5.1c0,0.1,0.1,0.2,0.2,0.3C46.1,43.4,46.8,43.9,47.6,44.4z
			 M35.7,63.3C35.7,63.3,35.7,63.3,35.7,63.3c1.7-0.5,3.3-1,5-1.5c0.2-0.1,0.4-0.2,0.6-0.4c0.4-0.4,0.7-0.8,1-1.2
			c0.2-0.2,0.3-0.4,0.5-0.6c-0.7,0.1-1.3,0.1-2,0.2c-0.5,0.1-1,0.1-1.4,0.5c-0.2,0.3-0.6,0.5-0.9,0.7C37.7,61.7,36.7,62.5,35.7,63.3
			z M62.4,48.3c0.8-0.1,1.5-0.2,2.2-0.3c0.3-0.1,0.7,0,1-0.3c0.9-0.8,1.8-1.5,2.7-2.2c0.3-0.3,0.7-0.6,1.1-0.9c-0.1,0-0.2,0-0.2,0
			c-1.4,0.5-2.8,1-4.3,1.5c-0.3,0.1-0.8,0.2-1,0.4C63.4,47.1,62.9,47.7,62.4,48.3z M53.3,59.6C53.3,59.7,53.2,59.7,53.3,59.6
			c-0.9,1-1.7,2-2.5,3c-0.2,0.3-0.5,0.5-0.4,0.9c0.1,0.4,0.1,0.9,0.1,1.3c0,0.4,0.1,0.9,0.2,1.4c1-2,2-3.9,3-5.8c0-0.1,0-0.2,0-0.3
			C53.6,59.9,53.5,59.8,53.3,59.6z M58.7,56.9c1.4-0.2,2.8-0.4,4.2-0.6c-1.3-0.9-2.6-1.8-3.8-2.7c-0.5,0.2-0.3,0.6-0.4,0.9
			C58.5,55.3,58.5,56.1,58.7,56.9z M63.9,56.5C63.9,56.5,63.9,56.6,63.9,56.5c0.5,0.4,1,0.8,1.6,1.2c0.2,0.1,0.3,0.2,0.5,0.3
			c0.7,0.1,1.5,0.1,2.2,0.2c0.4,0,0.9,0.1,1.3,0.1c0.5,0,1.1,0.1,1.6,0.1c-0.1-0.1-0.2-0.2-0.3-0.2c-1.2-0.5-2.4-1.1-3.7-1.6
			c-0.4-0.2-0.8-0.3-1.3-0.2C65.3,56.4,64.6,56.4,63.9,56.5z M48.8,49.2c0.5,0.1,0.9,0,1.3-0.3c0.3-0.2,0.6-0.4,0.9-0.5
			c0.4-0.1,0.5-0.4,0.6-0.7c-1.2-0.8-2.3-1.6-3.5-2.5C48.3,46.6,48.5,47.9,48.8,49.2z M57.8,40.2C57.8,40.2,57.8,40.2,57.8,40.2
			c-0.6,0.7-1.1,1.4-1.6,2.1c-0.1,0.2-0.2,0.4-0.1,0.6c0.2,1.3,0.5,2.5,0.7,3.8c0.1,0.6,0.2,1.2,0.3,1.7c0,0,0.1,0,0.1,0
			C57.5,45.7,57.7,43,57.8,40.2z M34.6,49.2C34.6,49.2,34.6,49.2,34.6,49.2c0,0.1,0,0.1,0.1,0.1c1.3,0.5,2.6,1.1,4,1.6
			c0.2,0.1,0.3,0,0.5,0c0.4-0.1,0.8-0.1,1.2-0.2c0.4-0.1,0.8-0.1,1.3-0.2c-0.6-0.4-1.2-0.8-1.7-1.1c-0.1,0-0.2-0.1-0.3-0.1
			C38,49.3,36.3,49.2,34.6,49.2z M39.5,51.3c0.1,0.1,0.1,0.1,0.2,0.1c2.2,0.9,4.4,1.8,6.7,2.8c0.2,0.1,0.4,0.1,0.5-0.1
			c0,0,0-0.1,0-0.1c-1.5-1-3-2-4.6-3c-0.1,0-0.1-0.1-0.2-0.1C41.2,51,40.4,51.1,39.5,51.3z M59.1,52.3c0,0,0,0.1,0,0.1
			c0.2,0,0.5,0.1,0.7,0c0.3-0.2,0.6-0.4,0.8-0.7c1.1-0.9,2.1-1.8,3.2-2.6c0.3-0.3,0.6-0.5,1-0.9c-0.2,0-0.2,0-0.3,0
			c-0.6,0.1-1.2,0.2-1.7,0.2c-0.5,0-0.9,0.2-1.2,0.7c-0.1,0.2-0.3,0.3-0.4,0.5C60.5,50.6,59.8,51.5,59.1,52.3z M59.3,64.3
			c0.1,0.8,0.1,1.6,0.2,2.3c0,0.2,0.1,0.3,0.2,0.5c0.7,0.9,1.4,1.7,2.1,2.5c0.3,0.3,0.5,0.6,0.8,1c0-0.3-0.1-0.6-0.2-0.9
			c-0.4-1.1-0.8-2.2-1.2-3.2c-0.1-0.3-0.2-0.7-0.5-0.9C60.4,65,59.9,64.7,59.3,64.3z M58.7,52.3c0.9-1.1,1.9-2.3,2.8-3.5
			c-1.4,0.2-2.6,0.4-3.9,0.5c-0.2,0.5,0,0.9,0.2,1.3C58.2,51.1,58.4,51.7,58.7,52.3z M46.9,54.9c-0.2-0.3-0.4-0.1-0.5,0
			c-1.5,1.2-3,2.3-4.4,3.5c-0.4,0.3-0.8,0.7-1.2,1c0,0,0,0.1,0,0.1c0.6-0.1,1.2-0.2,1.8-0.2c0.4,0,0.7-0.1,1-0.4
			C44.6,57.5,45.8,56.2,46.9,54.9z M48.5,58.9c-0.1,0-0.3,0-0.4,0c-1.5,0.2-3,0.4-4.5,0.6c-0.1,0-0.2,0-0.3,0.1
			c-0.5,0.6-1,1.2-1.6,1.9c0.2,0,0.2,0,0.3-0.1c2.1-0.6,4.1-1.3,6.2-1.9C48.5,59.4,48.6,59.2,48.5,58.9z M47.5,42.1
			c0.1,0.8,0.3,1.6,0.4,2.3c0,0.2,0.2,0.4,0.4,0.5c0.4,0.3,0.9,0.6,1.3,0.9c0.7,0.5,1.4,1,2.2,1.5c0.3-0.4,0.3-0.4-0.1-0.8
			c-0.4-0.4-0.8-0.9-1.2-1.4C49.5,44.2,48.5,43.2,47.5,42.1z M50.3,62.5C50.3,62.5,50.4,62.5,50.3,62.5c1-1.1,1.9-2.1,2.8-3.2
			c-0.6-0.1-1.2-0.3-1.7-0.4c-0.1,0-0.1,0-0.2,0c-0.3,0.1-0.6,0.2-0.9,0.3c-0.2,0.1-0.2,0.1-0.2,0.3C50.1,60.5,50.2,61.5,50.3,62.5z
			 M49.6,59.4c-0.7,0.2-0.7,0.1-0.8,0.7c-0.2,1.4-0.4,2.7-0.6,4.1c0,0.3-0.1,0.6-0.1,0.9c0.5-0.6,1-1.2,1.4-1.7
			c0.2-0.3,0.4-0.5,0.4-0.9c-0.1-0.4-0.1-0.8-0.1-1.2C49.8,60.7,49.7,60.1,49.6,59.4z M59.4,53.4c1.3,0.9,2.6,1.8,3.9,2.7
			c0.1,0,0.2,0.1,0.2,0.1c0.8-0.1,1.5-0.2,2.4-0.3c-0.1-0.1-0.2-0.1-0.3-0.1c-1.9-0.8-3.8-1.7-5.7-2.5
			C59.7,53.1,59.5,53.2,59.4,53.4z M59.1,66.1C59.1,66.1,59.1,66.1,59.1,66.1c0-0.7,0-1.4-0.1-2.1c0-0.1-0.1-0.2-0.2-0.2
			c-1.2-1-2.4-2-3.6-2.9c-0.2-0.2-0.5-0.4-0.7-0.5c0,0,0,0-0.1,0.1C56,62.3,57.5,64.2,59.1,66.1z M55.3,40.3c-1,2.2-2,4.3-2.8,6.5
			c0.1,0,0.1,0,0.2-0.1c1-1.4,2-2.8,3-4.2c0-0.1,0.1-0.2,0.1-0.2C55.6,41.7,55.4,41,55.3,40.3z M45.7,43.6
			C45.7,43.6,45.6,43.6,45.7,43.6c0.7,1.9,1.5,3.7,2.2,5.4c0.1,0.1,0.3,0.2,0.4,0.3c0,0,0.1-0.1,0.1-0.1c-0.2-1.4-0.5-2.7-0.7-4.1
			c0-0.1-0.1-0.2-0.1-0.2C46.9,44.4,46.3,44,45.7,43.6z M65,57.8c-0.5-0.4-1-0.8-1.6-1.1c-0.1-0.1-0.2-0.1-0.4-0.1
			c-0.9,0.1-1.9,0.3-2.8,0.4c-0.5,0.1-1.1,0.2-1.6,0.2c0,0,0,0.1,0,0.1C60.8,57.6,62.9,57.7,65,57.8z M47.7,49.6
			C47.7,49.6,47.7,49.6,47.7,49.6c-2.3-0.2-4.7-0.2-7-0.3c0.5,0.4,1,0.7,1.4,1c0.1,0,0.2,0.1,0.3,0C44.2,50.2,45.9,49.9,47.7,49.6z
			 M57.6,48.8C57.6,48.9,57.6,48.9,57.6,48.8c0.3,0.1,0.5,0,0.8,0c0.8-0.1,1.6-0.2,2.4-0.3c0.4-0.1,0.8,0,1.1-0.2
			c0.5-0.4,0.9-1,1.3-1.5c-0.1,0-0.1,0-0.1,0c-1.7,0.6-3.5,1.2-5.2,1.9C57.7,48.7,57.7,48.8,57.6,48.8z M60.7,64.9
			C60.7,64.9,60.7,64.8,60.7,64.9c-0.5-1.7-1.1-3.3-1.7-4.9c0,0.3,0,0.5,0,0.8c0.1,0.9,0.1,1.8,0.2,2.7c0,0.2,0.1,0.4,0.3,0.5
			C59.9,64.3,60.3,64.6,60.7,64.9z M49.5,58.4c0-0.7,0-0.7-0.3-0.9c0,0.3-0.1,0.6-0.1,0.9C49.2,58.4,49.3,58.4,49.5,58.4z M49,59.2
			c0.6-0.1,0.6-0.1,0.5-0.4c-0.2,0-0.3,0.1-0.5,0.1C49,59,49,59.1,49,59.2z M54.1,59.6c0.1-0.2,0.1-0.3,0.2-0.5
			c-0.2,0-0.4,0.1-0.7,0.1C53.9,59.4,54,59.5,54.1,59.6z M59.3,52.9c-0.2-0.1-0.3-0.2-0.5-0.2c0,0-0.1,0-0.1,0.1
			c0.1,0.1,0.2,0.2,0.3,0.4C59.1,53.1,59.2,53,59.3,52.9z"/>
		<path d="M56.1,53.4c0,1.6-1.3,2.9-2.9,2.9c-1.6,0-2.9-1.3-2.9-2.9c0-1.6,1.3-2.9,2.9-2.9C54.8,50.6,56,51.9,56.1,53.4z M53.2,51
			c-1.4,0-2.5,1.1-2.5,2.4c0,1.4,1.1,2.5,2.5,2.5c1.4,0,2.4-1.1,2.5-2.4C55.6,52.1,54.6,51,53.2,51z"/>
	</g>
</g>
</svg>
